<svg width="26" height="31" viewBox="0 0 26 31" fill="none" xmlns="http://www.w3.org/2000/svg"><path d="M1 7.18a3 3 0 0 1 3-3h7.978a3 3 0 0 1 2.007.77l9.458 8.512a3 3 0 0 1 .993 2.23V27a3 3 0 0 1-3 3H4a3 3 0 0 1-3-3V7.18z" stroke="#222" stroke-width="2"/><path d="M24.436 7.18a3 3 0 0 0-3-3H4a3 3 0 0 0-3 3V27a3 3 0 0 0 3 3h17.436a3 3 0 0 0 3-3V7.18z" stroke="#222" stroke-width="2"/><rect x="3.18" width="7.949" height="2.385" rx="1.192" fill="#222"/><path d="M15.205 16a3.228 3.228 0 1 1-4.565 0l2.282-2.283 2.283 2.282z" fill="#222"/></svg>