<svg width="39" height="30" viewBox="0 0 39 30" fill="none" xmlns="http://www.w3.org/2000/svg"><path d="M4.958 20.602v-8.839a2.515 2.515 0 0 1 2.515-2.515h1.37a3.145 3.145 0 0 0 3.145-3.144c0-.633.512-1.145 1.145-1.145h10.32c.632 0 1.145.512 1.145 1.145a3.145 3.145 0 0 0 3.145 3.144h5.26a4 4 0 0 1 4 4v4.14a2.46 2.46 0 0 1-2.461 2.46 4.46 4.46 0 0 0-4.032 2.553l-1.705 3.604a4 4 0 0 1-3.616 2.289h-9.164c-.957 0-1.839-.52-2.3-1.36a4.626 4.626 0 0 0-4.053-2.393h-.775a3.938 3.938 0 0 1-3.939-3.939z" stroke="#222" stroke-width="2"/><rect x="11.086" width="14.251" height="2.375" rx="1.188" fill="#222"/><rect x="2.375" y="10.293" width="14.251" height="2.375" rx="1.188" transform="rotate(90 2.375 10.293)" fill="#222"/></svg>