<svg width="31" height="26" viewBox="0 0 31 26" fill="none" xmlns="http://www.w3.org/2000/svg"><mask id="a" fill="#fff"><path fill-rule="evenodd" clip-rule="evenodd" d="M27.457 25.364A15.437 15.437 0 0 0 31 15.5C31 6.94 24.06 0 15.5 0 6.94 0 0 6.94 0 15.5c0 3.747 1.33 7.184 3.543 9.864h23.914z"/></mask><path d="M27.457 25.364v2h.942l.6-.727-1.542-1.273zm-23.914 0L2 26.637l.6.727h.942v-2zM29 15.5c0 3.265-1.157 6.255-3.085 8.59l3.084 2.547C31.497 23.612 33 19.73 33 15.5h-4zM15.5 2C22.956 2 29 8.044 29 15.5h4C33 5.835 25.165-2 15.5-2v4zM2 15.5C2 8.044 8.044 2 15.5 2v-4C5.835-2-2 5.835-2 15.5h4zm3.085 8.59A13.437 13.437 0 0 1 2 15.5h-4c0 4.229 1.503 8.112 4 11.137l3.085-2.547zm-1.542 3.274h23.914v-4H3.543v4z" fill="#000" mask="url(#a)"/><circle cx="15.501" cy="15.501" r="3.227" stroke="#000" stroke-width="2"/><rect x="22.485" y="6.745" width="2.114" height="7.887" rx="1.057" transform="rotate(45 22.485 6.745)" fill="#000"/></svg>