<svg xmlns="http://www.w3.org/2000/svg" viewBox="0 0 8755 8755" shape-rendering="geometricPrecision" text-rendering="geometricPrecision" image-rendering="optimizeQuality" fill-rule="evenodd" clip-rule="evenodd">
  <defs>
    <style>
<![CDATA[
    .fil0 {fill:#2B2A29}
    .fil1 {fill:white}
   ]]>
    </style>
  </defs>
  <g id="Слой_x0020_1">
    <g id="_2342945583328">
      <rect class="fil0" width="8755" height="8755" rx="620" ry="620"/>
      <path class="fil1" d="M5778 4378c-6-671 549-997 574-1012-314-458-801-521-972-526-409-43-806 245-1015 245-212 0-533-240-879-233-445 6-861 264-1090 664-471 816-119 2015 332 2675 226 322 490 683 835 670 338-14 464-215 872-215 404 0 523 215 875 207 363-6 591-324 809-650 261-370 366-735 370-754-8-2-704-268-711-1071zM5112 2407c182-228 307-537 272-851-263 12-592 182-782 404-167 196-317 518-278 819 295 23 599-149 788-372z"/>
    </g>
  </g>
</svg>
