<svg xmlns="http://www.w3.org/2000/svg" xmlns:xlink="http://www.w3.org/1999/xlink" viewBox="0 0 135 40"><defs><linearGradient id="a" x1="21.8" y1="173.29" x2="5.02" y2="156.51" gradientTransform="matrix(1, 0, 0, -1, 0, 182)" gradientUnits="userSpaceOnUse"><stop offset="0" stop-color="#00a0ff"/><stop offset="0.01" stop-color="#00a1ff"/><stop offset="0.26" stop-color="#00beff"/><stop offset="0.51" stop-color="#00d2ff"/><stop offset="0.76" stop-color="#00dfff"/><stop offset="1" stop-color="#00e3ff"/></linearGradient><linearGradient id="b" x1="33.83" y1="162" x2="9.64" y2="162" gradientTransform="matrix(1, 0, 0, -1, 0, 182)" gradientUnits="userSpaceOnUse"><stop offset="0" stop-color="#ffe000"/><stop offset="0.41" stop-color="#ffbd00"/><stop offset="0.78" stop-color="orange"/><stop offset="1" stop-color="#ff9c00"/></linearGradient><linearGradient id="c" x1="24.83" y1="159.7" x2="2.07" y2="136.95" gradientTransform="matrix(1, 0, 0, -1, 0, 182)" gradientUnits="userSpaceOnUse"><stop offset="0" stop-color="#ff3a44"/><stop offset="1" stop-color="#c31162"/></linearGradient><linearGradient id="d" x1="7.3" y1="181.82" x2="17.46" y2="171.66" gradientTransform="matrix(1, 0, 0, -1, 0, 182)" gradientUnits="userSpaceOnUse"><stop offset="0" stop-color="#32a071"/><stop offset="0.07" stop-color="#2da771"/><stop offset="0.48" stop-color="#15cf74"/><stop offset="0.8" stop-color="#06e775"/><stop offset="1" stop-color="#00f076"/></linearGradient></defs><title>google-play-badge</title><rect width="135" height="40" rx="5" ry="5"/><path d="M130,.8A4.2,4.2,0,0,1,134.2,5V35a4.2,4.2,0,0,1-4.2,4.2H5A4.2,4.2,0,0,1,.8,35V5A4.2,4.2,0,0,1,5,.8H130m0-.8H5A5,5,0,0,0,0,5V35a5,5,0,0,0,5,5H130a5,5,0,0,0,5-5V5a5,5,0,0,0-5-5Z" fill="#a6a6a6"/><path d="M47.4,10.2a2.7,2.7,0,0,1-.7,2,2.9,2.9,0,0,1-2.2.9A3.1,3.1,0,0,1,41.4,10a3.1,3.1,0,0,1,3.1-3.1l1.2.3a2.5,2.5,0,0,1,.9.7l-.5.5a2,2,0,0,0-1.6-.7A2.3,2.3,0,0,0,42.1,10a2.4,2.4,0,0,0,4,1.7,1.9,1.9,0,0,0,.5-1.2H44.5V9.8h2.9A2.5,2.5,0,0,1,47.4,10.2Z" fill="#fff" stroke="#fff" stroke-miterlimit="10" stroke-width="0.2"/><path d="M52,7.7H49.3V9.6h2.5v.7H49.3v1.9H52V13H48.5V7H52Z" fill="#fff" stroke="#fff" stroke-miterlimit="10" stroke-width="0.2"/><path d="M55.3,13h-.8V7.7H52.8V7H57v.7H55.3Z" fill="#fff" stroke="#fff" stroke-miterlimit="10" stroke-width="0.2"/><path d="M59.9,13V7h.8v6Z" fill="#fff" stroke="#fff" stroke-miterlimit="10" stroke-width="0.2"/><path d="M64.1,13h-.8V7.7H61.7V7h4.1v.7H64.1Z" fill="#fff" stroke="#fff" stroke-miterlimit="10" stroke-width="0.2"/><path d="M73.6,12.2a3.1,3.1,0,0,1-4.4,0,3.1,3.1,0,0,1-.9-2.2,3.1,3.1,0,0,1,.9-2.2,3.1,3.1,0,0,1,4.4,0,3.1,3.1,0,0,1,.9,2.2A3.1,3.1,0,0,1,73.6,12.2Zm-3.8-.5a2.3,2.3,0,0,0,3.3,0,2.3,2.3,0,0,0,.7-1.7A2.3,2.3,0,0,0,73,8.3a2.3,2.3,0,0,0-3.3,0,2.4,2.4,0,0,0-.7,1.7A2.4,2.4,0,0,0,69.8,11.7Z" fill="#fff" stroke="#fff" stroke-miterlimit="10" stroke-width="0.2"/><path d="M75.6,13V7h.9l2.9,4.7h0V7h.8v6h-.8L76.3,8.1h0V13Z" fill="#fff" stroke="#fff" stroke-miterlimit="10" stroke-width="0.2"/><path d="M68.1,21.8A4.3,4.3,0,1,0,72.4,26,4.2,4.2,0,0,0,68.1,21.8Zm0,6.8A2.6,2.6,0,1,1,70.5,26,2.5,2.5,0,0,1,68.1,28.6Zm-9.3-6.8A4.3,4.3,0,1,0,63.1,26,4.2,4.2,0,0,0,58.8,21.8Zm0,6.8A2.6,2.6,0,1,1,61.2,26,2.5,2.5,0,0,1,58.8,28.6ZM47.7,23.1v1.8h4.3a3.8,3.8,0,0,1-1,2.3,4.4,4.4,0,0,1-3.3,1.3,4.8,4.8,0,0,1,0-9.6A4.6,4.6,0,0,1,51,20.1l1.3-1.3A6.3,6.3,0,0,0,47.7,17a6.6,6.6,0,1,0,0,13.2,6,6,0,0,0,4.6-1.9,6,6,0,0,0,1.6-4.2,5.9,5.9,0,0,0-.1-1.1Zm45.3,1.4a4,4,0,0,0-3.6-2.7,4,4,0,0,0-4,4.3,4.2,4.2,0,0,0,4.2,4.3,4.2,4.2,0,0,0,3.5-1.9l-1.4-1a2.4,2.4,0,0,1-2.1,1.2,2.2,2.2,0,0,1-2.1-1.3l5.7-2.4Zm-5.8,1.4a2.3,2.3,0,0,1,2.2-2.5,1.6,1.6,0,0,1,1.6.9ZM82.6,30h1.9V17.5H82.6Zm-3.1-7.3h-.1a2.9,2.9,0,0,0-2.2-1,4.3,4.3,0,0,0,0,8.5,2.9,2.9,0,0,0,2.2-1h.1v.6c0,1.6-.9,2.5-2.3,2.5a2.4,2.4,0,0,1-2.1-1.5l-1.6.7a4.1,4.1,0,0,0,3.8,2.5c2.2,0,4-1.3,4-4.4V22H79.6Zm-2.1,5.9a2.6,2.6,0,0,1,0-5.2A2.4,2.4,0,0,1,79.7,26,2.4,2.4,0,0,1,77.4,28.6Zm24.4-11.1H97.3V30h1.9V25.3h2.6a3.9,3.9,0,1,0,0-7.8Zm0,6H99.2V19.2h2.7a2.1,2.1,0,1,1,0,4.3Zm11.5-1.8a3.5,3.5,0,0,0-3.3,1.9l1.7.7a1.8,1.8,0,0,1,1.7-.9,1.8,1.8,0,0,1,2,1.6h0a4.1,4.1,0,0,0-1.9-.5c-1.8,0-3.6,1-3.6,2.8a2.9,2.9,0,0,0,3.1,2.8,2.6,2.6,0,0,0,2.4-1.2h.1v1h1.8V25.2C117.2,23,115.5,21.7,113.4,21.7Zm-.2,6.9c-.6,0-1.5-.3-1.5-1.1s1.1-1.3,2-1.3a3.3,3.3,0,0,1,1.7.4A2.3,2.3,0,0,1,113.2,28.6ZM123.7,22l-2.1,5.4h-.1L119.3,22h-2l3.3,7.6-1.9,4.2h1.9L125.8,22Zm-16.8,8h1.9V17.5h-1.9Z" fill="#fff"/><path d="M10.4,7.5A2,2,0,0,0,10,8.9V31.1a2,2,0,0,0,.5,1.4h.1L22.9,20.1h0L10.5,7.5Z" fill="url(#a)"/><path d="M27,24.3l-4.1-4.1h0L27,15.7h.1L32,18.6c1.4.8,1.4,2.1,0,2.9l-4.9,2.8Z" fill="url(#b)"/><path d="M27.1,24.2,22.9,20,10.4,32.5a1.6,1.6,0,0,0,2.1.1l14.6-8.3" fill="url(#c)"/><path d="M27.1,15.8,12.5,7.5a1.6,1.6,0,0,0-2.1.1L22.9,20Z" fill="url(#d)"/><path d="M27,24.1,12.5,32.4a1.7,1.7,0,0,1-2,0h0a1.7,1.7,0,0,0,2,0l14.6-8.3Z" opacity="0.2" style="isolation:isolate"/><path d="M10.4,32.3a2,2,0,0,1-.5-1.4h0a2,2,0,0,0,.5,1.4h0Z" opacity="0.12" style="isolation:isolate"/><path d="M32,21.3l-5,2.8h.1L32,21.4a1.8,1.8,0,0,0,1-1.4h0A1.9,1.9,0,0,1,32,21.3Z" opacity="0.12" style="isolation:isolate"/><path d="M12.5,7.6,32,18.7a1.9,1.9,0,0,1,1,1.3h0a1.8,1.8,0,0,0-1-1.4L12.5,7.5C11.1,6.7,10,7.3,10,8.9h0C10,7.5,11.1,6.8,12.5,7.6Z" fill="#fff" opacity="0.25" style="isolation:isolate"/></svg>