<svg xmlns="http://www.w3.org/2000/svg" viewBox="0 0 415 415" shape-rendering="geometricPrecision" text-rendering="geometricPrecision" image-rendering="optimizeQuality" fill-rule="evenodd" clip-rule="evenodd">
  <defs>
    <style>
<![CDATA[
    .fil1 {fill:#FEFEFE}
    .fil0 {fill:#2B2A29}
   ]]>
    </style>
  </defs>
  <g id="Слой_x0020_1">
    <rect class="fil0" width="415" height="415" rx="34" ry="34"/>
    <g id="_2213691163424">
      <path class="fil1" d="M271 371c-14 0-23-8-23-21 0-8 2-15 4-21 9-31 3-26 7-44 2-8 4-13 10-16 0 8 6 19 14 19s14-2 21-7c3-4 1-4 7-4s10 3 13 7c6 10-1 11 11 27 8 9 10 15 0 21-12 7-27 12-36 23-1 2-1 2-3 4-7 6-15 12-25 12zM75 304c0-10 16-12 21-16 7-4 19-36 40-4 8 12 7 17 18 31 8 11 25 27 17 42-1 2-3 4-4 5-18 14-45-4-57-7-3 0-7-1-11-2-4 0-18-1-21-4-10-6-2-17-2-25s-1-12-1-20zm198-38c0-8 0-5 3-10 16 0 31 10 18 20-6 5-7 4-15 4-2-3-6-6-6-14zm-129-70l-1 2 1-2zm0 0h1-1zm125-7c7 5 14 17 18 25 7 16 5 24 5 37 5 1 17 7 19 13 3 7 0 8-1 9 0-17-27-23-33-21s-8 6-8 11c-16 4-16 31-17 41-1 4-1 21-8 25-21 13-46 18-69 4-3-2-10-11-11-15 16 0 12-16 0-28-19-18-45-21-36-59 1-6 11-29 15-33-1 4-4 11-6 14-2 4-5 11-6 16-1 9-1 22 5 30 1 3 0 2 3 3 0-25 11-47 22-70 5-12 12-30 12-43 10 2 13 18 34 12 7-2 10-6 16-8 11-4 9-5 16-10 0 17 25 63 32 82 2 5 4 8 5 14 3 11-1 7 10 10 5-11 2-24-2-34-6-18-14-20-15-25zm0 0h-1l1-1v1zm-68-31c-12 0-11-2-19-9-9-7-13-4-13-18l14-10c14-14 22-7 37 0 2 1 30 8 12 22-4 3-5 3-10 5-7 3-13 10-21 10zm-26-50c0 9 0 7 3 12l-3 3c-20-29 17-52 17-12l-6 2c0-16-11-14-11-5zm37 5c-2-1-2-1-4-1-5-3-4-7-1-14 6-15 20-14 26-6 10 14 2 30-1 30-2 0-2-1-6-2 0 0 6-22-6-22-6 0-8 8-8 15zm-50-26c0 23 2 44-3 62-5 15-17 29-27 42-2 3-4 5-6 9-12 21-21 39-21 64 0 3 0 3 1 4-1 1-2 2-2 3-12 16-10 12-23 18-17 7-10 23-10 35 0 6-3 6-3 18 0 20 31 13 49 21 14 5 31 16 50 5 4-2 7-6 9-10 12 0 17-4 35-4 12 0 20 3 32 3 4 7 4 8 9 13 13 12 33 6 44-5 4-4 1 1 7-6 7-9 20-15 31-21 27-13 3-28 0-39-2-4-2-7-3-10-2-9-4-12-12-15 7-15 3-39-3-53-5-14-10-22-18-33-9-14-22-26-29-41-11-23 2-59-14-87-14-22-38-25-62-18-13 4-21 12-27 24-2 5-4 15-4 21z"/>
      <path class="fil1" d="M195 149c16 0 20-6 34-13 3-2 2-1 3-4-13 0-32 28-55 5-2-3-2-3-5-5 0 5 2 6 8 11 4 3 9 6 15 6z"/>
    </g>
  </g>
</svg>
