<?xml version="1.0" standalone="no"?>
<!DOCTYPE svg PUBLIC "-//W3C//DTD SVG 1.1//EN" "http://www.w3.org/Graphics/SVG/1.1/DTD/svg11.dtd" >
<svg xmlns="http://www.w3.org/2000/svg" xmlns:xlink="http://www.w3.org/1999/xlink" version="1.1">
<metadata>
Created by FontForge 20160407 at Mon Sep 19 16:55:49 2016
 By Jimmy Warting
\(c\) Alexander Pompeev, 1994-98.
</metadata>
<defs>
<font id="EurotypeAP-DemiBoldItalic" horiz-adv-x="703" >
  <font-face 
    font-family="EurotypeAP"
    font-weight="600"
    font-style="italic"
    font-stretch="normal"
    units-per-em="1000"
    panose-1="4 0 7 0 0 0 0 0 0 0"
    ascent="773"
    descent="-227"
    x-height="509"
    cap-height="727"
    bbox="-95 -227 1231.12 876"
    underline-thickness="50"
    underline-position="-100"
    slope="-11"
    stemh="116"
    stemv="139"
    unicode-range="U+0020-2122"
  />
<missing-glyph horiz-adv-x="280" 
 />
    <glyph glyph-name=".notdef" horiz-adv-x="280" 
 />
    <glyph glyph-name="space" unicode=" " horiz-adv-x="341" 
 />
    <glyph glyph-name="space" unicode="&#xa0;" horiz-adv-x="341" 
 />
    <glyph glyph-name="exclam" unicode="!" horiz-adv-x="320" 
d="M304 727l-98 -483h-121l80 483h139zM185 133l-25 -133h-121l25 133h121z" />
    <glyph glyph-name="quotedbl" unicode="&#x22;" horiz-adv-x="481" 
d="M497 727l-23 -127c-1 -2 -59 -114 -63 -123h-53c-2 9 -18 121 -17 123l23 127h133zM268 727l-23 -127c-1 -2 -59 -114 -63 -123h-53c-2 9 -18 121 -17 123l23 127h133z" />
    <glyph glyph-name="numbersign" unicode="#" 
d="M658 524l-21 -111h-105l-46 -129h99l-21 -111h-123l-65 -173h-89l64 173h-106c-20 -58 -42 -115 -64 -173h-90l64 173h-97l21 111h117l49 129h-103l21 111h123c24 68 49 135 74 203h92l-76 -203h105l76 203h89l-75 -203h87zM444 413h-111l-46 -129h108z" />
    <glyph glyph-name="dollar" unicode="$" 
d="M681 519h-121c22 117 -31 89 -115 101l-36 -194c160 -8 278 -11 241 -208c-36 -194 -153 -224 -322 -224l-14 -75h-77l14 75c-193 0 -271 36 -233 243h121c-24 -131 14 -129 133 -129l38 202c-147 18 -271 16 -235 207c37 198 143 216 315 216l13 70h77l-13 -70
c170 -3 250 -22 214 -214zM368 620c-86 -12 -140 12 -162 -103c-17 -92 56 -89 126 -91zM515 207c20 108 -41 101 -128 103l-38 -202c81 0 147 0 166 99z" />
    <glyph glyph-name="percent" unicode="%" horiz-adv-x="896" 
d="M851 229l-20 -104c-25 -129 -97 -131 -204 -131c-100 0 -131 28 -112 131l21 112c21 113 82 127 179 127c109 0 159 -13 136 -135zM805 727l-597 -727h-91l595 727h93zM399 598l-19 -102c-24 -128 -90 -132 -199 -132c-98 0 -138 25 -118 130l21 112
c22 116 77 127 180 127c109 0 158 -12 135 -135zM768 231c9 50 0 59 -49 59h-50c-33 0 -47 -30 -52 -57l-20 -106c-11 -60 10 -59 63 -59c68 0 79 6 92 77zM317 601c11 61 -13 60 -67 60c-20 0 -46 0 -65 -11c-10 -12 -15 -30 -17 -43l-22 -116c-11 -56 16 -54 62 -54
c70 0 80 9 93 79z" />
    <glyph glyph-name="ampersand" unicode="&#x26;" horiz-adv-x="777" 
d="M714 79l-81 -79l-71 74c-62 -87 -189 -80 -272 -80c-174 0 -280 24 -242 226c21 110 51 185 178 199c-35 31 -50 65 -40 117c31 169 109 197 266 197c190 0 222 -40 187 -228h-119c15 97 20 115 -85 115c-59 0 -104 -3 -118 -75c-12 -64 34 -86 70 -124l154 -161l18 98
h119l-14 -74c-4 -21 -24 -96 -36 -111zM485 151l-200 203c-86 -12 -92 -59 -106 -132c-22 -118 37 -114 135 -114c59 0 120 -6 171 43z" />
    <glyph glyph-name="quotesingle" unicode="'" horiz-adv-x="245" 
d="M264 727l-23 -125c-15 -82 -42 -129 -134 -129c-7 0 -13 2 -20 2l11 57c45 0 60 23 68 64h-47l24 131h121z" />
    <glyph glyph-name="parenleft" unicode="(" horiz-adv-x="357" 
d="M374 733l-22 -113c-84 -8 -101 -38 -116 -116c-26 -142 -56 -284 -82 -425c-14 -73 2 -109 78 -109l-21 -115c-225 0 -208 96 -172 292l51 274c37 198 52 304 284 312z" />
    <glyph glyph-name="parenright" unicode=")" horiz-adv-x="357" 
d="M317 464l-57 -305c-36 -191 -59 -304 -284 -304l21 115c93 0 102 43 117 121l79 420c13 69 4 109 -74 109l22 113c206 0 211 -83 176 -269z" />
    <glyph glyph-name="asterisk" unicode="*" horiz-adv-x="683" 
d="M536 526l-139 -19l57 -126l-62 -33l-60 130l-107 -100l-48 52l99 98l-122 71l37 63l121 -69l24 138l74 -13l-24 -138l138 23z" />
    <glyph glyph-name="plus" unicode="+" horiz-adv-x="566" 
d="M517 227h-187v-187h-93v187h-189v93h189v189h93v-189h187v-93z" />
    <glyph glyph-name="comma" unicode="," horiz-adv-x="361" 
d="M193 131l-22 -117c-21 -111 -49 -137 -159 -137l11 57c41 0 63 28 70 66h-48l25 131h123z" />
    <glyph glyph-name="hyphen" unicode="-" horiz-adv-x="278" 
d="M267 314l-18 -94h-258l18 94h258z" />
    <glyph glyph-name="hyphen" unicode="&#xad;" horiz-adv-x="278" 
d="M267 314l-18 -94h-258l18 94h258z" />
    <glyph glyph-name="period" unicode="." horiz-adv-x="361" 
d="M183 133l-25 -133h-123l25 133h123z" />
    <glyph glyph-name="slash" unicode="/" horiz-adv-x="681" 
d="M753 727c-240 -279 -481 -558 -722 -837h-108c241 279 480 558 719 837h111z" />
    <glyph glyph-name="zero" unicode="0" 
d="M672 428l-26 -142c-43 -232 -121 -292 -350 -292c-241 0 -295 57 -249 300l30 159c48 255 140 280 373 280c228 0 262 -88 222 -305zM548 464c26 142 -3 156 -139 156c-153 0 -173 -18 -202 -170l-36 -192c-26 -138 5 -150 134 -150c136 0 177 1 205 152z" />
    <glyph glyph-name="one" unicode="1" 
d="M563 727l-136 -727h-133l114 610l-224 -187l-63 84l273 220h169z" />
    <glyph glyph-name="two" unicode="2" 
d="M654 511c-7 -37 -16 -76 -31 -112c-76 -178 -337 -99 -424 -184c-23 -23 -31 -73 -37 -102h417l-21 -113h-549l27 143c10 54 30 121 79 160c92 74 319 55 369 108c21 22 29 59 34 85c20 108 -9 124 -111 124c-136 0 -152 -14 -178 -153h-132c41 222 115 266 332 266
c167 0 260 -36 225 -222z" />
    <glyph glyph-name="three" unicode="3" 
d="M658 523c-15 -80 -54 -140 -142 -150l-3 -4c97 -10 117 -58 99 -153c-41 -221 -166 -222 -341 -222c-203 0 -258 36 -218 250h132c-19 -100 -21 -136 87 -136h64c85 0 124 6 142 102c26 139 -69 108 -182 108l20 107c27 0 53 -2 80 -2c95 0 114 21 132 115
c18 95 -57 82 -130 82c-112 0 -136 -10 -158 -126h-133c37 197 112 239 299 239c170 0 291 -3 252 -210z" />
    <glyph glyph-name="four" unicode="4" 
d="M642 727l-87 -467h86l-20 -105h-86l-29 -155h-131l29 155h-397l28 151l401 421h206zM492 626h-4l-350 -366h286z" />
    <glyph glyph-name="five" unicode="5" 
d="M674 727l-19 -106h-383l-34 -180h2c42 55 127 61 183 61c188 0 226 -73 192 -252c-42 -223 -130 -256 -331 -256c-172 0 -262 16 -231 214h133c-20 -107 53 -102 138 -102c113 0 136 28 156 136c25 131 4 146 -125 146c-39 0 -119 4 -136 -49h-124l72 388h507z" />
    <glyph glyph-name="six" unicode="6" 
d="M656 524h-133c16 85 -16 94 -93 94h-61c-103 0 -118 -34 -136 -129l-22 -116h2c40 67 111 70 174 70c173 0 258 -11 221 -210c-41 -217 -135 -239 -329 -239c-209 0 -263 49 -222 264l44 233c40 214 144 242 332 242c166 0 259 -17 223 -209zM473 223
c21 110 -24 107 -120 107h-37c-96 0 -117 -19 -134 -112c-23 -121 51 -112 150 -112c100 0 122 14 141 117z" />
    <glyph glyph-name="seven" unicode="7" 
d="M688 727l-25 -135l-409 -592h-149l428 608h-407l22 119h540z" />
    <glyph glyph-name="eight" unicode="8" 
d="M667 540c-17 -91 -43 -146 -144 -163l-1 -4c92 -14 111 -68 94 -159c-40 -214 -152 -220 -333 -220c-177 0 -272 20 -234 223c17 92 62 142 158 156l1 4c-96 21 -106 71 -88 167c35 187 185 189 330 189c146 0 251 -16 217 -193zM534 538c17 91 -53 82 -122 82
c-76 0 -142 11 -160 -84c-22 -118 28 -111 128 -111c98 0 133 1 154 113zM484 214c21 113 -36 104 -133 104c-96 0 -151 5 -172 -106c-20 -105 27 -104 117 -104h32c90 0 137 6 156 106z" />
    <glyph glyph-name="nine" unicode="9" 
d="M650 413l-38 -203c-39 -206 -187 -216 -353 -216c-159 0 -248 28 -214 209h132c-13 -85 13 -97 95 -97c99 0 188 -15 212 114c9 45 16 89 23 134h-2c-59 -70 -120 -70 -196 -70c-170 0 -234 39 -200 220c38 207 134 229 318 229c254 0 269 -75 223 -320zM537 513
c20 105 -43 107 -132 107c-106 0 -145 -3 -166 -118c-21 -110 32 -105 126 -105c76 0 148 -7 167 90z" />
    <glyph glyph-name="colon" unicode=":" horiz-adv-x="361" 
d="M254 509l-26 -134h-123l26 134h123zM183 133l-25 -133h-123l25 133h123z" />
    <glyph glyph-name="semicolon" unicode=";" horiz-adv-x="361" 
d="M264 509l-26 -134h-123l26 134h123zM193 131l-22 -116c-23 -122 -43 -130 -159 -138l11 57c48 0 62 22 70 66h-48l25 131h123z" />
    <glyph glyph-name="less" unicode="&#x3c;" horiz-adv-x="566" 
d="M517 40l-469 200v68l469 201v-98l-337 -137l337 -137v-97z" />
    <glyph glyph-name="equal" unicode="=" horiz-adv-x="566" 
d="M517 322h-469v93h469v-93zM517 133h-469v94h469v-94z" />
    <glyph glyph-name="greater" unicode="&#x3e;" horiz-adv-x="566" 
d="M517 240l-469 -200v97l338 137l-338 137v98l469 -201v-68z" />
    <glyph glyph-name="question" unicode="?" horiz-adv-x="598" 
d="M575 526c-42 -224 -213 -157 -250 -244c-7 -17 -10 -34 -14 -51h-123c6 28 11 56 21 84c46 128 217 65 245 213c16 86 -5 102 -87 102c-120 0 -127 -9 -149 -125h-124c37 198 101 228 290 228c161 0 222 -41 191 -207zM293 133l-25 -133h-123l25 133h123z" />
    <glyph glyph-name="at" unicode="@" horiz-adv-x="945" 
d="M858 394c0 -105 -93 -239 -206 -239c-51 0 -83 11 -110 57c-32 -29 -80 -57 -125 -57c-78 0 -141 74 -141 149c0 110 105 243 220 243c36 0 84 -24 92 -62h2l12 49h76c-10 -36 -70 -245 -70 -267c0 -26 16 -36 40 -36c75 0 125 120 125 183c0 137 -147 238 -273 238
c-164 0 -320 -147 -320 -313c0 -156 145 -265 293 -265c55 0 114 9 165 30l29 -74c-58 -27 -126 -36 -189 -36c-192 0 -393 119 -393 330c0 217 203 409 417 409c188 0 356 -146 356 -339zM556 401c0 50 -26 72 -75 72c-74 0 -112 -96 -112 -159c0 -43 19 -83 66 -83
c83 0 121 100 121 170z" />
    <glyph glyph-name="A" unicode="A" horiz-adv-x="707" 
d="M641 0h-142l-21 137h-315l-72 -137h-145c126 243 251 485 378 727h205zM464 242l-53 379h-1l-197 -379h251z" />
    <glyph glyph-name="B" unicode="B" horiz-adv-x="715" 
d="M689 538c-16 -84 -42 -140 -134 -161l-1 -4c102 -11 106 -79 89 -170c-30 -158 -102 -203 -254 -203h-378l136 727h365c142 0 205 -38 177 -189zM546 524c15 77 -14 84 -83 84h-198l-35 -185h197c78 0 104 22 119 101zM505 214c15 79 2 102 -79 102h-216l-37 -197h208
c72 0 109 15 124 95z" />
    <glyph glyph-name="C" unicode="C" horiz-adv-x="694" 
d="M675 483h-138c26 139 -9 131 -138 131c-124 0 -163 -23 -187 -152l-36 -190c-26 -139 3 -159 136 -159c131 0 164 2 191 147h138l-9 -46c-45 -232 -191 -222 -380 -222c-276 0 -240 144 -199 366c49 262 77 375 379 375c210 0 286 -17 243 -250z" />
    <glyph glyph-name="D" unicode="D" horiz-adv-x="751" 
d="M726 445l-29 -155c-33 -177 -120 -290 -310 -290h-378l136 727h350c206 0 269 -78 231 -282zM585 439c23 125 14 169 -122 169h-200l-92 -489h210c124 0 161 83 180 189z" />
    <glyph glyph-name="E" unicode="E" horiz-adv-x="620" 
d="M639 727l-22 -119h-360l-34 -182h341l-21 -114h-341l-37 -193h362l-22 -119h-502l136 727h500z" />
    <glyph glyph-name="F" unicode="F" horiz-adv-x="584" 
d="M624 727l-22 -119h-343l-36 -193h324l-22 -115h-324l-56 -300h-140l136 727h483z" />
    <glyph glyph-name="G" unicode="G" horiz-adv-x="725" 
d="M710 507h-139c22 115 -53 107 -144 107c-145 0 -189 -3 -219 -161l-33 -175c-35 -185 38 -167 199 -167c127 0 136 68 155 169h-183l19 106h324l-26 -142c-43 -236 -155 -250 -362 -250c-206 0 -314 30 -270 266l34 181c45 237 140 292 367 292h68
c177 0 246 -36 210 -226z" />
    <glyph glyph-name="H" unicode="H" horiz-adv-x="767" 
d="M768 727l-136 -727h-140l58 310h-339l-58 -310h-141l136 727h141l-56 -298h339l56 298h140z" />
    <glyph glyph-name="I" unicode="I" horiz-adv-x="287" 
d="M289 727l-136 -727h-141l136 727h141z" />
    <glyph glyph-name="J" unicode="J" horiz-adv-x="584" 
d="M593 727l-96 -512c-35 -187 -108 -221 -283 -221c-184 0 -231 42 -196 228c4 21 9 41 13 62h135c-5 -28 -13 -57 -18 -85c-15 -77 19 -86 85 -86c96 0 109 16 126 109l94 505h140z" />
    <glyph glyph-name="K" unicode="K" horiz-adv-x="713" 
d="M768 727l-360 -356l254 -371h-176l-209 310h-66l-58 -310h-141l136 727h141l-56 -298h66l298 298h171z" />
    <glyph glyph-name="L" unicode="L" horiz-adv-x="567" 
d="M516 119l-22 -119h-482l136 727h141l-114 -608h341z" />
    <glyph glyph-name="M" unicode="M" horiz-adv-x="997" 
d="M998 727l-136 -727h-139l126 614h-4l-344 -614h-125l-117 610h-4c-30 -203 -65 -407 -102 -610h-141l136 727h226l96 -540h4l295 540h229z" />
    <glyph glyph-name="N" unicode="N" horiz-adv-x="821" 
d="M825 727l-136 -727h-234l-194 608h-6c-31 -203 -65 -405 -102 -608h-141l136 727h232l198 -608h4l102 608h141z" />
    <glyph glyph-name="O" unicode="O" horiz-adv-x="713" 
d="M694 475l-44 -235c-43 -229 -184 -246 -375 -246c-208 0 -280 49 -238 268l38 199c46 241 133 272 357 272c204 0 305 -29 262 -258zM555 481c24 126 -34 133 -144 133c-119 0 -172 -13 -197 -145l-37 -195c-27 -141 -2 -163 137 -163c121 0 175 19 200 151z" />
    <glyph glyph-name="P" unicode="P" horiz-adv-x="685" 
d="M674 481c-32 -172 -93 -246 -275 -246h-212l-44 -235h-140l136 727h318c196 0 256 -40 217 -246zM537 483c18 100 2 125 -100 125h-180l-48 -254h176c110 0 132 22 152 129z" />
    <glyph glyph-name="Q" unicode="Q" horiz-adv-x="763" 
d="M725 437l-27 -146c-8 -41 -22 -108 -41 -148l60 -46l-69 -81l-56 46c-76 -67 -188 -68 -274 -68c-285 0 -306 77 -255 347l18 95c48 251 142 297 380 297c236 0 309 -51 264 -296zM585 437c30 163 7 177 -154 177c-138 0 -180 -19 -207 -163l-30 -157
c-35 -181 3 -183 174 -183c38 0 88 6 124 31l-157 116l73 83l135 -106c7 38 19 76 26 114z" />
    <glyph glyph-name="R" unicode="R" horiz-adv-x="721" 
d="M698 511c-21 -111 -41 -183 -168 -207v-2c102 -10 108 -74 91 -167l-25 -135h-141c9 50 65 218 -13 236c-16 4 -35 4 -53 4h-195l-45 -240h-140l136 727h358c164 0 227 -45 195 -216zM553 489c18 98 6 119 -93 119h-197l-46 -248h200c98 0 119 37 136 129z" />
    <glyph glyph-name="S" unicode="S" horiz-adv-x="673" 
d="M652 513h-141c24 126 -25 105 -139 105c-79 0 -131 -2 -149 -94c-3 -17 -5 -35 -3 -52c10 -87 351 0 393 -126c15 -45 5 -92 -4 -141c-42 -221 -188 -211 -366 -211c-194 0 -256 32 -218 237h139c-1 -7 -4 -14 -6 -21c-20 -109 46 -104 136 -104c92 0 157 -2 178 110
c4 24 7 54 -7 72c-57 75 -440 -81 -380 238c35 187 146 207 311 207c184 0 298 4 256 -220z" />
    <glyph glyph-name="T" unicode="T" horiz-adv-x="590" 
d="M654 727l-22 -119h-214l-114 -608h-140l114 608h-212l22 119h566z" />
    <glyph glyph-name="U" unicode="U" horiz-adv-x="751" 
d="M754 727l-97 -520c-40 -215 -198 -213 -364 -213c-164 0 -279 21 -242 216l97 517h141l-99 -528c-18 -95 92 -88 162 -88c95 0 148 7 168 114l94 502h140z" />
    <glyph glyph-name="V" unicode="V" horiz-adv-x="677" 
d="M753 727l-372 -727h-209l-98 727h143l81 -612h2l309 612h144z" />
    <glyph glyph-name="W" unicode="W" horiz-adv-x="1099" 
d="M1169 727l-331 -727h-203l-41 555h-4l-254 -555h-201l-53 727h141l36 -614h4l282 614h161l47 -614h4l272 614h140z" />
    <glyph glyph-name="X" unicode="X" horiz-adv-x="692" 
d="M753 727l-284 -352l163 -375h-161l-125 306l-243 -306h-165l311 375l-157 352h163l116 -290l220 290h162z" />
    <glyph glyph-name="Y" unicode="Y" horiz-adv-x="670" 
d="M747 727l-353 -449l-52 -278h-140l52 278l-180 449h159l115 -310h4l234 310h161z" />
    <glyph glyph-name="Z" unicode="Z" horiz-adv-x="648" 
d="M684 727l-22 -119l-492 -487l-1 -2h407l-22 -119h-582l22 117l494 487l1 4h-383l22 119h556z" />
    <glyph glyph-name="bracketleft" unicode="[" horiz-adv-x="357" 
d="M370 733l-21 -107h-93l-125 -666h93l-19 -105h-225l165 878h225z" />
    <glyph glyph-name="backslash" unicode="\" horiz-adv-x="269" 
d="M302 0h-95c-82 242 -159 485 -241 727h96z" />
    <glyph glyph-name="bracketright" unicode="]" horiz-adv-x="357" 
d="M368 733l-165 -878h-225l19 105h92l125 666h-92l21 107h225z" />
    <glyph glyph-name="asciicircum" unicode="^" horiz-adv-x="566" 
d="M517 258h-96l-139 336l-139 -336h-95l200 469h68z" />
    <glyph glyph-name="underscore" unicode="_" horiz-adv-x="485" 
d="M485 -145h-485v71h485v-71z" />
    <glyph glyph-name="grave" unicode="`" horiz-adv-x="380" 
d="M352 610l-35 -52l-173 84l58 79z" />
    <glyph glyph-name="a" unicode="a" horiz-adv-x="592" 
d="M522 337l-63 -337h-121l18 62l-4 2c-38 -69 -114 -70 -176 -70c-116 0 -179 32 -155 159c24 130 101 159 219 159c56 0 124 1 141 -58h5l14 78c14 80 -1 99 -80 99c-58 0 -106 3 -119 -71h-122c27 146 121 155 242 155c140 0 231 -15 201 -178zM367 157
c12 63 -42 72 -94 72c-59 0 -116 4 -131 -74s28 -77 92 -77c62 0 118 -2 133 79z" />
    <glyph glyph-name="b" unicode="b" horiz-adv-x="596" 
d="M526 246c-29 -156 -64 -252 -245 -252c-66 0 -123 19 -141 82h-3l-9 -76h-123l136 727h123l-53 -286h5c39 62 106 74 168 74c188 0 171 -113 142 -269zM407 256c21 114 35 165 -96 165c-108 0 -124 -94 -139 -177c-17 -92 -21 -157 86 -157c121 0 130 69 149 169z" />
    <glyph glyph-name="c" unicode="c" horiz-adv-x="554" 
d="M516 330h-121c15 81 -19 93 -94 93c-94 0 -114 -42 -130 -127l-19 -101c-14 -73 0 -110 76 -110c96 0 120 7 139 108h123c-32 -172 -105 -199 -265 -199c-203 0 -220 61 -184 254c36 191 76 267 284 267c141 0 220 -28 191 -185z" />
    <glyph glyph-name="d" unicode="d" horiz-adv-x="596" 
d="M601 727l-136 -727h-123l19 76h-3c-40 -63 -106 -82 -171 -82c-178 0 -180 99 -151 252c29 152 54 269 244 269c60 0 126 -12 141 -74h4l53 286h123zM390 269c16 89 15 154 -91 154c-113 0 -124 -81 -141 -171c-14 -78 -34 -167 70 -167c11 0 26 5 38 6
c107 10 108 93 124 178z" />
    <glyph glyph-name="e" unicode="e" horiz-adv-x="573" 
d="M506 231h-350c-1 -9 -5 -19 -7 -28c-18 -98 6 -116 99 -116c61 0 108 -2 122 74h123c-30 -162 -130 -167 -262 -167c-214 0 -229 68 -192 268c33 174 88 253 272 253c232 0 230 -76 195 -284zM398 308c19 101 7 115 -95 115c-98 0 -115 -21 -132 -115h227z" />
    <glyph glyph-name="f" unicode="f" horiz-adv-x="357" 
d="M414 727l-17 -93c-124 0 -122 -3 -144 -125h125l-18 -94h-125l-78 -415h-122l78 415h-71l18 94h71c26 139 41 218 203 218h80z" />
    <glyph glyph-name="g" unicode="g" horiz-adv-x="596" 
d="M561 509l-96 -511c-36 -190 -108 -225 -288 -225c-136 0 -204 25 -176 174h115c-13 -70 14 -80 79 -80c88 0 128 10 147 107l19 98h-3c-40 -62 -110 -78 -172 -78c-194 0 -175 117 -145 276c27 147 72 245 241 245c72 0 123 -15 143 -84h3l12 78h121zM394 265
c18 98 18 158 -95 158c-103 0 -117 -58 -134 -145l-9 -47c-16 -84 -20 -144 80 -144c129 0 138 74 158 178z" />
    <glyph glyph-name="h" unicode="h" horiz-adv-x="600" 
d="M535 339l-64 -339h-124l61 324c15 80 -1 99 -83 99c-93 0 -123 -54 -139 -137l-54 -286h-123l136 727h123l-55 -296h3c40 75 106 84 177 84c124 0 165 -52 142 -176z" />
    <glyph glyph-name="i" unicode="i" horiz-adv-x="249" 
d="M261 727l-19 -104h-122l19 104h122zM221 509l-96 -509h-122l96 509h122z" />
    <glyph glyph-name="j" unicode="j" horiz-adv-x="238" 
d="M257 727l-19 -104h-123l19 104h123zM217 509l-99 -523c-19 -98 -55 -164 -165 -164c-16 0 -32 1 -48 3l17 90c61 0 66 35 76 87l96 507h123z" />
    <glyph glyph-name="k" unicode="k" horiz-adv-x="543" 
d="M537 509l-227 -240l168 -269h-147l-128 227h-30l-43 -227h-121l136 727h121l-78 -417h30l182 199h137z" />
    <glyph glyph-name="l" unicode="l" horiz-adv-x="264" 
d="M269 727l-136 -727h-122l136 727h122z" />
    <glyph glyph-name="m" unicode="m" horiz-adv-x="916" 
d="M848 337l-63 -337h-123l60 318c13 67 9 105 -67 105c-89 0 -124 -40 -140 -125l-56 -298h-123l61 324c12 64 5 99 -66 99c-95 0 -126 -42 -143 -131l-55 -292h-122l96 509h117l-14 -74h5c39 65 111 80 175 80c65 0 133 -17 134 -90h4c42 75 115 90 187 90
c127 0 156 -57 133 -178z" />
    <glyph glyph-name="n" unicode="n" horiz-adv-x="600" 
d="M534 335l-63 -335h-124l60 320c14 76 7 103 -75 103c-107 0 -130 -54 -148 -147l-52 -276h-123l96 509h123l-15 -78h3c39 73 103 84 171 84c134 0 172 -47 147 -180z" />
    <glyph glyph-name="o" unicode="o" horiz-adv-x="584" 
d="M518 241c-37 -198 -86 -247 -289 -247c-194 0 -228 53 -192 244c37 201 67 277 292 277c220 0 227 -73 189 -274zM401 280c18 99 24 143 -90 143c-127 0 -130 -68 -149 -171c-20 -105 -40 -165 86 -165c123 0 127 50 146 154z" />
    <glyph glyph-name="p" unicode="p" horiz-adv-x="598" 
d="M532 253c-29 -157 -62 -259 -248 -259c-63 0 -120 10 -137 72h-5l-54 -288h-123l138 731h123l-20 -78h3c43 66 107 84 175 84c181 0 177 -110 148 -262zM409 254c16 86 33 169 -78 169c-103 0 -133 -53 -151 -147c-20 -106 -44 -189 88 -189c115 0 123 74 141 167z" />
    <glyph glyph-name="q" unicode="q" horiz-adv-x="600" 
d="M565 509l-138 -731h-123l55 290h-4c-41 -64 -105 -74 -169 -74c-151 0 -182 73 -155 216c30 159 53 305 256 305c66 0 124 -19 141 -84h4l10 78h123zM396 268c17 98 16 155 -95 155c-118 0 -128 -101 -145 -194c-16 -85 -13 -142 84 -142c113 0 133 49 150 147z" />
    <glyph glyph-name="r" unicode="r" horiz-adv-x="477" 
d="M450 314h-113c10 52 26 109 -43 109c-72 0 -100 -47 -112 -111l-59 -312h-122l96 509h120l-17 -68h6c34 56 89 74 147 74c137 0 117 -93 97 -201z" />
    <glyph glyph-name="s" unicode="s" horiz-adv-x="560" 
d="M510 369h-122c12 60 -40 62 -87 62c-56 0 -106 5 -120 -67c-2 -12 -3 -23 1 -33c21 -55 272 14 304 -89c9 -28 6 -66 0 -97c-28 -148 -164 -151 -277 -151c-135 0 -219 4 -189 165h123c-13 -67 9 -83 73 -83h52c50 0 86 11 97 67c23 121 -228 40 -292 105
c-30 30 -21 84 -13 127c27 144 146 140 257 140c109 0 220 -5 193 -146z" />
    <glyph glyph-name="t" unicode="t" horiz-adv-x="433" 
d="M425 509l-18 -94h-196l-50 -264c-8 -44 -7 -64 42 -64c65 0 73 61 82 108h107c-25 -132 -58 -201 -206 -201c-127 0 -171 24 -146 159l49 262h-63l18 94h63l21 116h122l-21 -116h196z" />
    <glyph glyph-name="u" unicode="u" horiz-adv-x="596" 
d="M559 509l-96 -509h-117l15 78h-4c-41 -67 -113 -84 -179 -84c-98 0 -163 36 -143 143l70 372h123l-63 -333c-13 -71 0 -89 70 -89c89 0 130 36 147 125l56 297h121z" />
    <glyph glyph-name="v" unicode="v" horiz-adv-x="495" 
d="M531 509l-244 -509h-186l-57 509h125l39 -426h2l192 426h129z" />
    <glyph glyph-name="w" unicode="w" horiz-adv-x="793" 
d="M817 509l-212 -509h-176l-14 409h-4l-167 -409h-177l-19 509h119l7 -426h2l180 426h152l18 -426h4l168 426h119z" />
    <glyph glyph-name="x" unicode="x" horiz-adv-x="505" 
d="M517 509l-193 -242l115 -267h-145l-67 185l-136 -185h-147l219 267l-103 242h139l58 -163l119 163h141z" />
    <glyph glyph-name="y" unicode="y" horiz-adv-x="489" 
d="M521 509c-42 -95 -85 -191 -126 -286s-81 -189 -122 -284c-49 -114 -98 -164 -220 -164c-16 0 -32 0 -48 2l17 92c9 0 17 -2 26 -2c75 0 102 73 124 133h-59c-24 170 -49 339 -73 509h127l47 -433h2l180 433h125z" />
    <glyph glyph-name="z" unicode="z" horiz-adv-x="481" 
d="M483 509l-20 -102l-333 -314h274l-17 -93h-417l20 104l332 311h-250l18 94h393z" />
    <glyph glyph-name="braceleft" unicode="{" horiz-adv-x="377" 
d="M318 -145h-95c-17 0 -33 6 -47 15c-149 95 36 382 -140 382v92c33 0 79 6 79 48v214c0 59 44 127 110 127h93v-93c-45 0 -81 5 -81 -52v-198c0 -59 -39 -85 -94 -92v-2c68 -3 94 -45 94 -109v-189c0 -56 38 -51 81 -51v-92z" />
    <glyph glyph-name="bar" unicode="|" horiz-adv-x="270" 
d="M182 0h-93v727h93v-727z" />
    <glyph glyph-name="braceright" unicode="}" horiz-adv-x="377" 
d="M341 242c-59 0 -74 -5 -81 -62c1 -5 2 -10 2 -15v-179c0 -60 -45 -131 -111 -131h-92v92c41 0 80 -3 80 51v185c0 63 32 98 94 105v2c-66 7 -94 35 -94 102v194c0 60 -30 54 -80 54v93h90c67 0 113 -68 113 -129v-210c0 -49 37 -59 79 -59v-93z" />
    <glyph glyph-name="asciitilde" unicode="~" horiz-adv-x="566" 
d="M517 334c0 -62 -43 -152 -114 -152c-75 0 -179 92 -236 92c-29 0 -35 -40 -38 -62h-81c0 75 54 154 134 154c58 0 150 -94 214 -94c35 0 41 34 41 62h80z" />
    <glyph glyph-name="quotesinglbase" unicode="&#x201a;" horiz-adv-x="361" 
d="M193 131l-22 -117c-21 -111 -49 -137 -159 -137l11 57c41 0 63 28 70 66h-48l25 131h123z" />
    <glyph glyph-name="afii10100" unicode="&#x453;" 
d="M696 733l-34 -93c-148 0 -128 -47 -177 -169h115l-32 -92h-116l-171 -468c-44 -120 -128 -136 -234 -136h-63l34 92c35 0 101 -6 127 31c29 43 175 469 179 481h-87l32 92h87c64 159 70 262 270 262h70z" />
    <glyph glyph-name="quotedblbase" unicode="&#x201e;" horiz-adv-x="431" 
d="M337 131l-25 -131c-22 -116 -54 -116 -156 -123l11 59c46 0 63 20 71 64h-48l25 131h122zM151 131l-23 -119c-21 -109 -44 -135 -155 -135l11 59c44 0 60 23 68 64h-47l25 131h121z" />
    <glyph glyph-name="ellipsis" unicode="&#x2026;" horiz-adv-x="989" 
d="M844 133l-25 -133h-122l25 133h122zM522 133l-25 -133h-122l25 133h122zM198 133l-25 -133h-122l25 133h122z" />
    <glyph glyph-name="dagger" unicode="&#x2020;" 
d="M640 513l-20 -106h-187l-117 -627h-133l117 627h-185l20 106h185l40 214h133l-40 -214h187z" />
    <glyph glyph-name="daggerdbl" unicode="&#x2021;" 
d="M637 498l-19 -104h-187l-51 -269h187l-19 -106h-187l-45 -239h-133l45 239h-185l19 106h185l51 269h-185l19 104h185l43 229h133l-43 -229h187z" />
    <glyph glyph-name="Euro" unicode="&#x20ac;" horiz-adv-x="511" 
d="M485 616l-35 -50l-136 62l-161 -62l-15 50l193 103z" />
    <glyph glyph-name="perthousand" unicode="&#x2030;" horiz-adv-x="1274" 
d="M1226 233l-21 -108c-22 -115 -78 -131 -181 -131c-106 0 -158 11 -135 131l21 108c23 118 76 131 179 131c104 0 160 -12 137 -131zM850 235l-22 -116c-21 -110 -82 -125 -178 -125c-107 0 -158 10 -135 131l21 108c23 119 72 131 179 131c105 0 158 -10 135 -129z
M805 727l-597 -727h-91l595 727h93zM400 602l-20 -108c-22 -117 -78 -130 -182 -130s-157 8 -135 130l20 110c21 117 78 129 181 129c105 0 159 -9 136 -131zM1143 230c11 63 -7 60 -63 60h-25c-48 0 -55 -20 -63 -64l-17 -91c-12 -64 -1 -67 59 -67c69 0 81 5 94 79z
M766 219c12 68 2 71 -63 71h-25c-54 0 -52 -24 -62 -70c-6 -30 -13 -60 -19 -90c-11 -63 8 -62 63 -62c64 0 80 7 92 74zM314 585c13 70 7 76 -64 76c-22 0 -42 -1 -63 -11c-15 -15 -18 -38 -22 -57l-17 -90c-11 -60 0 -66 60 -66c72 0 80 9 93 79z" />
    <glyph glyph-name="guilsinglleft" unicode="&#x2039;" horiz-adv-x="334" 
d="M300 477l-145 -210l72 -205l-87 -48l-91 253l175 256z" />
    <glyph glyph-name="quoteleft" unicode="&#x2018;" horiz-adv-x="245" 
d="M266 733l-11 -57c-47 -2 -63 -21 -72 -66h50l-24 -131h-123l24 127c16 85 40 127 133 127h23z" />
    <glyph glyph-name="quoteright" unicode="&#x2019;" horiz-adv-x="245" 
d="M264 727l-23 -125c-15 -82 -42 -129 -134 -129c-7 0 -13 2 -20 2l11 57c45 0 60 23 68 64h-47l24 131h121z" />
    <glyph glyph-name="quotedblleft" unicode="&#x201c;" horiz-adv-x="431" 
d="M454 733l-11 -57c-45 0 -64 -21 -72 -64h50l-25 -131h-123l24 125c16 84 40 127 132 127h25zM266 733l-11 -57c-45 0 -61 -23 -69 -64h48l-25 -131h-121l24 125c16 84 34 127 129 127h25z" />
    <glyph glyph-name="quotedblright" unicode="&#x201d;" horiz-adv-x="431" 
d="M452 727l-25 -133c-15 -82 -44 -121 -132 -121c-8 0 -15 2 -23 2l11 57c45 0 63 21 71 64h-48l24 131h122zM264 727l-22 -121c-15 -84 -39 -133 -135 -133c-7 0 -13 2 -20 2l11 57c44 0 60 24 68 64h-47l24 131h121z" />
    <glyph glyph-name="bullet" unicode="&#x2022;" horiz-adv-x="504" 
d="M435 364c0 -99 -84 -182 -183 -182c-104 0 -182 86 -182 188c0 97 87 177 182 177c100 0 183 -83 183 -183z" />
    <glyph glyph-name="endash" unicode="&#x2013;" horiz-adv-x="505" 
d="M494 314l-17 -92h-485l17 92h485z" />
    <glyph glyph-name="emdash" unicode="&#x2014;" horiz-adv-x="989" 
d="M980 314l-17 -92h-971l17 92h971z" />
    <glyph glyph-name="trademark" unicode="&#x2122;" horiz-adv-x="989" 
d="M988 727l-73 -392h-86l59 317h-2l-172 -317h-51l-55 317h-2l-59 -317h-85l73 392h138l46 -231l130 231h139zM487 727l-14 -75h-119l-59 -317h-95l59 317h-119l14 75h333z" />
    <glyph glyph-name="guilsinglright" unicode="&#x203a;" horiz-adv-x="334" 
d="M265 267l-185 -253l-69 48l148 205l-64 210l92 46z" />
    <glyph glyph-name="nbspace" horiz-adv-x="341" 
 />
    <glyph glyph-name="afii10110" unicode="&#x45e;" 
d="M603 413h-123c9 59 4 81 -56 91l-63 -335c76 10 81 37 93 105h123l-3 -18c-24 -144 -98 -174 -231 -180l-15 -82h-69l15 82c-176 0 -181 99 -152 252c31 168 60 256 250 270l13 67h69l-13 -67c129 -4 184 -49 162 -185zM355 504c-86 -6 -102 -122 -114 -182
c-12 -65 -27 -141 51 -153z" />
    <glyph glyph-name="afii10057" unicode="&#x408;" 
d="M695 498h-133c20 106 11 122 -99 122c-95 0 -128 -21 -147 -120c-7 -39 -13 -79 -21 -119h195l-20 -107h-195c-12 -66 -15 -119 -82 -161l1 -2l435 6l-22 -117h-589l21 113c81 8 93 102 104 161h-94l20 107h94c50 263 48 352 342 352c189 0 226 -46 190 -235z" />
    <glyph glyph-name="currency" unicode="&#xa4;" horiz-adv-x="683" 
d="M587 521l-78 -78c18 -30 31 -62 31 -97c0 -27 -20 -84 -35 -106l77 -73l-67 -65l-76 76c-31 -20 -57 -31 -95 -31c-36 0 -72 9 -100 33l-77 -78l-66 65l75 77c-24 27 -31 64 -31 99c0 34 4 74 30 100l-76 74l66 67l75 -75c30 21 65 29 101 29c30 0 81 -8 104 -29l76 78z
M445 344c0 55 -50 101 -104 101c-56 0 -103 -49 -103 -104c0 -57 49 -101 105 -101c62 0 102 43 102 104z" />
    <glyph glyph-name="afii10050" unicode="&#x490;" 
d="M749 727l-159 -206h90l-20 -106h-149l-68 -83h201l-20 -107h-227l-42 -225h-133l42 225h-221l20 107h195l-33 83h-146l20 106h88l-81 206h153l108 -310h2l226 310h154z" />
    <glyph glyph-name="brokenbar" unicode="&#xa6;" horiz-adv-x="189" 
d="M182 426h-93v301h93v-301zM182 0h-93v312h93v-312z" />
    <glyph glyph-name="section" unicode="&#xa7;" 
d="M651 519h-125c13 109 -22 101 -120 101c-54 0 -129 6 -145 -65c4 -16 -4 -34 -2 -51c2 -20 53 -35 70 -39l218 -50c81 -19 101 -63 85 -148c-10 -55 -32 -128 -96 -150v-2c60 -21 50 -84 39 -141c-38 -201 -163 -199 -323 -199c-190 0 -278 12 -238 227h127
c-18 -121 21 -113 129 -113c78 0 153 -12 172 89c8 45 -16 70 -56 79l-229 51c-106 24 -126 51 -105 166c12 63 32 116 104 135c-39 26 -38 80 -29 127c40 216 167 197 338 197c174 0 220 -34 186 -214zM507 254c10 55 -20 63 -64 74c-51 12 -137 43 -190 43
c-55 0 -69 -56 -77 -98c-5 -28 4 -54 32 -61c74 -18 150 -33 222 -55c56 5 68 52 77 97z" />
    <glyph glyph-name="afii10023" unicode="&#x401;" horiz-adv-x="619" 
d="M551 852l-16 -86h-96l16 86h96zM353 852l-16 -86h-96l16 86h96zM629 727l-21 -115h-359l-36 -190h341l-19 -104h-341l-39 -204h362l-21 -114h-499l136 727h496z" />
    <glyph glyph-name="copyright" unicode="&#xa9;" horiz-adv-x="765" 
d="M753 360c0 -201 -173 -366 -372 -366c-203 0 -367 165 -367 368c0 205 161 371 367 371c208 0 372 -166 372 -373zM683 364c0 163 -136 301 -300 301c-158 0 -300 -133 -300 -294c0 -168 129 -306 298 -309c1 1 2 2 3 2c53 0 105 14 150 41c94 55 149 149 149 259z
M570 298c-9 -86 -87 -145 -171 -145c-121 0 -206 94 -206 213c0 121 79 216 204 216c89 0 158 -52 173 -141h-81c-11 47 -46 72 -93 72c-78 0 -120 -73 -120 -143c0 -69 45 -148 121 -148c46 0 88 27 92 76h81z" />
    <glyph glyph-name="guillemotleft" unicode="&#xab;" horiz-adv-x="533" 
d="M499 477l-145 -210l72 -205l-87 -48l-91 253l177 257zM302 477l-145 -210l72 -205l-89 -48l-91 253l177 257z" />
    <glyph glyph-name="logicalnot" unicode="&#xac;" horiz-adv-x="566" 
d="M519 117h-93v207h-377v93h470v-300z" />
    <glyph glyph-name="registered" unicode="&#xae;" horiz-adv-x="765" 
d="M753 364c0 -203 -165 -370 -369 -370c-210 0 -368 172 -368 379c0 201 169 362 368 362c208 0 369 -164 369 -371zM683 364c0 169 -130 301 -299 301c-168 0 -301 -135 -301 -303c0 -166 135 -298 301 -298s299 134 299 300zM580 444c0 -75 -36 -106 -109 -110l97 -171
h-91l-89 171h-80v-171h-77v399h194c85 0 155 -19 155 -118zM502 451c0 51 -50 53 -89 53h-105v-114h109c46 0 85 4 85 61z" />
    <glyph glyph-name="plusminus" unicode="&#xb1;" horiz-adv-x="566" 
d="M419 286h-189v-133h-93v133h-188v93h188v130h93v-130h189v-93zM419 0h-470v93h470v-93z" />
    <glyph glyph-name="afii10055" unicode="&#x406;" horiz-adv-x="431" 
d="M424 596c-35 -185 -156 -111 -252 -165c-21 -12 -23 -39 -27 -58h237l-14 -75h-330l15 83c33 184 218 97 262 165c11 16 15 44 18 62c8 42 -20 55 -58 55c-73 0 -79 -19 -92 -89h-93l3 20c18 123 84 139 194 139c106 0 159 -20 137 -137z" />
    <glyph glyph-name="afii10103" unicode="&#x456;" horiz-adv-x="431" 
d="M439 621c-10 -54 -37 -96 -96 -104v-2c70 -7 72 -56 60 -119c-20 -107 -146 -106 -224 -106c-124 0 -131 37 -116 151h93c-14 -74 -13 -74 60 -74c45 0 90 -7 101 52c14 75 -52 62 -108 62l14 75c61 0 108 -19 121 54c8 42 -15 47 -51 47h-42c-44 0 -55 -32 -62 -69h-93
c24 124 68 145 185 145c86 0 180 0 158 -112z" />
    <glyph glyph-name="afii10098" unicode="&#x491;" horiz-adv-x="380" 
d="M358 642l-204 -84l-18 50l193 113z" />
    <glyph glyph-name="mu" unicode="&#xb5;" horiz-adv-x="576" 
d="M515 0h-118v78h-3c-23 -64 -95 -84 -157 -84c-18 0 -36 2 -54 4v-218h-122v729h122v-336c0 -71 25 -86 91 -86c87 0 120 40 120 125v297h121v-509z" />
    <glyph glyph-name="mu" unicode="&#x3bc;" horiz-adv-x="576" 
d="M515 0h-118v78h-3c-23 -64 -95 -84 -157 -84c-18 0 -36 2 -54 4v-218h-122v729h122v-336c0 -71 25 -86 91 -86c87 0 120 40 120 125v297h121v-509z" />
    <glyph glyph-name="paragraph" unicode="&#xb6;" horiz-adv-x="683" 
d="M672 -220h-106v834h-83v-834h-106v453c-220 0 -379 -32 -379 238c0 204 65 256 264 256h410v-947zM377 346v268h-127c-121 0 -121 -43 -121 -153c0 -87 27 -115 113 -115h135z" />
    <glyph glyph-name="periodcentered" unicode="&#xb7;" horiz-adv-x="683" 
d="M402 307h-121v133h121v-133z" />
    <glyph glyph-name="periodcentered" unicode="&#x2219;" horiz-adv-x="683" 
d="M402 307h-121v133h121v-133z" />
    <glyph glyph-name="afii10071" unicode="&#x451;" horiz-adv-x="572" 
d="M500 643l-16 -86h-96l16 86h96zM301 643l-16 -86h-96l16 86h96zM503 234h-346c-19 -99 -30 -154 82 -154c70 0 115 4 130 83h121l-4 -20c-28 -142 -148 -151 -261 -151c-196 0 -221 71 -186 261c34 181 92 264 282 264c209 0 217 -98 182 -283zM398 308
c17 90 -1 121 -93 121c-90 0 -117 -34 -133 -121h226z" />
    <glyph glyph-name="afii61352" unicode="&#x2116;" horiz-adv-x="1237" 
d="M1188 559c-20 -106 -51 -145 -161 -145c-141 0 -151 38 -126 171c22 117 58 145 174 145c136 0 136 -46 113 -171zM1184 356l-11 -57h-361l11 57h361zM824 727l-136 -727h-232l-189 608h-4l-114 -608h-138l136 727h232l189 -608h4l114 608h138zM1116 593
c8 48 11 77 -45 77h-16c-60 0 -67 -35 -76 -85l-6 -32c-9 -49 -17 -80 40 -80h14c61 0 73 25 82 79z" />
    <glyph glyph-name="afii10101" unicode="&#x454;" horiz-adv-x="446" 
d="M422 576c-22 -117 -55 -157 -177 -157c-137 0 -143 39 -119 168c22 116 60 148 178 148c125 0 141 -37 118 -159zM340 588c10 55 15 84 -48 84c-69 0 -73 -34 -84 -92c-12 -64 -28 -99 48 -99c51 0 70 29 78 74z" />
    <glyph glyph-name="guillemotright" unicode="&#xbb;" horiz-adv-x="533" 
d="M464 267l-185 -253l-69 48l148 205l-64 210l91 46zM265 267l-185 -253l-69 48l148 205l-64 210l92 46z" />
    <glyph glyph-name="afii10017" unicode="&#x410;" horiz-adv-x="746" 
d="M660 0h-142l-21 140h-315l-71 -140h-145l378 727h205zM486 243l-57 377l-195 -377h252z" />
    <glyph glyph-name="afii10018" unicode="&#x411;" 
d="M665 727l-21 -115h-379l-32 -168h240c137 0 188 -87 163 -219c-25 -135 -103 -225 -246 -225h-379l136 727h518zM496 220c15 83 -10 108 -91 108h-193l-40 -213h192c80 0 116 21 132 105z" />
    <glyph glyph-name="afii10019" unicode="&#x412;" horiz-adv-x="713" 
d="M691 544c-15 -82 -41 -147 -135 -167l-1 -4c94 -14 106 -75 89 -164c-28 -150 -94 -209 -246 -209h-385l136 727h373c134 0 196 -40 169 -183zM547 524c13 68 -5 88 -72 88h-208l-36 -189h176c83 0 123 9 140 101zM507 219c16 86 -15 100 -94 100h-201l-38 -204h176
c85 0 138 4 157 104z" />
    <glyph glyph-name="afii10020" unicode="&#x413;" horiz-adv-x="592" 
d="M628 727l-22 -121h-336l-114 -606h-141l136 727h477z" />
    <glyph glyph-name="afii10021" unicode="&#x414;" horiz-adv-x="754" 
d="M746 727l-116 -618h49l-42 -228h-140l21 113c1 3 3 6 -2 6h-409c-7 0 -6 -7 -7 -12l-20 -107h-139l42 228h30c66 0 101 159 109 203l77 415h547zM585 607h-275l-62 -328c-12 -66 -27 -110 -67 -170h310z" />
    <glyph glyph-name="afii10022" unicode="&#x415;" horiz-adv-x="619" 
d="M629 727l-21 -115h-359l-36 -190h341l-19 -104h-341l-39 -204h362l-21 -114h-499l136 727h496z" />
    <glyph glyph-name="afii10024" unicode="&#x416;" horiz-adv-x="1062" 
d="M1094 727l-327 -353l216 -374h-155l-179 313h-50l-59 -313h-139l59 313h-53l-293 -313h-157l359 374l-196 353h151l158 -296h53l55 296h139l-55 -296h50l269 296h154z" />
    <glyph glyph-name="afii10025" unicode="&#x417;" horiz-adv-x="653" 
d="M646 543c-16 -86 -40 -141 -135 -166l-1 -4c89 -23 109 -71 91 -165c-39 -207 -161 -218 -343 -218c-202 0 -299 12 -255 242h131c-26 -133 25 -127 146 -127c87 0 168 -6 188 103c16 83 -27 102 -102 102h-183l22 117h159c70 0 130 12 145 94c19 99 -50 101 -132 101
c-96 0 -161 8 -184 -108h-134l6 27c44 200 171 189 332 189c148 0 283 -4 249 -187z" />
    <glyph glyph-name="afii10026" unicode="&#x418;" horiz-adv-x="821" 
d="M829 727l-136 -727h-138l114 608h-5l-416 -608h-233l136 727h138l-114 -608h4l417 608h233z" />
    <glyph glyph-name="afii10027" unicode="&#x419;" horiz-adv-x="821" 
d="M732 876c-21 -116 -148 -131 -238 -131c-92 0 -199 15 -177 131h106c-11 -54 48 -49 87 -49c40 0 100 -6 109 49h113zM842 727l-136 -727h-136l114 608h-5l-417 -608h-233l136 727h138l-114 -608h4l417 608h232z" />
    <glyph glyph-name="afii10028" unicode="&#x41a;" horiz-adv-x="748" 
d="M768 727l-361 -354l255 -373h-177l-207 312h-66l-59 -312h-140l136 727h140l-55 -297h66l296 297h172z" />
    <glyph glyph-name="afii10029" unicode="&#x41b;" horiz-adv-x="753" 
d="M754 727l-136 -727h-140l114 608h-275l-82 -438c-31 -168 -125 -170 -264 -170l20 104c44 0 94 -6 105 54l106 569h552z" />
    <glyph glyph-name="afii10030" unicode="&#x41c;" horiz-adv-x="995" 
d="M1004 727l-136 -727h-138l115 613l-343 -613h-125l-114 608l-114 -608h-138l136 727h228l95 -540h5l294 540h235z" />
    <glyph glyph-name="afii10031" unicode="&#x41d;" horiz-adv-x="766" 
d="M768 727l-136 -727h-140l58 310h-339l-58 -310h-140l136 727h140l-56 -298h339l56 298h140z" />
    <glyph glyph-name="afii10032" unicode="&#x41e;" horiz-adv-x="713" 
d="M694 475l-44 -235c-43 -229 -184 -246 -375 -246c-208 0 -280 49 -238 268l38 199c46 241 133 272 357 272c204 0 305 -29 262 -258zM555 481c24 126 -34 133 -144 133c-119 0 -172 -13 -197 -145l-37 -195c-27 -141 -2 -163 137 -163c121 0 175 19 200 151z" />
    <glyph glyph-name="afii10033" unicode="&#x41f;" horiz-adv-x="766" 
d="M768 727l-136 -727h-140l114 608h-339l-114 -608h-140l136 727h619z" />
    <glyph glyph-name="afii10034" unicode="&#x420;" horiz-adv-x="693" 
d="M683 489c-39 -205 -105 -251 -306 -251h-182l-45 -238h-140l136 727h309c181 0 265 -40 228 -238zM538 476c20 106 7 133 -103 133h-171l-47 -253h171c101 0 130 14 150 120z" />
    <glyph glyph-name="afii10035" unicode="&#x421;" horiz-adv-x="695" 
d="M690 483h-137c19 132 -14 129 -141 129c-31 0 -76 2 -108 -12c-69 -29 -86 -181 -97 -237l-3 -16c-30 -162 -57 -235 114 -235c145 0 171 9 197 149h136l-11 -60c-36 -196 -180 -208 -344 -208c-301 0 -281 111 -230 387c48 255 94 351 368 351c220 0 283 -25 256 -248z
" />
    <glyph glyph-name="afii10036" unicode="&#x422;" horiz-adv-x="635" 
d="M675 727l-22 -121h-214l-114 -606h-140l114 606h-212l22 121h566z" />
    <glyph glyph-name="afii10037" unicode="&#x423;" horiz-adv-x="699" 
d="M749 727l-342 -569c-49 -82 -94 -158 -195 -158h-102l21 114c15 0 110 -8 115 19c2 11 -143 548 -156 594h157l88 -385c6 -26 4 -55 5 -82c12 27 20 56 35 82l225 385h149z" />
    <glyph glyph-name="afii10038" unicode="&#x424;" horiz-adv-x="1031" 
d="M986 388c-53 -285 -206 -288 -440 -288l-19 -100h-140l19 100c-220 0 -386 0 -335 274c37 195 145 304 345 304h98l10 50h140l-10 -50c235 0 385 -6 332 -290zM851 388c20 107 20 171 -102 171h-117l-64 -341h104c128 0 157 53 179 170zM492 559h-115
c-122 0 -149 -63 -169 -171c-22 -118 -9 -170 118 -170h102z" />
    <glyph glyph-name="afii10039" unicode="&#x425;" horiz-adv-x="692" 
d="M740 727l-282 -352l162 -375h-161l-125 306l-241 -306h-164l308 375l-155 352h162l115 -289l221 289h160z" />
    <glyph glyph-name="afii10040" unicode="&#x426;" horiz-adv-x="784" 
d="M768 727l-114 -608h65l-46 -249h-126l24 130h-558l136 727h140l-114 -608h339l114 608h140z" />
    <glyph glyph-name="afii10041" unicode="&#x427;" horiz-adv-x="758" 
d="M753 727l-136 -727h-140l54 286c-70 -32 -140 -39 -211 -39c-179 0 -261 3 -224 204l51 276h140l-50 -268c-16 -87 18 -93 98 -93c69 0 150 -7 217 35l61 326h140z" />
    <glyph glyph-name="afii10042" unicode="&#x428;" horiz-adv-x="1152" 
d="M1161 727l-136 -727h-1027l136 727h139l-114 -608h305l114 608h139l-114 -608h305l114 608h139z" />
    <glyph glyph-name="afii10043" unicode="&#x429;" horiz-adv-x="1185" 
d="M1166 727l-114 -608h66l-46 -249h-127l24 130h-966l136 727h140l-114 -608h304l114 608h140l-114 -608h303l114 608h140z" />
    <glyph glyph-name="afii10044" unicode="&#x42a;" horiz-adv-x="779" 
d="M713 227c-27 -145 -97 -227 -249 -227h-374l115 612h-132l21 115h271l-53 -283h231c137 0 196 -82 170 -217zM572 219c16 85 -10 109 -92 109h-189l-40 -213h174c82 0 130 11 147 104z" />
    <glyph glyph-name="afii10045" unicode="&#x42b;" horiz-adv-x="992" 
d="M991 727l-136 -727h-140l136 727h140zM636 227c-27 -145 -98 -227 -250 -227h-374l136 727h140l-53 -283h230c137 0 197 -82 171 -217zM494 219c16 83 -9 109 -90 109h-190l-40 -213h173c82 0 130 11 147 104z" />
    <glyph glyph-name="afii10046" unicode="&#x42c;" horiz-adv-x="713" 
d="M648 227c-27 -145 -98 -227 -250 -227h-374l136 727h139l-53 -283h232c137 0 196 -82 170 -217zM507 219c16 84 -10 109 -92 109h-190l-40 -213h174c82 0 131 11 148 104z" />
    <glyph glyph-name="afii10047" unicode="&#x42d;" horiz-adv-x="713" 
d="M668 380c-52 -276 -74 -387 -375 -387c-164 0 -302 12 -266 208l11 60h136c-26 -140 -4 -149 141 -149c159 0 164 51 196 198h-280l22 119h280c22 140 28 183 -124 183c-127 0 -159 3 -190 -129h-135c54 223 128 248 347 248c275 0 285 -96 237 -351z" />
    <glyph glyph-name="afii10048" unicode="&#x42e;" horiz-adv-x="1031" 
d="M983 378c-51 -271 -90 -385 -384 -385c-264 0 -289 59 -252 317h-158l-58 -310h-139l136 727h139l-56 -298h158c58 238 122 306 369 306c275 0 293 -99 245 -357zM837 363c12 61 49 207 -14 239c-28 15 -73 14 -107 14s-77 1 -111 -12c-79 -30 -94 -178 -106 -241
c-11 -60 -51 -206 11 -237c29 -15 77 -14 111 -14s82 -1 116 14c73 31 89 177 100 237z" />
    <glyph glyph-name="afii10049" unicode="&#x42f;" horiz-adv-x="719" 
d="M732 727l-136 -727h-138l46 243h-196c-67 0 -115 -22 -128 -95l-27 -148h-141l30 159c16 83 61 136 149 141l1 4c-117 24 -116 86 -95 198c33 173 112 225 279 225h356zM572 607h-205c-102 0 -116 -47 -132 -135c-16 -84 12 -112 95 -112h196z" />
    <glyph glyph-name="afii10065" unicode="&#x430;" horiz-adv-x="591" 
d="M525 335l-63 -335h-117l17 63h-3c-51 -66 -111 -71 -181 -71c-109 0 -179 30 -156 153c29 151 124 163 252 163c63 0 95 -5 114 -61l17 88c17 86 -10 103 -92 103c-59 0 -99 -7 -110 -75h-122c27 144 123 154 241 154c140 0 234 -17 203 -182zM371 154
c14 75 -47 75 -107 75c-57 0 -104 -1 -117 -70c-14 -76 21 -81 87 -81c55 0 123 3 137 76z" />
    <glyph glyph-name="afii10066" unicode="&#x431;" horiz-adv-x="596" 
d="M599 710c-7 -32 -9 -59 -32 -88c-44 -53 -157 -42 -211 -42c-110 0 -128 -24 -147 -126h8c32 38 73 63 119 63c206 0 230 -63 193 -261c-37 -196 -86 -264 -292 -264c-205 0 -227 69 -190 264l43 228c3 18 14 41 21 58c44 102 108 118 205 118h40c24 0 110 7 109 50h134z
M404 256c21 111 39 167 -86 167c-126 0 -125 -54 -146 -167c-21 -111 -43 -170 83 -170s128 60 149 170z" />
    <glyph glyph-name="afii10067" unicode="&#x432;" horiz-adv-x="528" 
d="M481 369c-11 -57 -51 -97 -109 -109c60 -20 92 -48 78 -120c-22 -117 -90 -140 -196 -140h-265l96 509h256c99 0 160 -31 140 -140zM358 358c10 52 -8 63 -57 63h-114l-23 -123h99c49 0 84 1 95 60zM332 154c9 47 2 68 -48 68h-134l-25 -134h120c52 0 76 9 87 66z" />
    <glyph glyph-name="afii10068" unicode="&#x433;" horiz-adv-x="416" 
d="M434 509l-17 -90h-215l-79 -419h-122l96 509h337z" />
    <glyph glyph-name="afii10069" unicode="&#x434;" horiz-adv-x="579" 
d="M549 509l-80 -423h48l-39 -209h-116l23 123h-303l-23 -123h-116l39 209h30c86 81 117 324 137 423h400zM412 419h-165c-17 -81 -46 -267 -113 -333h215z" />
    <glyph glyph-name="afii10070" unicode="&#x435;" horiz-adv-x="572" 
d="M503 234h-346c-19 -99 -30 -154 82 -154c70 0 115 4 130 83h121l-4 -20c-28 -142 -148 -151 -261 -151c-196 0 -221 71 -186 261c34 181 92 264 282 264c209 0 217 -98 182 -283zM398 308c17 90 -1 121 -93 121c-90 0 -117 -34 -133 -121h226z" />
    <glyph glyph-name="afii10072" unicode="&#x436;" horiz-adv-x="753" 
d="M736 509l-192 -239l127 -270h-140l-93 227h-20l-43 -227h-121l43 227h-20l-179 -227h-140l229 270l-102 239h134l73 -200h20l38 200h121l-38 -200h20l150 200h133z" />
    <glyph glyph-name="afii10073" unicode="&#x437;" horiz-adv-x="544" 
d="M504 368c-11 -58 -58 -85 -111 -98c69 -15 91 -50 77 -123c-26 -139 -141 -155 -255 -155c-136 0 -239 5 -208 169h123c-17 -89 37 -81 107 -81c62 0 99 5 112 74c20 108 -95 81 -173 81l14 74c47 0 179 -20 194 57c11 60 -14 63 -68 63h-52c-42 0 -77 -11 -86 -60h-116
c1 8 2 15 4 23c23 125 156 126 248 126c114 0 217 -9 190 -150z" />
    <glyph glyph-name="afii10074" unicode="&#x438;" horiz-adv-x="576" 
d="M562 509l-96 -509h-119l73 390l-269 -390h-158l96 509h118l-73 -389l268 389h160z" />
    <glyph glyph-name="afii10075" unicode="&#x439;" horiz-adv-x="576" 
d="M490 641c-16 -87 -97 -96 -166 -96c-70 0 -133 10 -117 96h76c-6 -32 29 -36 54 -36s63 2 69 36h84zM562 509l-96 -509h-119l73 390l-269 -390h-158l96 509h118l-73 -389l268 389h160z" />
    <glyph glyph-name="afii10076" unicode="&#x43a;" horiz-adv-x="543" 
d="M538 509l-227 -239l166 -270h-147l-127 227h-29l-43 -227h-121l96 509h121l-38 -199h29l181 199h139z" />
    <glyph glyph-name="afii10077" unicode="&#x43b;" horiz-adv-x="547" 
d="M530 509l-96 -509h-121l79 419h-178l-50 -263c-17 -89 -67 -162 -165 -162c-22 0 -45 2 -65 6l16 84c67 0 84 6 97 74l66 351h417z" />
    <glyph glyph-name="afii10078" unicode="&#x43c;" horiz-adv-x="784" 
d="M746 509l-96 -509h-119l82 439c-5 -13 -11 -29 -18 -42l-217 -397h-98l-71 397c-2 13 -1 29 -2 42l-82 -439h-119l96 509h183l68 -387l210 387h183z" />
    <glyph glyph-name="afii10079" unicode="&#x43d;" horiz-adv-x="547" 
d="M538 509l-96 -509h-122l41 221h-214l-41 -221h-121l96 509h121l-37 -197h214l37 197h122z" />
    <glyph glyph-name="afii10080" unicode="&#x43e;" horiz-adv-x="596" 
d="M529 256c-37 -196 -86 -264 -292 -264c-205 0 -227 69 -190 264s85 261 289 261c206 0 230 -63 193 -261zM404 256c21 111 39 167 -86 167c-126 0 -125 -54 -146 -167c-21 -111 -43 -170 83 -170s128 60 149 170z" />
    <glyph glyph-name="afii10081" unicode="&#x43f;" horiz-adv-x="547" 
d="M538 509l-96 -509h-122l79 419h-214l-79 -419h-121l96 509h457z" />
    <glyph glyph-name="afii10082" unicode="&#x440;" horiz-adv-x="595" 
d="M530 258c-28 -147 -65 -266 -244 -266c-71 0 -120 12 -145 78l-53 -284h-120l136 723h117l-20 -72h5c50 61 102 80 172 80c184 0 181 -102 152 -259zM407 265c19 98 32 157 -80 157c-111 0 -130 -52 -149 -153c-19 -102 -40 -182 84 -182c118 0 128 86 145 178z" />
    <glyph glyph-name="afii10083" unicode="&#x441;" horiz-adv-x="575" 
d="M521 349c-1 -6 -2 -13 -7 -18h-112c-16 25 45 92 -91 92c-119 0 -121 -66 -140 -169c-20 -105 -43 -168 77 -168c91 0 115 18 130 107h118c-31 -166 -110 -201 -266 -201c-200 0 -220 70 -184 262c36 191 84 263 283 263c121 0 220 -24 192 -168z" />
    <glyph glyph-name="afii10084" unicode="&#x442;" horiz-adv-x="506" 
d="M510 509l-17 -90h-163l-79 -419h-121l79 419h-164l17 90h448z" />
    <glyph glyph-name="afii10085" unicode="&#x443;" horiz-adv-x="527" 
d="M540 509l-236 -541c-50 -115 -95 -195 -231 -195c-17 0 -34 0 -50 4l17 88c8 -3 17 -4 27 -4c74 0 104 82 123 139h-58l-71 509h126l47 -432l181 432h125z" />
    <glyph glyph-name="afii10086" unicode="&#x444;" horiz-adv-x="857" 
d="M796 262c-25 -136 -67 -273 -234 -273c-67 0 -103 13 -123 75l-53 -281h-120l53 281c-43 -62 -85 -75 -151 -75c-168 0 -158 136 -132 273c28 149 69 249 237 249c56 0 100 -19 117 -71l53 285h120l-53 -285c36 52 87 71 143 71c168 0 171 -100 143 -249zM673 251
c17 88 42 167 -67 167c-111 0 -115 -75 -132 -167c-16 -88 -43 -169 67 -169c111 0 116 81 132 169zM354 251c17 92 42 167 -70 167c-108 0 -112 -79 -129 -167c-16 -88 -42 -169 68 -169c111 0 115 81 131 169z" />
    <glyph glyph-name="afii10087" unicode="&#x445;" horiz-adv-x="540" 
d="M539 509l-195 -242l115 -267h-143l-68 186l-137 -186h-145l217 267l-102 242h140l57 -164l119 164h142z" />
    <glyph glyph-name="afii10088" unicode="&#x446;" horiz-adv-x="560" 
d="M538 509l-80 -423h46l-39 -209h-115l23 123h-388l96 509h121l-80 -423h214l80 423h122z" />
    <glyph glyph-name="afii10089" unicode="&#x447;" horiz-adv-x="548" 
d="M528 509l-96 -509h-121l41 218c-50 -52 -99 -69 -164 -69c-112 0 -170 39 -148 158l38 202h120l-35 -186c-11 -59 22 -78 76 -78c38 0 120 18 131 69c13 65 24 130 37 195h121z" />
    <glyph glyph-name="afii10090" unicode="&#x448;" horiz-adv-x="915" 
d="M874 509l-96 -509h-768l96 509h121l-80 -423h203l80 423h121l-80 -423h203l80 423h120z" />
    <glyph glyph-name="afii10091" unicode="&#x449;" horiz-adv-x="920" 
d="M874 509l-80 -423h47l-39 -209h-115l23 123h-700l96 509h121l-80 -423h203l80 423h121l-80 -423h203l80 423h120z" />
    <glyph glyph-name="afii10092" unicode="&#x44a;" horiz-adv-x="608" 
d="M519 157c-18 -99 -88 -157 -187 -157h-270l79 422h-104l17 87h226l-37 -194c137 0 312 33 276 -158zM397 157c9 51 -11 70 -60 70h-110l-26 -139h110c50 0 76 17 86 69z" />
    <glyph glyph-name="afii10093" unicode="&#x44b;" horiz-adv-x="763" 
d="M741 509l-96 -509h-120l96 509h120zM460 157c-18 -99 -88 -157 -187 -157h-270l96 509h122l-37 -194c137 0 312 33 276 -158zM338 157c9 50 -11 70 -59 70h-111l-26 -139h111c49 0 75 18 85 69z" />
    <glyph glyph-name="afii10094" unicode="&#x44c;" horiz-adv-x="540" 
d="M460 157c-18 -99 -88 -157 -187 -157h-270l96 509h122l-37 -194c137 0 312 33 276 -158zM338 157c9 50 -11 70 -59 70h-111l-26 -139h111c49 0 75 18 85 69z" />
    <glyph glyph-name="afii10095" unicode="&#x44d;" horiz-adv-x="575" 
d="M509 274c-35 -190 -76 -282 -286 -282c-154 0 -220 36 -189 201h119l-2 -9c-19 -83 8 -98 90 -98c112 0 116 53 139 149h-156l14 74h156c9 89 7 114 -90 114c-134 0 -97 -65 -124 -92h-113c-2 5 -1 12 0 18c27 144 135 168 255 168c185 0 221 -62 187 -243z" />
    <glyph glyph-name="afii10096" unicode="&#x44e;" horiz-adv-x="810" 
d="M752 256c-37 -196 -86 -264 -292 -264c-194 0 -221 59 -194 242h-100l-44 -235h-122l95 509h122l-37 -200h100c43 169 111 209 279 209c206 0 230 -63 193 -261zM628 256c21 112 39 167 -87 167s-125 -55 -146 -167c-21 -110 -43 -170 83 -170c127 0 129 59 150 170z" />
    <glyph glyph-name="afii10097" unicode="&#x44f;" horiz-adv-x="544" 
d="M518 509l-96 -508h-116l32 172h-148c-19 0 -35 -13 -39 -32l-26 -141h-117l26 141c6 33 29 66 58 88c-31 27 -28 71 -20 113c27 145 102 167 236 167h210zM384 416h-117c-47 0 -80 -29 -89 -76c-9 -49 6 -87 58 -87h117z" />
    <glyph glyph-name="tilde" unicode="&#x2dc;" horiz-adv-x="541" 
d="M521 650c-31 -41 -76 -84 -128 -84c-60 0 -98 54 -140 54c-28 0 -43 -20 -60 -42l-56 34c33 43 72 83 126 83c55 0 84 -55 141 -55c24 0 47 25 62 43z" />
    </font>
</defs>
</svg>
