<?xml version="1.0" encoding="utf-8"?><svg width="272" height="203" viewBox="0 0 272 203" xmlns="http://www.w3.org/2000/svg" xmlns:xlink="http://www.w3.org/1999/xlink"><view id="iconCart" viewBox="100 150.81 47 47"/><svg width="47" height="47" fill="none" viewBox="-10 -10 47 47" x="100" y="150.81" xmlns="http://www.w3.org/2000/svg"><path d="M26.988 24.779l-1.729-18a2.018 2.018 0 00-.635-1.27A1.913 1.913 0 0023.326 5h-4.074a6.04 6.04 0 00-1.986-3.582A5.738 5.738 0 0013.5 0a5.738 5.738 0 00-3.766 1.417A6.04 6.04 0 007.748 5H3.674c-.48 0-.941.18-1.298.51-.357.327-.583.78-.635 1.269l-1.73 18c-.03.28-.002.563.082.83.083.268.22.515.403.725.182.21.405.377.655.492.25.115.52.174.794.174h23.11a1.9 1.9 0 00.794-.174c.25-.115.473-.283.655-.492.183-.21.32-.457.403-.724.084-.268.111-.551.081-.831zM13.5 1.999c.862.002 1.7.297 2.381.84a4.017 4.017 0 011.386 2.16H9.733a4.017 4.017 0 011.386-2.16 3.829 3.829 0 012.381-.84zM1.945 25L3.674 7h3.991v3c0 .265.103.52.285.707.183.188.43.293.688.293a.959.959 0 00.687-.293c.183-.188.285-.442.285-.707V7h7.78v3c0 .265.102.52.284.707.183.188.43.293.688.293a.959.959 0 00.688-.293c.182-.188.285-.442.285-.707V7h3.991l1.73 18H1.944z" fill="#fff"/></svg><view id="iconChat" viewBox="0 0 52 52"/><svg width="52" height="52" fill="none" viewBox="-10 -10 52 52" xmlns="http://www.w3.org/2000/svg"><path fill-rule="evenodd" clip-rule="evenodd" d="M29.333 14.383c0 6.471-5.67 11.717-12.666 11.717-1.243 0-2.444-.166-3.579-.474-2.665 1.759-6.038 2.214-7.608 2.333-.286.021-.429-.351-.229-.556.793-.814 2.079-2.435 2.49-4.706C5.431 20.575 4 17.633 4 14.383 4 7.913 9.671 2.667 16.667 2.667c6.995 0 12.666 5.245 12.666 11.716z" fill="url(#bpaint0_linear)"/><path fill="#fff" d="M6 11h20v8H6z"/><path d="M16 2C8.28 2 2 7.737 2 14.79c0 .153.003.305.009.458.173 4.467 3.266 9.76.128 12.943a.479.479 0 00-.088.547.466.466 0 00.483.257 26.06 26.06 0 002.294-.46c3.587-.874 7.482-.956 11.174-.956 7.72 0 14-5.737 14-12.79C30 7.738 23.72 2 16 2zM9.467 16.684c-1.03 0-1.867-.85-1.867-1.895 0-1.044.837-1.894 1.867-1.894s1.866.85 1.866 1.895c0 1.044-.837 1.894-1.866 1.894zm6.533 0c-1.03 0-1.867-.85-1.867-1.895 0-1.044.838-1.894 1.867-1.894 1.03 0 1.867.85 1.867 1.895 0 1.044-.838 1.894-1.867 1.894zm6.533 0c-1.03 0-1.866-.85-1.866-1.895 0-1.044.837-1.894 1.866-1.894 1.03 0 1.867.85 1.867 1.895 0 1.044-.837 1.894-1.867 1.894z" fill="url(#bpaint1_linear)"/><defs><linearGradient id="bpaint0_linear" x1="35.451" y1="27.96" x2="-16.008" y2="27.96" gradientUnits="userSpaceOnUse"><stop stop-color="#FF5823"/><stop offset="1" stop-color="#FF36C7"/></linearGradient><linearGradient id="bpaint1_linear" x1="1.5" y1="28.5" x2="26.5" y2="-1" gradientUnits="userSpaceOnUse"><stop stop-color="#710FD1"/><stop offset="1" stop-color="#FF3839"/></linearGradient></defs></svg><view id="iconChatGray" viewBox="52 0 52 52"/><svg width="52" height="52" fill="none" viewBox="-10.31 -10.31 53.63 53.63" x="52" xmlns="http://www.w3.org/2000/svg"><path d="M17.742 12.854c-.62 0-1.062.262-1.062.648v5.258c0 .33.441.662 1.062.662.594 0 1.077-.331 1.077-.662v-5.258c0-.386-.483-.649-1.077-.649zM17.742 9.61c-.634 0-1.131.456-1.131.98s.497.994 1.131.994c.621 0 1.118-.47 1.118-.994s-.497-.98-1.118-.98z" fill="#BCBCBC"/><path d="M25.319 7.63c-4.18-4.217-10.973-4.25-15.188-.073-3.441 3.411-4.053 8.509-1.996 12.526l-.838 4.27A.977.977 0 008.435 25.5l4.277-.8c4 2.094 9.103 1.525 12.543-1.884 4.217-4.18 4.24-10.973.064-15.187zM13.358 22.828a.977.977 0 00-.663-.11l-3.204.598.628-3.198a.976.976 0 00-.106-.664c-1.85-3.32-1.396-7.646 1.493-10.51 3.44-3.408 9.014-3.381 12.425.06 3.412 3.443 3.389 9.017-.051 12.426-2.892 2.866-7.222 3.276-10.522 1.398z" fill="#BCBCBC"/></svg><view id="iconEmailGray" viewBox="50 150.81 50 50"/><svg width="50" height="50" fill="none" viewBox="-10 -10 50 50" x="50" y="150.81" xmlns="http://www.w3.org/2000/svg"><path d="M26.484 3.984H3.516A3.52 3.52 0 000 7.5v15a3.52 3.52 0 003.516 3.516h22.968A3.52 3.52 0 0030 22.5v-15a3.52 3.52 0 00-3.516-3.516zM27.656 22.5c0 .646-.525 1.172-1.172 1.172H3.516A1.173 1.173 0 012.344 22.5v-15c0-.646.525-1.172 1.172-1.172h22.968c.646 0 1.172.526 1.172 1.172v15z" fill="#414141"/><path d="M27.457 5.446L15 14.71 2.543 5.446l-1.4 1.88L15 17.632 28.856 7.326l-1.399-1.88z" fill="#414141"/></svg><view id="iconEmalPurple" viewBox="0 52 52 46.81"/><svg width="52" height="46.81" fill="none" viewBox="-11.56 -11.56 60.13 54.13" y="52" xmlns="http://www.w3.org/2000/svg"><path d="M5.466 0h26.068a5.466 5.466 0 015.458 5.156l.008.31v19.34a5.466 5.466 0 01-5.157 5.458l-.309.009H5.466a5.466 5.466 0 01-5.458-5.157L0 24.806V5.467A5.466 5.466 0 015.156.008L5.466 0h26.068H5.466zm29.011 9.931l-15.395 8.006a1.261 1.261 0 01-.976.079l-.188-.08L2.523 9.932v14.876a2.943 2.943 0 002.7 2.933l.243.01h26.068a2.943 2.943 0 002.933-2.703l.01-.24V9.93zm-2.943-7.408H5.466a2.943 2.943 0 00-2.933 2.7l-.01.243v1.621L18.5 15.395l15.977-8.308V5.466a2.943 2.943 0 00-2.702-2.933l-.24-.01z" fill="url(#epaint0_linear)" fill-opacity=".9"/><defs><linearGradient id="epaint0_linear" x1="0" y1="15.136" x2="37" y2="15.136" gradientUnits="userSpaceOnUse"><stop stop-color="#710FD1"/><stop offset="1" stop-color="#FF3839"/></linearGradient></defs></svg><view id="iconFacebookGray" viewBox="234 38 30 37"/><svg width="30" height="37" fill="none" viewBox="-10 -10 30 37" x="234" y="38" xmlns="http://www.w3.org/2000/svg"><path d="M6.496 16.927V9.243H9.15l.395-3.008h-3.05V4.319c0-.869.248-1.463 1.524-1.463h1.617V.174a21.957 21.957 0 00-2.368-.12c-2.347 0-3.958 1.4-3.958 3.967V6.23H.673v3.009h2.643v7.69h3.18z" fill="#B2B2B2"/></svg><view id="iconFacebookWhite" viewBox="203 0 31 39"/><svg width="31" height="39" fill="none" viewBox="-10 -10 31 39" x="203" xmlns="http://www.w3.org/2000/svg"><path d="M7.16 18.41v-8.32h2.875l.427-3.257H7.161V4.758c0-.94.268-1.583 1.65-1.583h1.75V.27A23.774 23.774 0 007.997.14c-2.54 0-4.285 1.515-4.285 4.296v2.39H.856v3.257h2.862v8.326h3.443z" fill="#fff"/></svg><view id="iconFreeShipping" viewBox="52 52 52 44.8"/><svg width="52" height="44.8" fill="none" viewBox="-12.5 -12.5 65 56" x="52" y="52" xmlns="http://www.w3.org/2000/svg"><rect x="7.666" y="1.5" width="30.405" height="24.595" rx="2.5" stroke="#414141" stroke-width="3"/><rect x="17.832" y="1.5" width="10.071" height="3.81" rx="1.905" stroke="#414141" stroke-width="3"/><circle cx="11.619" cy="19.119" r="10.119" fill="#111" stroke="#414141" stroke-width="3"/><path d="M6.713 17.605h7.262c1.604 0 2.904 1.3 2.904 2.905v0c0 1.604-1.3 2.905-2.904 2.905h-3.55" stroke="#414141" stroke-width="3"/><rect x="4.811" y="17.602" width="4.998" height="2.168" rx="1.084" transform="rotate(-45 4.811 17.602)" fill="#414141"/><rect x="4.811" y="17.604" width="2.436" height="4.997" rx="1.218" transform="rotate(-45 4.811 17.604)" fill="#414141"/></svg><view id="iconInstagramGray" viewBox="234 0 38 38"/><svg width="38" height="38" fill="none" viewBox="-10 -10 38 38" x="234" xmlns="http://www.w3.org/2000/svg"><path d="M8.964 1.615c2.393 0 2.676.01 3.622.052.874.04 1.348.186 1.664.309.418.163.717.357 1.03.67.315.314.509.613.671 1.031.123.316.269.79.309 1.665.043.945.052 1.228.052 3.622 0 2.393-.009 2.676-.052 3.622-.04.874-.186 1.348-.309 1.664a2.778 2.778 0 01-.67 1.03 2.778 2.778 0 01-1.03.671c-.317.123-.791.27-1.665.309-.945.043-1.229.052-3.622.052-2.394 0-2.677-.009-3.622-.052-.874-.04-1.349-.186-1.665-.309a2.777 2.777 0 01-1.03-.67 2.777 2.777 0 01-.671-1.03c-.123-.317-.269-.791-.309-1.665-.043-.946-.052-1.229-.052-3.622 0-2.394.01-2.677.052-3.622.04-.874.186-1.349.309-1.665.163-.418.357-.717.67-1.03a2.778 2.778 0 011.031-.671c.316-.123.79-.269 1.665-.309.945-.043 1.228-.052 3.622-.052zm0-1.615c-2.435 0-2.74.01-3.696.054-.954.043-1.606.195-2.176.417-.59.229-1.09.535-1.588 1.033A4.394 4.394 0 00.471 3.092c-.222.57-.374 1.222-.417 2.176C.01 6.224 0 6.529 0 8.964c0 2.434.01 2.74.054 3.695.043.954.195 1.606.417 2.176.229.59.535 1.09 1.033 1.588.499.498.999.805 1.588 1.034.57.221 1.222.373 2.176.416.956.044 1.261.054 3.696.054 2.434 0 2.74-.01 3.695-.054.954-.043 1.606-.195 2.176-.416a4.392 4.392 0 001.588-1.034 4.395 4.395 0 001.034-1.588c.221-.57.373-1.222.416-2.176.044-.956.054-1.261.054-3.695 0-2.435-.01-2.74-.054-3.696-.043-.954-.195-1.606-.416-2.176a4.394 4.394 0 00-1.034-1.588A4.393 4.393 0 0014.835.471c-.57-.222-1.222-.374-2.176-.417C11.703.01 11.398 0 8.964 0zm0 4.36a4.603 4.603 0 100 9.207 4.603 4.603 0 000-9.206zm0 7.591a2.988 2.988 0 110-5.975 2.988 2.988 0 010 5.975zm5.86-7.772a1.076 1.076 0 11-2.151 0 1.076 1.076 0 012.151 0z" fill="#B2B2B2"/></svg><view id="iconInstagramWhite" viewBox="147 150.81 40 40"/><svg width="40" height="40" fill="none" viewBox="-10 -10 40 40" x="147" y="150.81" xmlns="http://www.w3.org/2000/svg"><path d="M9.705 1.749c2.591 0 2.898.01 3.922.056.946.043 1.46.202 1.802.334.453.176.776.387 1.116.726.34.34.55.663.725 1.116.134.342.291.856.335 1.802.046 1.024.056 1.33.056 3.922 0 2.591-.01 2.898-.056 3.922-.044.946-.201 1.46-.335 1.802a3.006 3.006 0 01-.725 1.116c-.34.34-.663.55-1.116.725-.342.134-.856.292-1.802.335-1.024.046-1.33.056-3.922.056s-2.898-.01-3.922-.056c-.946-.044-1.46-.201-1.802-.335a3.005 3.005 0 01-1.116-.725c-.34-.34-.55-.663-.726-1.116-.132-.342-.29-.856-.334-1.802-.046-1.024-.056-1.33-.056-3.922 0-2.591.01-2.898.056-3.922.043-.946.202-1.46.334-1.802.176-.453.387-.776.726-1.116.34-.34.663-.55 1.116-.726.342-.132.856-.29 1.802-.334 1.024-.046 1.33-.056 3.922-.056zm0-1.749C7.069 0 6.739.011 5.704.058 4.67.106 3.965.27 3.348.51c-.638.248-1.18.58-1.72 1.119-.539.54-.87 1.08-1.118 1.719C.27 3.965.106 4.67.058 5.704.011 6.739 0 7.069 0 9.705s.011 2.966.058 4.001c.048 1.033.212 1.739.452 2.356.247.638.58 1.18 1.119 1.72.54.539 1.08.87 1.719 1.118.617.24 1.323.404 2.356.452 1.035.047 1.365.058 4.001.058s2.966-.011 4.001-.058c1.033-.048 1.739-.212 2.356-.452a4.753 4.753 0 001.719-1.119c.54-.54.871-1.08 1.12-1.719.24-.617.403-1.323.45-2.356.048-1.035.059-1.365.059-4.001s-.011-2.966-.058-4.001c-.048-1.033-.212-1.739-.452-2.356a4.756 4.756 0 00-1.119-1.72A4.755 4.755 0 0016.062.51C15.445.27 14.74.106 13.706.058 12.671.011 12.341 0 9.705 0zm0 4.721a4.984 4.984 0 100 9.968 4.984 4.984 0 000-9.968zm0 8.219a3.235 3.235 0 110-6.47 3.235 3.235 0 010 6.47zm6.345-8.416a1.165 1.165 0 11-2.329 0 1.165 1.165 0 012.33 0z" fill="#fff"/></svg><view id="iconMarkLocationGray" viewBox="104 0 47 52"/><svg width="47" height="52" fill="none" viewBox="-10 -10 47 52" x="104" xmlns="http://www.w3.org/2000/svg"><path d="M13.621 6.879a5.948 5.948 0 00-5.94 5.94 5.948 5.948 0 005.94 5.941 5.948 5.948 0 005.941-5.94 5.948 5.948 0 00-5.94-5.941zm0 9.38a3.443 3.443 0 01-3.44-3.44 3.443 3.443 0 013.44-3.439 3.443 3.443 0 013.44 3.44 3.443 3.443 0 01-3.44 3.44z" fill="#414141"/><path d="M13.62 0C6.553 0 .802 5.75.802 12.82v.354c0 3.575 2.05 7.741 6.092 12.382 2.93 3.364 5.82 5.71 5.942 5.809l.786.635.786-.635c.121-.098 3.011-2.444 5.942-5.809 4.042-4.641 6.092-8.807 6.092-12.382v-.354C26.44 5.75 20.69 0 13.62 0zm10.32 13.174c0 6.042-7.785 13.355-10.32 15.575-2.534-2.22-10.317-9.534-10.317-15.575v-.354C3.303 7.13 7.93 2.5 13.62 2.5c5.69 0 10.318 4.63 10.318 10.319v.354z" fill="#414141"/></svg><view id="iconMarkLocationPurple" viewBox="0 98.81 45.6 52"/><svg width="45.6" height="52" fill="none" viewBox="-10.94 -10.94 49.88 56.88" y="98.81" xmlns="http://www.w3.org/2000/svg"><path d="M25.454 32.5h-7.868a42.018 42.018 0 003.738-3.71C25.691 23.855 28 18.655 28 13.75c0-3.647-1.475-7.144-4.1-9.723A14.13 14.13 0 0014 0a14.13 14.13 0 00-9.9 4.027A13.627 13.627 0 000 13.75c0 4.906 2.308 10.106 6.676 15.04a42.021 42.021 0 003.738 3.71H2.545c-.337 0-.66.132-.9.366a1.239 1.239 0 00-.372.884c0 .331.134.65.373.884.238.234.562.366.9.366h22.909c.337 0 .66-.132.9-.366a1.239 1.239 0 000-1.768 1.285 1.285 0 00-.9-.366zM2.546 13.75A11.15 11.15 0 015.9 5.795 11.561 11.561 0 0114 2.5c3.038 0 5.951 1.185 8.1 3.295a11.15 11.15 0 013.354 7.955c0 8.943-8.824 16.409-11.454 18.434-2.63-2.026-11.455-9.491-11.455-18.434zm17.819 0a6.171 6.171 0 00-1.073-3.472 6.34 6.34 0 00-2.856-2.302 6.471 6.471 0 00-3.676-.356A6.4 6.4 0 009.5 9.33a6.216 6.216 0 00-1.741 3.2 6.146 6.146 0 00.362 3.612 6.276 6.276 0 002.344 2.805 6.446 6.446 0 008.033-.78 6.201 6.201 0 001.866-4.417zm-10.182 0c0-.742.224-1.467.643-2.083a3.804 3.804 0 011.714-1.381 3.882 3.882 0 012.206-.214 3.84 3.84 0 011.955 1.026 3.73 3.73 0 011.045 1.92 3.688 3.688 0 01-.218 2.167 3.764 3.764 0 01-1.406 1.683 3.867 3.867 0 01-4.82-.468 3.72 3.72 0 01-1.12-2.65z" fill="url(#lpaint0_linear)" fill-opacity=".9"/><defs><linearGradient id="lpaint0_linear" x1="0" y1="17.5" x2="28" y2="17.5" gradientUnits="userSpaceOnUse"><stop stop-color="#710FD1"/><stop offset="1" stop-color="#FF3839"/></linearGradient></defs></svg><view id="iconMarkMapPurple" viewBox="45.6 98.81 44.28 52"/><svg width="44.28" height="52" fill="none" viewBox="-18.12 -18.12 80.25 94.25" x="45.6" y="98.81" xmlns="http://www.w3.org/2000/svg"><path d="M22 13.594c-4.497 0-8.156 3.659-8.156 8.156 0 4.497 3.659 8.156 8.156 8.156 4.498 0 8.156-3.659 8.156-8.156 0-4.497-3.659-8.156-8.156-8.156z" fill="#fff"/><path d="M22.089 0h-.091C10.005 0 .25 9.675.25 21.567c0 6.52 3.36 11.605 7.105 16.67L21.968 58s13.813-18.595 14.677-19.763c3.744-5.064 7.105-10.15 7.105-16.67C43.75 9.706 34.042.048 22.089 0zM22 34.754c-7.333 0-13.298-5.915-13.298-13.187 0-7.27 5.965-13.186 13.298-13.186s13.298 5.915 13.298 13.186S29.333 34.754 22 34.754z" fill="url(#mpaint0_linear)"/><defs><linearGradient id="mpaint0_linear" x1=".073" y1="57.481" x2="48.351" y2="10.324" gradientUnits="userSpaceOnUse"><stop stop-color="#710FD1"/><stop offset="1" stop-color="#FF3839"/></linearGradient></defs></svg><view id="iconPhoneGray" viewBox="89.88 98.81 41 52"/><svg width="41" height="52" fill="none" viewBox="-10 -10 41 52" x="89.88" y="98.81" xmlns="http://www.w3.org/2000/svg"><path fill-rule="evenodd" clip-rule="evenodd" d="M2.847 0h14.64a2.85 2.85 0 012.847 2.847v26.028a2.85 2.85 0 01-2.846 2.847H2.847A2.85 2.85 0 010 28.875V2.847A2.85 2.85 0 012.847 0zm14.64 29.282a.407.407 0 00.407-.407v-5.287H2.44v5.287c0 .224.183.407.407.407h14.64zM2.44 21.148h15.454V7.32H2.44v13.828zm0-16.268h15.454V2.847a.407.407 0 00-.406-.407H2.847a.407.407 0 00-.407.407V4.88zm9.354 21.555a1.627 1.627 0 11-3.254 0 1.627 1.627 0 013.254 0z" fill="#B2B2B2" fill-opacity=".3"/></svg><view id="iconPhonePurple" viewBox="151 0 52 52"/><svg width="52" height="52" fill="none" viewBox="-11.25 -11.25 58.5 58.5" x="151" xmlns="http://www.w3.org/2000/svg"><path d="M31.848 36h-.236C4.415 34.435.553 11.479.013 4.472A4.155 4.155 0 013.833 0h7.627a2.767 2.767 0 012.574 1.745l2.104 5.178a2.77 2.77 0 01-.609 2.99l-2.948 2.978a12.975 12.975 0 0010.491 10.523l3.004-2.977a2.768 2.768 0 013.003-.568l5.218 2.091A2.769 2.769 0 0136 24.535v7.311A4.154 4.154 0 0131.848 36zM4.166 2.77A1.384 1.384 0 002.78 4.153v.11c.637 8.197 4.72 27.582 28.984 28.967a1.386 1.386 0 001.467-1.302v-7.394l-5.218-2.09-3.973 3.946-.664-.083c-12.042-1.51-13.675-13.556-13.675-13.68l-.083-.665 3.93-3.974-2.075-5.22H4.165z" fill="url(#opaint0_linear)" fill-opacity=".9"/><defs><linearGradient id="opaint0_linear" x1="0" y1="18" x2="36" y2="18" gradientUnits="userSpaceOnUse"><stop stop-color="#710FD1"/><stop offset="1" stop-color="#FF3839"/></linearGradient></defs></svg><view id="iconReturnCircle" viewBox="151 52 52 52"/><svg width="52" height="52" fill="none" viewBox="-10 -10 52 52" x="151" y="52" xmlns="http://www.w3.org/2000/svg"><circle cx="16" cy="16" r="14.5" stroke="#414141" stroke-width="3"/><path d="M10.667 16.97A5.333 5.333 0 1016 11.636" stroke="#414141" stroke-width="3"/><path d="M16.485 15.515l-5.818-3.879 5.818-3.878v7.757z" fill="#414141"/></svg><view id="iconShield" viewBox="0 150.81 50 52"/><svg width="50" height="52" fill="none" viewBox="-10 -10 50 52" y="150.81" xmlns="http://www.w3.org/2000/svg"><path d="M14.737 30.5c-.548 0-1.669-.358-3.132-1.26-1.398-.863-2.912-2.103-4.213-3.571C3.734 21.539 1.5 15.755 1.5 8.222c0-.22.147-.42.37-.482 5.212-1.446 9.412-3.474 12.534-6.118a.517.517 0 01.666 0c3.121 2.644 7.322 4.672 12.533 6.118.223.062.37.262.37.482 0 7.533-2.233 13.317-5.891 17.447-1.3 1.468-2.815 2.708-4.214 3.57-1.462.903-2.583 1.261-3.131 1.261z" stroke="#414141" stroke-width="3"/><path d="M9.684 15.579l3.92 4.21 7.449-8" stroke="#414141" stroke-width="3"/></svg><view id="iconYoutubeGray" viewBox="104 52 42 36"/><svg width="42" height="36" fill="none" viewBox="-10 -10 42 36" x="104" y="52" xmlns="http://www.w3.org/2000/svg"><path d="M21.548 2.974a2.725 2.725 0 00-1.911-1.935C17.951.582 11.191.582 11.191.582s-6.76 0-8.446.457A2.725 2.725 0 00.834 2.974C.382 4.681.382 8.243.382 8.243s0 3.561.452 5.268a2.684 2.684 0 001.91 1.904c1.687.458 8.447.458 8.447.458s6.76 0 8.446-.458a2.684 2.684 0 001.911-1.904C22 11.804 22 8.243 22 8.243s0-3.562-.452-5.269zM8.98 11.476V5.01l5.65 3.234-5.65 3.233z" fill="#B2B2B2"/></svg><view id="iconYoutubeWhite" viewBox="151 104 44 38"/><svg width="44" height="38" fill="none" viewBox="-10 -10 44 38" x="151" y="104" xmlns="http://www.w3.org/2000/svg"><path d="M23.51 3.303a2.95 2.95 0 00-2.069-2.095C19.616.713 12.297.713 12.297.713s-7.32 0-9.145.495a2.95 2.95 0 00-2.07 2.095C.595 5.151.595 9.007.595 9.007s0 3.856.489 5.704a2.906 2.906 0 002.07 2.062c1.825.495 9.144.495 9.144.495s7.32 0 9.144-.495a2.906 2.906 0 002.07-2.062C24 12.863 24 9.007 24 9.007s0-3.856-.49-5.704zM9.904 12.508V5.506l6.117 3.501-6.117 3.501z" fill="#fff"/></svg></svg>