<?xml version="1.0" encoding="utf-8"?><svg width="347" height="291" viewBox="0 0 347 291" xmlns="http://www.w3.org/2000/svg" xmlns:xlink="http://www.w3.org/1999/xlink"><view id="iconArrowsLR" viewBox="0 0 52 44.62"/><svg width="52" height="44.62" fill="none" viewBox="-12.19 -12.19 63.38 54.38" xmlns="http://www.w3.org/2000/svg"><path d="M37.782 9.945L28.237.399a1.364 1.364 0 00-2.328.964v4.091h-9.546a1.364 1.364 0 100 2.728h10.91c.753 0 1.363-.61 1.363-1.364V4.655l6.254 6.254-6.254 6.254V15c0-.753-.61-1.364-1.363-1.364h-15v-4.09a1.364 1.364 0 00-2.328-.965L.399 18.127a1.364 1.364 0 000 1.928L9.945 29.6a1.364 1.364 0 002.328-.964v-4.09h9.545a1.364 1.364 0 000-2.728h-10.91c-.752 0-1.363.61-1.363 1.364v2.163L3.292 19.09l6.253-6.254V15c0 .753.61 1.363 1.364 1.363h15v4.091a1.364 1.364 0 002.328.965l9.545-9.546a1.364 1.364 0 000-1.928z" fill="#fff"/></svg><view id="iconArrowsUp" viewBox="296 50 50 47"/><svg width="50" height="47" fill="none" viewBox="-10 -10 50 47" x="296" y="50" xmlns="http://www.w3.org/2000/svg"><path d="M27.39 18.776a3.522 3.522 0 001.044-.728l.536-.54A3.539 3.539 0 0030 14.981a3.536 3.536 0 00-1.05-2.513l-3.811-3.792a1.164 1.164 0 00-1.657.011 1.19 1.19 0 00.01 1.672l3.813 3.795c.225.223.35.52.351.838a1.18 1.18 0 01-.343.842l-.537.54a1.153 1.153 0 01-.834.347 1.16 1.16 0 01-.832-.355 1.179 1.179 0 00-.25-.196l-7.364-7.58a3.472 3.472 0 00-2.507-1.023 3.479 3.479 0 00-2.429 1l-.008.008-7.867 7.905a1.158 1.158 0 01-1.438-.163l-.553-.55a1.18 1.18 0 01-.35-.845c0-.32.126-.62.355-.845L14.198 2.701a1.171 1.171 0 011.634-.003l7.637 7.638c.454.466 1.196.471 1.657.013a1.19 1.19 0 00.013-1.672L17.494 1.03l-.014-.014A3.48 3.48 0 0015.02 0h-.005c-.923 0-1.795.358-2.457 1.011l-11.5 11.377A3.536 3.536 0 000 14.918c-.002.96.37 1.861 1.049 2.535l.553.55c.273.27.581.49.915.657l-1.462 1.468A3.536 3.536 0 000 22.654c-.002.96.37 1.86 1.049 2.535l.553.55a3.472 3.472 0 002.494 1.02 3.48 3.48 0 002.481-1.06l8.385-8.639 8.467 8.867.006.007A3.477 3.477 0 0025.929 27h.02c.938 0 1.82-.369 2.485-1.039l.536-.54A3.54 3.54 0 0030 22.894a3.537 3.537 0 00-1.044-2.506l-1.567-1.613zm-.077 4.972l-.537.54a1.155 1.155 0 01-.834.347 1.158 1.158 0 01-.829-.352l-9.3-9.74c-.22-.23-.522-.36-.84-.362h-.004c-.315 0-.617.128-.837.355l-9.227 9.505a1.161 1.161 0 01-1.658.013l-.553-.55a1.18 1.18 0 01-.35-.845c0-.32.126-.62.353-.843l.009-.009 3.485-3.502a3.56 3.56 0 00.384-.34 1.2 1.2 0 00.16-.206l7.466-7.503c.212-.206.498-.321.807-.324.315-.003.607.112.823.323L27.29 22.052l.016.016c.225.223.35.52.351.838a1.18 1.18 0 01-.343.842z" fill="#fff"/></svg><view id="iconCart" viewBox="296 188 47 47"/><svg width="47" height="47" fill="none" viewBox="-10 -10 47 47" x="296" y="188" xmlns="http://www.w3.org/2000/svg"><path d="M26.988 24.779l-1.729-18a2.018 2.018 0 00-.635-1.27A1.913 1.913 0 0023.326 5h-4.074a6.04 6.04 0 00-1.986-3.582A5.738 5.738 0 0013.5 0a5.738 5.738 0 00-3.766 1.417A6.04 6.04 0 007.748 5H3.674c-.48 0-.941.18-1.298.51-.357.327-.583.78-.635 1.269l-1.73 18c-.03.28-.002.563.082.83.083.268.22.515.403.725.182.21.405.377.655.492.25.115.52.174.794.174h23.11a1.9 1.9 0 00.794-.174c.25-.115.473-.283.655-.492.183-.21.32-.457.403-.724.084-.268.111-.551.081-.831zM13.5 1.999c.862.002 1.7.297 2.381.84a4.017 4.017 0 011.386 2.16H9.733a4.017 4.017 0 011.386-2.16 3.829 3.829 0 012.381-.84zM1.945 25L3.674 7h3.991v3c0 .265.103.52.285.707.183.188.43.293.688.293a.959.959 0 00.687-.293c.183-.188.285-.442.285-.707V7h7.78v3c0 .265.102.52.284.707.183.188.43.293.688.293a.959.959 0 00.688-.293c.182-.188.285-.442.285-.707V7h3.991l1.73 18H1.944z" fill="#fff"/></svg><view id="iconChat" viewBox="0 44.62 52 52"/><svg width="52" height="52" fill="none" viewBox="-10 -10 52 52" y="44.62" xmlns="http://www.w3.org/2000/svg"><path fill-rule="evenodd" clip-rule="evenodd" d="M29.333 14.383c0 6.471-5.67 11.717-12.666 11.717-1.243 0-2.444-.166-3.579-.474-2.665 1.759-6.038 2.214-7.608 2.333-.286.021-.429-.351-.229-.556.793-.814 2.079-2.435 2.49-4.706C5.431 20.575 4 17.633 4 14.383 4 7.913 9.671 2.667 16.667 2.667c6.995 0 12.666 5.245 12.666 11.716z" fill="url(#adpaint0_linear)"/><path fill="#fff" d="M6 11h20v8H6z"/><path d="M16 2C8.28 2 2 7.737 2 14.79c0 .153.003.305.009.458.173 4.467 3.266 9.76.128 12.943a.479.479 0 00-.088.547.466.466 0 00.483.257 26.06 26.06 0 002.294-.46c3.587-.874 7.482-.956 11.174-.956 7.72 0 14-5.737 14-12.79C30 7.738 23.72 2 16 2zM9.467 16.684c-1.03 0-1.867-.85-1.867-1.895 0-1.044.837-1.894 1.867-1.894s1.866.85 1.866 1.895c0 1.044-.837 1.894-1.866 1.894zm6.533 0c-1.03 0-1.867-.85-1.867-1.895 0-1.044.838-1.894 1.867-1.894 1.03 0 1.867.85 1.867 1.895 0 1.044-.838 1.894-1.867 1.894zm6.533 0c-1.03 0-1.866-.85-1.866-1.895 0-1.044.837-1.894 1.866-1.894 1.03 0 1.867.85 1.867 1.895 0 1.044-.837 1.894-1.867 1.894z" fill="url(#adpaint1_linear)"/><defs><linearGradient id="adpaint0_linear" x1="35.451" y1="27.96" x2="-16.008" y2="27.96" gradientUnits="userSpaceOnUse"><stop stop-color="#FF5823"/><stop offset="1" stop-color="#FF36C7"/></linearGradient><linearGradient id="adpaint1_linear" x1="1.5" y1="28.5" x2="26.5" y2="-1" gradientUnits="userSpaceOnUse"><stop stop-color="#710FD1"/><stop offset="1" stop-color="#FF3839"/></linearGradient></defs></svg><view id="iconChatGray" viewBox="52 0 52 52"/><svg width="52" height="52" fill="none" viewBox="-10.31 -10.31 53.63 53.63" x="52" xmlns="http://www.w3.org/2000/svg"><path d="M17.742 12.854c-.62 0-1.062.262-1.062.648v5.258c0 .33.441.662 1.062.662.594 0 1.077-.331 1.077-.662v-5.258c0-.386-.483-.649-1.077-.649zM17.742 9.61c-.634 0-1.131.456-1.131.98s.497.994 1.131.994c.621 0 1.118-.47 1.118-.994s-.497-.98-1.118-.98z" fill="#BCBCBC"/><path d="M25.319 7.63c-4.18-4.217-10.973-4.25-15.188-.073-3.441 3.411-4.053 8.509-1.996 12.526l-.838 4.27A.977.977 0 008.435 25.5l4.277-.8c4 2.094 9.103 1.525 12.543-1.884 4.217-4.18 4.24-10.973.064-15.187zM13.358 22.828a.977.977 0 00-.663-.11l-3.204.598.628-3.198a.976.976 0 00-.106-.664c-1.85-3.32-1.396-7.646 1.493-10.51 3.44-3.408 9.014-3.381 12.425.06 3.412 3.443 3.389 9.017-.051 12.426-2.892 2.866-7.222 3.276-10.522 1.398z" fill="#BCBCBC"/></svg><view id="iconChipGray" viewBox="104 0 52 52"/><svg width="52" height="52" fill="none" viewBox="-10.31 -10.31 53.63 53.63" x="104" xmlns="http://www.w3.org/2000/svg"><path d="M27.668 3.228H4.38c-.637 0-1.153.516-1.153 1.153v23.287c0 .637.516 1.153 1.153 1.153h23.287c.637 0 1.153-.516 1.153-1.153V4.381c0-.637-.516-1.153-1.153-1.153zm-1.153 23.287H5.533V5.534h20.982v20.981z" fill="#414141"/><path d="M20.52 10.414h-8.954c-.636 0-1.152.516-1.152 1.153v8.954c0 .636.516 1.152 1.152 1.152h8.954c.637 0 1.153-.515 1.153-1.152v-8.954c0-.637-.516-1.153-1.153-1.153zm-1.153 8.954H12.72V12.72h6.648v6.648zM11.144 0C10.507 0 9.99.516 9.99 1.153V4.38a1.153 1.153 0 102.306 0V1.153C12.297.516 11.78 0 11.144 0zM20.904 0c-.636 0-1.152.516-1.152 1.153V4.38a1.153 1.153 0 102.305 0V1.153C22.057.516 21.541 0 20.904 0zM11.144 26.515c-.637 0-1.153.516-1.153 1.153v3.228a1.153 1.153 0 102.306 0v-3.228c0-.637-.517-1.153-1.153-1.153zM20.904 26.515c-.636 0-1.152.516-1.152 1.153v3.228a1.153 1.153 0 102.305 0v-3.228c0-.637-.516-1.153-1.153-1.153zM30.895 9.991h-3.227a1.153 1.153 0 100 2.306h3.227a1.153 1.153 0 100-2.306zM30.895 18.407h-3.227a1.153 1.153 0 100 2.305h3.227a1.153 1.153 0 100-2.305zM4.38 9.991H1.154a1.153 1.153 0 100 2.306H4.38a1.153 1.153 0 100-2.306zM4.38 18.407H1.154a1.153 1.153 0 100 2.305H4.38a1.153 1.153 0 100-2.305z" fill="#414141"/></svg><view id="iconChipWhite" viewBox="0 96.62 52 52"/><svg width="52" height="52" fill="none" viewBox="-12.19 -12.19 63.38 63.38" y="96.62" xmlns="http://www.w3.org/2000/svg"><path d="M32.848 3.832H5.2c-.756 0-1.369.613-1.369 1.369v27.647c0 .756.613 1.369 1.369 1.369h27.647c.756 0 1.368-.613 1.368-1.37V5.202c0-.756-.612-1.369-1.368-1.369zm-1.37 27.647H6.57V6.57h24.91v24.91z" fill="#fff"/><path d="M24.362 12.364h-10.63c-.756 0-1.369.612-1.369 1.368v10.63c0 .756.613 1.369 1.369 1.369h10.63c.756 0 1.369-.613 1.369-1.369v-10.63c0-.756-.613-1.368-1.37-1.368zm-1.369 10.63h-7.892V15.1h7.892v7.893zM13.23 0c-.756 0-1.369.613-1.369 1.369V5.2a1.369 1.369 0 102.738 0V1.369C14.599.613 13.986 0 13.23 0zM24.818 0c-.756 0-1.369.613-1.369 1.369V5.2a1.369 1.369 0 102.737 0V1.369C26.186.613 25.575 0 24.819 0zM13.23 31.48c-.756 0-1.369.612-1.369 1.368v3.832a1.369 1.369 0 102.738 0v-3.832c0-.756-.613-1.369-1.369-1.369zM24.818 31.48c-.756 0-1.369.612-1.369 1.368v3.832a1.369 1.369 0 102.737 0v-3.832c0-.756-.612-1.369-1.368-1.369zM36.68 11.862h-3.833a1.369 1.369 0 100 2.737h3.832a1.368 1.368 0 100-2.737zM36.68 21.853h-3.833a1.369 1.369 0 100 2.737h3.832a1.368 1.368 0 100-2.737zM5.2 11.862H1.37a1.369 1.369 0 100 2.737H5.2a1.369 1.369 0 100-2.737zM5.2 21.853H1.37a1.369 1.369 0 100 2.737H5.2a1.369 1.369 0 100-2.737z" fill="#fff"/></svg><view id="iconEmailGray" viewBox="244 156 44 37"/><svg width="44" height="37" fill="none" viewBox="-10 -10 44 37" x="244" y="156" xmlns="http://www.w3.org/2000/svg"><path d="M21.29 0H3.584a2.713 2.713 0 00-2.71 2.71v11.563a2.713 2.713 0 002.71 2.71H21.29a2.713 2.713 0 002.71-2.71V2.71A2.713 2.713 0 0021.29 0zm.903 14.273a.904.904 0 01-.903.904H3.584a.904.904 0 01-.903-.904V2.71c0-.498.405-.903.903-.903H21.29c.498 0 .903.405.903.903v11.563z" fill="#BCBCBC"/><path d="M22.04 1.126L12.437 8.27 2.834 1.126l-1.078 1.45 10.681 7.945 10.681-7.945-1.078-1.45z" fill="#BCBCBC"/></svg><view id="iconEmailGray2" viewBox="296 97 50 50"/><svg width="50" height="50" fill="none" viewBox="-10 -10 50 50" x="296" y="97" xmlns="http://www.w3.org/2000/svg"><path d="M26.484 3.984H3.516A3.52 3.52 0 000 7.5v15a3.52 3.52 0 003.516 3.516h22.968A3.52 3.52 0 0030 22.5v-15a3.52 3.52 0 00-3.516-3.516zM27.656 22.5c0 .646-.525 1.172-1.172 1.172H3.516A1.173 1.173 0 012.344 22.5v-15c0-.646.525-1.172 1.172-1.172h22.968c.646 0 1.172.526 1.172 1.172v15z" fill="#414141"/><path d="M27.457 5.446L15 14.71 2.543 5.446l-1.4 1.88L15 17.632 28.856 7.326l-1.399-1.88z" fill="#414141"/></svg><view id="iconEmalPurple" viewBox="52 96.62 52 46.81"/><svg width="52" height="46.81" fill="none" viewBox="-11.56 -11.56 60.13 54.13" x="52" y="96.62" xmlns="http://www.w3.org/2000/svg"><path d="M5.466 0h26.068a5.466 5.466 0 015.458 5.156l.008.31v19.34a5.466 5.466 0 01-5.157 5.458l-.309.009H5.466a5.466 5.466 0 01-5.458-5.157L0 24.806V5.467A5.466 5.466 0 015.156.008L5.466 0h26.068H5.466zm29.011 9.931l-15.395 8.006a1.261 1.261 0 01-.976.079l-.188-.08L2.523 9.932v14.876a2.943 2.943 0 002.7 2.933l.243.01h26.068a2.943 2.943 0 002.933-2.703l.01-.24V9.93zm-2.943-7.408H5.466a2.943 2.943 0 00-2.933 2.7l-.01.243v1.621L18.5 15.395l15.977-8.308V5.466a2.943 2.943 0 00-2.702-2.933l-.24-.01z" fill="url(#ajpaint0_linear)" fill-opacity=".9"/><defs><linearGradient id="ajpaint0_linear" x1="0" y1="15.136" x2="37" y2="15.136" gradientUnits="userSpaceOnUse"><stop stop-color="#710FD1"/><stop offset="1" stop-color="#FF3839"/></linearGradient></defs></svg><view id="iconFacebookGray" viewBox="38 252.62 30 37"/><svg width="30" height="37" fill="none" viewBox="-10 -10 30 37" x="38" y="252.62" xmlns="http://www.w3.org/2000/svg"><path d="M6.496 16.927V9.243H9.15l.395-3.008h-3.05V4.319c0-.869.248-1.463 1.524-1.463h1.617V.174a21.957 21.957 0 00-2.368-.12c-2.347 0-3.958 1.4-3.958 3.967V6.23H.673v3.009h2.643v7.69h3.18z" fill="#B2B2B2"/></svg><view id="iconFacebookWhite" viewBox="248 200.62 31 39"/><svg width="31" height="39" fill="none" viewBox="-10 -10 31 39" x="248" y="200.62" xmlns="http://www.w3.org/2000/svg"><path d="M7.16 18.41v-8.32h2.875l.427-3.257H7.161V4.758c0-.94.268-1.583 1.65-1.583h1.75V.27A23.774 23.774 0 007.997.14c-2.54 0-4.285 1.515-4.285 4.296v2.39H.856v3.257h2.862v8.326h3.443z" fill="#fff"/></svg><view id="iconFreeShipping" viewBox="104 96.62 52 44.8"/><svg width="52" height="44.8" fill="none" viewBox="-12.5 -12.5 65 56" x="104" y="96.62" xmlns="http://www.w3.org/2000/svg"><rect x="7.666" y="1.5" width="30.405" height="24.595" rx="2.5" stroke="#414141" stroke-width="3"/><rect x="17.832" y="1.5" width="10.071" height="3.81" rx="1.905" stroke="#414141" stroke-width="3"/><circle cx="11.619" cy="19.119" r="10.119" fill="#111" stroke="#414141" stroke-width="3"/><path d="M6.713 17.605h7.262c1.604 0 2.904 1.3 2.904 2.905v0c0 1.604-1.3 2.905-2.904 2.905h-3.55" stroke="#414141" stroke-width="3"/><rect x="4.811" y="17.602" width="4.998" height="2.168" rx="1.084" transform="rotate(-45 4.811 17.602)" fill="#414141"/><rect x="4.811" y="17.604" width="2.436" height="4.997" rx="1.218" transform="rotate(-45 4.811 17.604)" fill="#414141"/></svg><view id="iconHybrEng" viewBox="104 52 52 40.62"/><svg width="52" height="40.62" fill="none" viewBox="-14.06 -14.06 73.13 57.13" x="104" y="52" xmlns="http://www.w3.org/2000/svg"><path d="M36.324 4.629l-.046 5.208H34.33l-4.6-5.198h-6.253V2.61h6.09V0h-14.79v2.61h6.09v2.03h-6.68l-3.01 3.524H5.081v7.067H2.61v-5.092H0v12.99h2.61v-5.288H5.08v7.415h6.137l3.087 3.267 15.42-.009 4.64-5.155h1.912l.047 5.504h8.022V4.695l-8.022-.066zm5.412 21.624h-2.825l-.046-5.503h-5.662l-4.64 5.155-13.134.008-3.087-3.267h-4.65V10.773h4.69L15.39 7.25h13.165l4.6 5.198h5.708l.047-5.187 2.825.023v18.97z" fill="#414141"/></svg><view id="iconInstagramGray" viewBox="0 252.62 38 38"/><svg width="38" height="38" fill="none" viewBox="-10 -10 38 38" y="252.62" xmlns="http://www.w3.org/2000/svg"><path d="M8.964 1.615c2.393 0 2.676.01 3.622.052.874.04 1.348.186 1.664.309.418.163.717.357 1.03.67.315.314.509.613.671 1.031.123.316.269.79.309 1.665.043.945.052 1.228.052 3.622 0 2.393-.009 2.676-.052 3.622-.04.874-.186 1.348-.309 1.664a2.778 2.778 0 01-.67 1.03 2.778 2.778 0 01-1.03.671c-.317.123-.791.27-1.665.309-.945.043-1.229.052-3.622.052-2.394 0-2.677-.009-3.622-.052-.874-.04-1.349-.186-1.665-.309a2.777 2.777 0 01-1.03-.67 2.777 2.777 0 01-.671-1.03c-.123-.317-.269-.791-.309-1.665-.043-.946-.052-1.229-.052-3.622 0-2.394.01-2.677.052-3.622.04-.874.186-1.349.309-1.665.163-.418.357-.717.67-1.03a2.778 2.778 0 011.031-.671c.316-.123.79-.269 1.665-.309.945-.043 1.228-.052 3.622-.052zm0-1.615c-2.435 0-2.74.01-3.696.054-.954.043-1.606.195-2.176.417-.59.229-1.09.535-1.588 1.033A4.394 4.394 0 00.471 3.092c-.222.57-.374 1.222-.417 2.176C.01 6.224 0 6.529 0 8.964c0 2.434.01 2.74.054 3.695.043.954.195 1.606.417 2.176.229.59.535 1.09 1.033 1.588.499.498.999.805 1.588 1.034.57.221 1.222.373 2.176.416.956.044 1.261.054 3.696.054 2.434 0 2.74-.01 3.695-.054.954-.043 1.606-.195 2.176-.416a4.392 4.392 0 001.588-1.034 4.395 4.395 0 001.034-1.588c.221-.57.373-1.222.416-2.176.044-.956.054-1.261.054-3.695 0-2.435-.01-2.74-.054-3.696-.043-.954-.195-1.606-.416-2.176a4.394 4.394 0 00-1.034-1.588A4.393 4.393 0 0014.835.471c-.57-.222-1.222-.374-2.176-.417C11.703.01 11.398 0 8.964 0zm0 4.36a4.603 4.603 0 100 9.207 4.603 4.603 0 000-9.206zm0 7.591a2.988 2.988 0 110-5.975 2.988 2.988 0 010 5.975zm5.86-7.772a1.076 1.076 0 11-2.151 0 1.076 1.076 0 012.151 0z" fill="#B2B2B2"/></svg><view id="iconInstagramWhite" viewBox="208 200.62 40 40"/><svg width="40" height="40" fill="none" viewBox="-10 -10 40 40" x="208" y="200.62" xmlns="http://www.w3.org/2000/svg"><path d="M9.705 1.749c2.591 0 2.898.01 3.922.056.946.043 1.46.202 1.802.334.453.176.776.387 1.116.726.34.34.55.663.725 1.116.134.342.291.856.335 1.802.046 1.024.056 1.33.056 3.922 0 2.591-.01 2.898-.056 3.922-.044.946-.201 1.46-.335 1.802a3.006 3.006 0 01-.725 1.116c-.34.34-.663.55-1.116.725-.342.134-.856.292-1.802.335-1.024.046-1.33.056-3.922.056s-2.898-.01-3.922-.056c-.946-.044-1.46-.201-1.802-.335a3.005 3.005 0 01-1.116-.725c-.34-.34-.55-.663-.726-1.116-.132-.342-.29-.856-.334-1.802-.046-1.024-.056-1.33-.056-3.922 0-2.591.01-2.898.056-3.922.043-.946.202-1.46.334-1.802.176-.453.387-.776.726-1.116.34-.34.663-.55 1.116-.726.342-.132.856-.29 1.802-.334 1.024-.046 1.33-.056 3.922-.056zm0-1.749C7.069 0 6.739.011 5.704.058 4.67.106 3.965.27 3.348.51c-.638.248-1.18.58-1.72 1.119-.539.54-.87 1.08-1.118 1.719C.27 3.965.106 4.67.058 5.704.011 6.739 0 7.069 0 9.705s.011 2.966.058 4.001c.048 1.033.212 1.739.452 2.356.247.638.58 1.18 1.119 1.72.54.539 1.08.87 1.719 1.118.617.24 1.323.404 2.356.452 1.035.047 1.365.058 4.001.058s2.966-.011 4.001-.058c1.033-.048 1.739-.212 2.356-.452a4.753 4.753 0 001.719-1.119c.54-.54.871-1.08 1.12-1.719.24-.617.403-1.323.45-2.356.048-1.035.059-1.365.059-4.001s-.011-2.966-.058-4.001c-.048-1.033-.212-1.739-.452-2.356a4.756 4.756 0 00-1.119-1.72A4.755 4.755 0 0016.062.51C15.445.27 14.74.106 13.706.058 12.671.011 12.341 0 9.705 0zm0 4.721a4.984 4.984 0 100 9.968 4.984 4.984 0 000-9.968zm0 8.219a3.235 3.235 0 110-6.47 3.235 3.235 0 010 6.47zm6.345-8.416a1.165 1.165 0 11-2.329 0 1.165 1.165 0 012.33 0z" fill="#fff"/></svg><view id="iconMarkLocationGray" viewBox="203 52 40 45"/><svg width="40" height="45" fill="none" viewBox="-10 -10 40 45" x="203" y="52" xmlns="http://www.w3.org/2000/svg"><path d="M9.883 5.303a4.585 4.585 0 00-4.58 4.58 4.585 4.585 0 004.58 4.579 4.585 4.585 0 004.58-4.58 4.585 4.585 0 00-4.58-4.58zm0 7.23a2.654 2.654 0 01-2.652-2.65A2.654 2.654 0 019.883 7.23a2.654 2.654 0 012.65 2.651 2.654 2.654 0 01-2.65 2.652z" fill="#BCBCBC"/><path d="M9.882 0C4.433 0 0 4.433 0 9.882v.274c0 2.755 1.58 5.967 4.696 9.545a40.617 40.617 0 004.58 4.477l.606.49.606-.49a40.611 40.611 0 004.58-4.477c3.117-3.578 4.697-6.79 4.697-9.545v-.274C19.765 4.433 15.33 0 9.882 0zm7.954 10.156c0 4.657-6 10.295-7.954 12.006-1.953-1.712-7.954-7.35-7.954-12.006v-.274c0-4.385 3.568-7.954 7.954-7.954 4.386 0 7.954 3.569 7.954 7.954v.274z" fill="#BCBCBC"/></svg><view id="iconMarkLocationGray2" viewBox="156 0 47 52"/><svg width="47" height="52" fill="none" viewBox="-10 -10 47 52" x="156" xmlns="http://www.w3.org/2000/svg"><path d="M13.621 6.879a5.948 5.948 0 00-5.94 5.94 5.948 5.948 0 005.94 5.941 5.948 5.948 0 005.941-5.94 5.948 5.948 0 00-5.94-5.941zm0 9.38a3.443 3.443 0 01-3.44-3.44 3.443 3.443 0 013.44-3.439 3.443 3.443 0 013.44 3.44 3.443 3.443 0 01-3.44 3.44z" fill="#414141"/><path d="M13.62 0C6.553 0 .802 5.75.802 12.82v.354c0 3.575 2.05 7.741 6.092 12.382 2.93 3.364 5.82 5.71 5.942 5.809l.786.635.786-.635c.121-.098 3.011-2.444 5.942-5.809 4.042-4.641 6.092-8.807 6.092-12.382v-.354C26.44 5.75 20.69 0 13.62 0zm10.32 13.174c0 6.042-7.785 13.355-10.32 15.575-2.534-2.22-10.317-9.534-10.317-15.575v-.354C3.303 7.13 7.93 2.5 13.62 2.5c5.69 0 10.318 4.63 10.318 10.319v.354z" fill="#414141"/></svg><view id="iconMarkLocationPurple" viewBox="156 52 45.6 52"/><svg width="45.6" height="52" fill="none" viewBox="-10.94 -10.94 49.88 56.88" x="156" y="52" xmlns="http://www.w3.org/2000/svg"><path d="M25.454 32.5h-7.868a42.018 42.018 0 003.738-3.71C25.691 23.855 28 18.655 28 13.75c0-3.647-1.475-7.144-4.1-9.723A14.13 14.13 0 0014 0a14.13 14.13 0 00-9.9 4.027A13.627 13.627 0 000 13.75c0 4.906 2.308 10.106 6.676 15.04a42.021 42.021 0 003.738 3.71H2.545c-.337 0-.66.132-.9.366a1.239 1.239 0 00-.372.884c0 .331.134.65.373.884.238.234.562.366.9.366h22.909c.337 0 .66-.132.9-.366a1.239 1.239 0 000-1.768 1.285 1.285 0 00-.9-.366zM2.546 13.75A11.15 11.15 0 015.9 5.795 11.561 11.561 0 0114 2.5c3.038 0 5.951 1.185 8.1 3.295a11.15 11.15 0 013.354 7.955c0 8.943-8.824 16.409-11.454 18.434-2.63-2.026-11.455-9.491-11.455-18.434zm17.819 0a6.171 6.171 0 00-1.073-3.472 6.34 6.34 0 00-2.856-2.302 6.471 6.471 0 00-3.676-.356A6.4 6.4 0 009.5 9.33a6.216 6.216 0 00-1.741 3.2 6.146 6.146 0 00.362 3.612 6.276 6.276 0 002.344 2.805 6.446 6.446 0 008.033-.78 6.201 6.201 0 001.866-4.417zm-10.182 0c0-.742.224-1.467.643-2.083a3.804 3.804 0 011.714-1.381 3.882 3.882 0 012.206-.214 3.84 3.84 0 011.955 1.026 3.73 3.73 0 011.045 1.92 3.688 3.688 0 01-.218 2.167 3.764 3.764 0 01-1.406 1.683 3.867 3.867 0 01-4.82-.468 3.72 3.72 0 01-1.12-2.65z" fill="url(#aspaint0_linear)" fill-opacity=".9"/><defs><linearGradient id="aspaint0_linear" x1="0" y1="17.5" x2="28" y2="17.5" gradientUnits="userSpaceOnUse"><stop stop-color="#710FD1"/><stop offset="1" stop-color="#FF3839"/></linearGradient></defs></svg><view id="iconMarkMapPurple" viewBox="0 148.62 44.28 52"/><svg width="44.28" height="52" fill="none" viewBox="-18.12 -18.12 80.25 94.25" y="148.62" xmlns="http://www.w3.org/2000/svg"><path d="M22 13.594c-4.497 0-8.156 3.659-8.156 8.156 0 4.497 3.659 8.156 8.156 8.156 4.498 0 8.156-3.659 8.156-8.156 0-4.497-3.659-8.156-8.156-8.156z" fill="#fff"/><path d="M22.089 0h-.091C10.005 0 .25 9.675.25 21.567c0 6.52 3.36 11.605 7.105 16.67L21.968 58s13.813-18.595 14.677-19.763c3.744-5.064 7.105-10.15 7.105-16.67C43.75 9.706 34.042.048 22.089 0zM22 34.754c-7.333 0-13.298-5.915-13.298-13.187 0-7.27 5.965-13.186 13.298-13.186s13.298 5.915 13.298 13.186S29.333 34.754 22 34.754z" fill="url(#atpaint0_linear)"/><defs><linearGradient id="atpaint0_linear" x1=".073" y1="57.481" x2="48.351" y2="10.324" gradientUnits="userSpaceOnUse"><stop stop-color="#710FD1"/><stop offset="1" stop-color="#FF3839"/></linearGradient></defs></svg><view id="iconMarker" viewBox="296 147 49 41"/><svg width="49" height="41" fill="none" viewBox="-10 -10 49 41" x="296" y="147" xmlns="http://www.w3.org/2000/svg"><path d="M28.177.419a1.43 1.43 0 00-2.022 0L9.005 17.496a.014.014 0 01-.02 0L2.44 10.964a1.43 1.43 0 00-2.022 2.022l7.595 7.595a1.43 1.43 0 002.022 0l18.14-18.14a1.43 1.43 0 000-2.022z" fill="url(#aupaint0_linear)"/><defs><linearGradient id="aupaint0_linear" x1="-.511" y1="20.611" x2="17.451" y2="-7.219" gradientUnits="userSpaceOnUse"><stop stop-color="#710FD1"/><stop offset="1" stop-color="#FF3839"/></linearGradient></defs></svg><view id="iconPatent" viewBox="44.28 148.62 49.41 52"/><svg width="49.41" height="52" fill="none" viewBox="-11.56 -11.56 57.13 60.13" x="44.28" y="148.62" xmlns="http://www.w3.org/2000/svg"><path d="M33.202 10.623a1.178 1.178 0 00-.257-.385l-9.51-9.51c-.11-.11-.24-.198-.385-.257a1.187 1.187 0 00-.457-.093H7.136a2.382 2.382 0 00-2.378 2.378v10.701a1.19 1.19 0 002.378 0v-10.7h14.268V9.89a2.382 2.382 0 002.378 2.378h7.134v19.025H16.648a1.19 1.19 0 000 2.378h14.268a2.382 2.382 0 002.378-2.378V11.079c0-.159-.033-.314-.092-.456zm-9.42-.733V4.437l5.453 5.453h-5.453z" fill="#fff"/><path d="M11.859 34.572l-1.822-7.308a5.921 5.921 0 001.855-4.294 5.953 5.953 0 00-5.945-5.946A5.953 5.953 0 00.002 22.97c0 1.691.718 3.21 1.855 4.295L.034 34.572c-.112.45.05.925.411 1.215.362.293.861.343 1.275.136l4.226-2.112 4.223 2.112a1.19 1.19 0 001.688-1.35zm-5.382-3.153a1.194 1.194 0 00-1.063 0L2.967 32.64l1.018-4.085c.618.218 1.272.359 1.962.359s1.343-.14 1.96-.36l1.017 4.086-2.447-1.222zm-.53-4.882A3.571 3.571 0 012.38 22.97c0-1.967 1.6-3.567 3.567-3.567 1.966 0 3.567 1.6 3.567 3.567 0 1.966-1.6 3.567-3.567 3.567zM17.837 7.512h-7.134a1.19 1.19 0 000 2.378h7.134a1.19 1.19 0 000-2.378zM27.35 14.646H13.082a1.19 1.19 0 000 2.378H27.35a1.19 1.19 0 000-2.378zM27.349 21.78h-11.89a1.19 1.19 0 000 2.379h11.89a1.19 1.19 0 000-2.378z" fill="#fff"/></svg><view id="iconPhoneGray" viewBox="203 97 37 45"/><svg width="37" height="45" fill="none" viewBox="-10 -10 37 45" x="203" y="97" xmlns="http://www.w3.org/2000/svg"><path d="M14.209 0H2.923C1.713 0 .728.984.728 2.195v20.064c0 1.21.985 2.194 2.195 2.194h11.286c1.21 0 2.194-.984 2.194-2.194V2.195C16.403.985 15.42 0 14.21 0zm.313 22.259c0 .173-.14.313-.313.313H2.923a.314.314 0 01-.314-.313v-4.076h11.913v4.076zm0-5.957H2.61V5.643h11.913v10.66zm0-12.54H2.61V2.195c0-.173.14-.314.314-.314h11.286c.173 0 .313.14.313.314v1.567z" fill="#BCBCBC"/><path d="M8.566 21.632a1.254 1.254 0 100-2.508 1.254 1.254 0 000 2.508z" fill="#BCBCBC"/></svg><view id="iconPhoneGray2" viewBox="93.69 148.62 41 52"/><svg width="41" height="52" fill="none" viewBox="-10 -10 41 52" x="93.69" y="148.62" xmlns="http://www.w3.org/2000/svg"><path fill-rule="evenodd" clip-rule="evenodd" d="M2.847 0h14.64a2.85 2.85 0 012.847 2.847v26.028a2.85 2.85 0 01-2.846 2.847H2.847A2.85 2.85 0 010 28.875V2.847A2.85 2.85 0 012.847 0zm14.64 29.282a.407.407 0 00.407-.407v-5.287H2.44v5.287c0 .224.183.407.407.407h14.64zM2.44 21.148h15.454V7.32H2.44v13.828zm0-16.268h15.454V2.847a.407.407 0 00-.406-.407H2.847a.407.407 0 00-.407.407V4.88zm9.354 21.555a1.627 1.627 0 11-3.254 0 1.627 1.627 0 013.254 0z" fill="#B2B2B2" fill-opacity=".3"/></svg><view id="iconPhonePurple" viewBox="134.69 148.62 52 52"/><svg width="52" height="52" fill="none" viewBox="-11.25 -11.25 58.5 58.5" x="134.69" y="148.62" xmlns="http://www.w3.org/2000/svg"><path d="M31.848 36h-.236C4.415 34.435.553 11.479.013 4.472A4.155 4.155 0 013.833 0h7.627a2.767 2.767 0 012.574 1.745l2.104 5.178a2.77 2.77 0 01-.609 2.99l-2.948 2.978a12.975 12.975 0 0010.491 10.523l3.004-2.977a2.768 2.768 0 013.003-.568l5.218 2.091A2.769 2.769 0 0136 24.535v7.311A4.154 4.154 0 0131.848 36zM4.166 2.77A1.384 1.384 0 002.78 4.153v.11c.637 8.197 4.72 27.582 28.984 28.967a1.386 1.386 0 001.467-1.302v-7.394l-5.218-2.09-3.973 3.946-.664-.083c-12.042-1.51-13.675-13.556-13.675-13.68l-.083-.665 3.93-3.974-2.075-5.22H4.165z" fill="url(#aypaint0_linear)" fill-opacity=".9"/><defs><linearGradient id="aypaint0_linear" x1="0" y1="18" x2="36" y2="18" gradientUnits="userSpaceOnUse"><stop stop-color="#710FD1"/><stop offset="1" stop-color="#FF3839"/></linearGradient></defs></svg><view id="iconPhoneWhite" viewBox="203 0 41 52"/><svg width="41" height="52" fill="none" viewBox="-10 -10 41 52" x="203" xmlns="http://www.w3.org/2000/svg"><path fill-rule="evenodd" clip-rule="evenodd" d="M2.847 0h14.64a2.85 2.85 0 012.847 2.847v26.028a2.85 2.85 0 01-2.846 2.847H2.847A2.85 2.85 0 010 28.875V2.847A2.85 2.85 0 012.847 0zm14.64 29.282a.407.407 0 00.407-.407v-5.287H2.44v5.287c0 .224.183.407.407.407h14.64zM2.44 21.148h15.454V7.32H2.44v13.828zm0-16.268h15.454V2.847a.407.407 0 00-.406-.407H2.847a.407.407 0 00-.407.407V4.88zm9.354 21.555a1.627 1.627 0 11-3.254 0 1.627 1.627 0 013.254 0z" fill="#fff"/></svg><view id="iconPinion" viewBox="244 0 52 52"/><svg width="52" height="52" fill="none" viewBox="-10.62 -10.62 55.25 55.25" x="244" xmlns="http://www.w3.org/2000/svg"><path d="M29.204 18.175a12.533 12.533 0 000-3.09l4.45-2.57-4.85-8.4-4.46 2.574a12.325 12.325 0 00-2.667-1.545V0h-9.7v5.144c-.948.401-1.84.918-2.666 1.545l-4.46-2.575L0 12.515l4.45 2.57a12.543 12.543 0 00.001 3.09l-4.45 2.568 4.85 8.401 4.46-2.575a12.322 12.322 0 002.666 1.546v5.144h9.701v-5.144a12.369 12.369 0 002.666-1.545l4.46 2.575 4.851-8.4-4.451-2.57zm-1.415 7.185l-3.76-2.171-.748.668a9.637 9.637 0 01-3.422 1.983l-.953.314v4.334h-4.158v-4.334l-.952-.314a9.634 9.634 0 01-3.422-1.984l-.748-.668-3.761 2.17-2.079-3.6 3.75-2.164-.205-.982a9.724 9.724 0 010-3.965l.204-.982L3.786 11.5l2.079-3.6 3.76 2.17.748-.667a9.634 9.634 0 013.423-1.984l.952-.313V2.772h4.158v4.334l.953.314a9.637 9.637 0 013.422 1.983l.748.668 3.76-2.17 2.079 3.6-3.749 2.164.204.982a9.773 9.773 0 010 3.966l-.204.982 3.749 2.164-2.08 3.6z" fill="#414141"/><path d="M16.826 10.394a6.244 6.244 0 00-6.236 6.236 6.244 6.244 0 006.236 6.236 6.243 6.243 0 006.236-6.236 6.243 6.243 0 00-6.236-6.236zm0 9.7a3.468 3.468 0 01-3.464-3.464 3.468 3.468 0 013.464-3.465 3.468 3.468 0 013.465 3.465 3.468 3.468 0 01-3.465 3.464z" fill="#414141"/></svg><view id="iconReturnCircle" viewBox="244 52 52 52"/><svg width="52" height="52" fill="none" viewBox="-10 -10 52 52" x="244" y="52" xmlns="http://www.w3.org/2000/svg"><circle cx="16" cy="16" r="14.5" stroke="#414141" stroke-width="3"/><path d="M10.667 16.97A5.333 5.333 0 1016 11.636" stroke="#414141" stroke-width="3"/><path d="M16.485 15.515l-5.818-3.879 5.818-3.878v7.757z" fill="#414141"/></svg><view id="iconRudder" viewBox="296 0 51 50"/><svg width="51" height="50" fill="none" viewBox="-10 -10 51 50" x="296" xmlns="http://www.w3.org/2000/svg"><path d="M15.5 0C6.953 0 0 6.729 0 15s6.953 15 15.5 15C24.046 30 31 23.271 31 15S24.046 0 15.5 0zm-1.292 27.437c-6.093-.589-10.951-5.29-11.56-11.187h7.855c.469 1.753 1.894 3.132 3.705 3.585v7.602zM12.917 15c0-1.379 1.158-2.5 2.583-2.5 1.425 0 2.583 1.121 2.583 2.5s-1.158 2.5-2.583 2.5c-1.425 0-2.583-1.121-2.583-2.5zm3.875 12.437v-7.602c1.81-.453 3.236-1.832 3.705-3.585h7.854c-.607 5.896-5.466 10.598-11.56 11.187zm3.705-13.687C19.92 11.597 17.903 10 15.5 10s-4.42 1.597-4.997 3.75H2.65C3.299 7.443 8.814 2.5 15.5 2.5c6.686 0 12.201 4.943 12.851 11.25h-7.854z" fill="#414141"/></svg><view id="iconSearch" viewBox="203 142 41 41"/><svg width="41" height="41" fill="none" viewBox="-10 -10 41 41" x="203" y="142" xmlns="http://www.w3.org/2000/svg"><path d="M20 20l-4.486-4.494L20 20zM18 9.5a8.5 8.5 0 11-17 0 8.5 8.5 0 0117 0v0z" stroke="url(#bdpaint0_linear)" stroke-width="2" stroke-linecap="round" stroke-linejoin="round"/><mask id="bda" fill="#fff"><path d="M20 20l-4.486-4.494L20 20zL18 9.5a8.5 8.5 0 11-17 0 8.5 8.5 0 0117 0z"/></mask><path d="M1 9.5H0h1zM9.5 1V0v1zm11.208 18.294l-4.486-4.495-1.416 1.413 4.486 4.494 1.416-1.412zm-5.902-3.082l4.486 4.494 1.416-1.412-4.486-4.495-1.416 1.413zM17 9.5a7.5 7.5 0 01-2.197 5.303l1.415 1.415A9.5 9.5 0 0019 9.5h-2zm-2.197 5.303A7.5 7.5 0 019.5 17v2a9.5 9.5 0 006.718-2.782l-1.415-1.415zM9.5 17a7.5 7.5 0 01-5.303-2.197l-1.415 1.415A9.5 9.5 0 009.5 19v-2zm-5.303-2.197A7.5 7.5 0 012 9.5H0a9.5 9.5 0 002.782 6.718l1.415-1.415zM2 9.5a7.5 7.5 0 012.197-5.303L2.782 2.782A9.5 9.5 0 000 9.5h2zm2.197-5.303A7.5 7.5 0 019.5 2V0a9.5 9.5 0 00-6.718 2.782l1.415 1.415zM9.5 2a7.5 7.5 0 015.303 2.197l1.415-1.415A9.5 9.5 0 009.5 0v2zm5.303 2.197A7.5 7.5 0 0117 9.5h2a9.5 9.5 0 00-2.782-6.718l-1.415 1.415z" fill="url(#bdpaint1_linear)" mask="url(#bda)"/><defs><linearGradient id="bdpaint0_linear" x1="10.5" y1="1" x2="10.5" y2="20" gradientUnits="userSpaceOnUse"><stop stop-color="#FF4487"/><stop offset="1" stop-color="#FF5439"/></linearGradient><linearGradient id="bdpaint1_linear" x1="-38.5" y1="15.5" x2="20" y2="10.289" gradientUnits="userSpaceOnUse"><stop stop-color="#700ED2"/><stop offset="1" stop-color="#FF3838"/></linearGradient></defs></svg><view id="iconShield" viewBox="244 104 50 52"/><svg width="50" height="52" fill="none" viewBox="-10 -10 50 52" x="244" y="104" xmlns="http://www.w3.org/2000/svg"><path d="M14.737 30.5c-.548 0-1.669-.358-3.132-1.26-1.398-.863-2.912-2.103-4.213-3.571C3.734 21.539 1.5 15.755 1.5 8.222c0-.22.147-.42.37-.482 5.212-1.446 9.412-3.474 12.534-6.118a.517.517 0 01.666 0c3.121 2.644 7.322 4.672 12.533 6.118.223.062.37.262.37.482 0 7.533-2.233 13.317-5.891 17.447-1.3 1.468-2.815 2.708-4.214 3.57-1.462.903-2.583 1.261-3.131 1.261z" stroke="#414141" stroke-width="3"/><path d="M9.684 15.579l3.92 4.21 7.449-8" stroke="#414141" stroke-width="3"/></svg><view id="iconSpeed" viewBox="0 200.62 52 52"/><svg width="52" height="52" fill="none" viewBox="-10 -10 52 52" y="200.62" xmlns="http://www.w3.org/2000/svg"><path fill-rule="evenodd" clip-rule="evenodd" d="M27.033 4.61c.015.011.03.022.043.036.014.014.026.03.038.045.007.01.014.02.023.029a15.807 15.807 0 014.585 11.14c0 6.678-4.15 12.4-10.002 14.735a15.782 15.782 0 01-5.86 1.126 15.781 15.781 0 01-5.858-1.126C4.15 28.26 0 22.538 0 15.861c0-4.34 1.753-8.277 4.588-11.144a.56.56 0 00.024-.03.397.397 0 01.034-.041c.012-.012.026-.022.039-.032a.53.53 0 00.032-.026A15.805 15.805 0 0115.861 0a15.81 15.81 0 0111.141 4.585l.031.025zM11.896 27.756v.713a13.182 13.182 0 007.93 0v-.713c0-.729-.593-1.321-1.322-1.321h-5.287c-.729 0-1.321.592-1.321 1.321zm6.608-3.965a3.97 3.97 0 013.938 3.515c3.598-2.077 6.137-5.79 6.57-10.123h-1.256a1.322 1.322 0 010-2.644h1.254a13.159 13.159 0 00-2.922-7.037l-.883.882a1.318 1.318 0 01-1.868 0 1.322 1.322 0 010-1.87l.882-.881a13.153 13.153 0 00-7.037-2.923v1.255a1.322 1.322 0 01-2.644 0V2.711a13.154 13.154 0 00-7.036 2.922l.881.882a1.322 1.322 0 01-1.869 1.869l-.881-.882A13.157 13.157 0 002.71 14.54h1.255a1.322 1.322 0 010 2.644H2.711c.432 4.332 2.971 8.046 6.569 10.123a3.969 3.969 0 013.937-3.515h5.287zm2.875-12.5l-1.959 2.105a3.967 3.967 0 01-.609 4.534 3.969 3.969 0 01-5.604.2 3.969 3.969 0 01-.2-5.603 3.967 3.967 0 014.478-.932l1.959-2.105a1.322 1.322 0 011.935 1.801zm-6.438 3.037a1.323 1.323 0 001.935 1.8 1.323 1.323 0 00-1.935-1.8z" fill="#fff"/></svg><view id="iconSpeedometer" viewBox="52 200.62 52 52"/><svg width="52" height="52" fill="none" viewBox="-10 -10 52 52" x="52" y="200.62" xmlns="http://www.w3.org/2000/svg"><path fill-rule="evenodd" clip-rule="evenodd" d="M27.033 4.61c.015.011.03.022.043.036.014.014.026.03.038.045.007.01.014.02.023.029a15.807 15.807 0 014.585 11.14c0 6.678-4.15 12.4-10.002 14.735a15.782 15.782 0 01-5.86 1.126 15.781 15.781 0 01-5.858-1.126C4.15 28.26 0 22.538 0 15.861c0-4.34 1.753-8.277 4.588-11.144a.56.56 0 00.024-.03.397.397 0 01.034-.041c.012-.012.026-.022.039-.032a.53.53 0 00.032-.026A15.805 15.805 0 0115.861 0a15.81 15.81 0 0111.141 4.585l.031.025zM11.896 27.756v.713a13.182 13.182 0 007.93 0v-.713c0-.729-.593-1.321-1.322-1.321h-5.287c-.729 0-1.321.592-1.321 1.321zm6.608-3.965a3.97 3.97 0 013.938 3.515c3.598-2.077 6.137-5.79 6.57-10.123h-1.256a1.322 1.322 0 010-2.644h1.254a13.159 13.159 0 00-2.922-7.037l-.883.882a1.318 1.318 0 01-1.868 0 1.322 1.322 0 010-1.87l.882-.881a13.153 13.153 0 00-7.037-2.923v1.255a1.322 1.322 0 01-2.644 0V2.711a13.154 13.154 0 00-7.036 2.922l.881.882a1.322 1.322 0 01-1.869 1.869l-.881-.882A13.157 13.157 0 002.71 14.54h1.255a1.322 1.322 0 010 2.644H2.711c.432 4.332 2.971 8.046 6.569 10.123a3.969 3.969 0 013.937-3.515h5.287zm2.875-12.5l-1.959 2.105a3.967 3.967 0 01-.609 4.534 3.969 3.969 0 01-5.604.2 3.969 3.969 0 01-.2-5.603 3.967 3.967 0 014.478-.932l1.959-2.105a1.322 1.322 0 011.935 1.801zm-6.438 3.037a1.323 1.323 0 001.935 1.8 1.323 1.323 0 00-1.935-1.8z" fill="#fff"/></svg><view id="iconSpeedometerGray" viewBox="104 200.62 52 52"/><svg width="52" height="52" fill="none" viewBox="-10 -10 52 52" x="104" y="200.62" xmlns="http://www.w3.org/2000/svg"><path fill-rule="evenodd" clip-rule="evenodd" d="M27.033 4.65c.015.012.03.023.043.037.014.014.026.03.038.045a.71.71 0 00.023.03A16.017 16.017 0 0131.722 16a16.021 16.021 0 01-10.16 14.927A15.661 15.661 0 0115.861 32a15.66 15.66 0 01-5.859-1.136A16.02 16.02 0 010 16c0-4.378 1.753-8.35 4.588-11.241l.024-.03c.01-.015.02-.03.034-.042.012-.012.025-.023.039-.033a.527.527 0 00.032-.026C7.584 1.768 11.521 0 15.861 0c4.338 0 8.274 1.768 11.141 4.625.01.01.02.017.031.025zM11.896 28v.719a13.079 13.079 0 007.93 0V28c0-.735-.593-1.333-1.322-1.333h-5.287c-.729 0-1.321.598-1.321 1.333zm6.608-4c2.034 0 3.714 1.553 3.938 3.546a13.352 13.352 0 006.57-10.213h-1.256c-.73 0-1.321-.597-1.321-1.333s.592-1.333 1.321-1.333h1.254a13.336 13.336 0 00-2.922-7.099l-.883.89a1.313 1.313 0 01-1.868 0 1.342 1.342 0 010-1.887l.882-.889a13.093 13.093 0 00-7.037-2.948V4c0 .736-.592 1.333-1.322 1.333-.73 0-1.322-.597-1.322-1.333V2.735a13.094 13.094 0 00-7.036 2.948l.881.889c.516.52.516 1.365 0 1.885a1.31 1.31 0 01-1.869 0l-.881-.889a13.334 13.334 0 00-2.923 7.099h1.255c.73 0 1.322.597 1.322 1.333s-.592 1.333-1.322 1.333H2.711A13.352 13.352 0 009.28 27.546C9.504 25.553 11.183 24 13.217 24h5.287zm2.875-12.61l-1.959 2.123a4.03 4.03 0 01-.609 4.574 3.945 3.945 0 01-5.604.203 4.029 4.029 0 01-.2-5.653 3.943 3.943 0 014.478-.94l1.959-2.124a1.314 1.314 0 011.868-.067c.534.501.564 1.345.067 1.884zm-6.438 3.063a1.343 1.343 0 00.067 1.885c.534.5 1.372.47 1.868-.068a1.343 1.343 0 00-.067-1.884 1.315 1.315 0 00-1.868.067z" fill="#B2B2B2" fill-opacity=".3"/></svg><view id="iconWheel" viewBox="156 200.62 52 46.95"/><svg width="52" height="46.95" fill="none" viewBox="-11.87 -11.87 61.75 55.75" x="156" y="200.62" xmlns="http://www.w3.org/2000/svg"><path d="M21.24 0H6.64a1.2 1.2 0 000 2.4h6.238a15.918 15.918 0 00-3.521 3H1.2a1.2 1.2 0 000 2.4h6.42a15.702 15.702 0 00-2.18 8c0 3.395 1.077 6.543 2.906 9.12H4.94a1.2 1.2 0 000 2.4h5.5a15.902 15.902 0 002.437 1.88H1.324a1.2 1.2 0 000 2.4H21.24c8.712 0 15.8-7.088 15.8-15.8S29.952 0 21.24 0zm0 29.2c-7.388 0-13.4-6.011-13.4-13.4s6.011-13.4 13.4-13.4 13.4 6.011 13.4 13.4-6.011 13.4-13.4 13.4z" fill="#414141"/><path d="M21.24 5.998c-5.405 0-9.802 4.397-9.802 9.802a9.794 9.794 0 003.973 7.875 1.213 1.213 0 00.15.11 9.75 9.75 0 005.68 1.817 9.749 9.749 0 005.679-1.818c.027-.017.055-.035.082-.054l.067-.055a9.794 9.794 0 003.973-7.875c0-5.405-4.397-9.802-9.802-9.802zm1.2 2.498a7.423 7.423 0 015.375 3.906l-3.108 1.01a4.228 4.228 0 00-2.267-1.65V8.497zm.612 7.304c0 .999-.813 1.811-1.812 1.811-.999 0-1.812-.812-1.812-1.811 0-1 .813-1.812 1.812-1.812 1 0 1.812.813 1.812 1.812zM20.04 8.496v3.267a4.228 4.228 0 00-2.267 1.648l-3.107-1.01a7.423 7.423 0 015.374-3.905zM15.978 21a7.378 7.378 0 01-2.056-6.316l3.109 1.01c-.001.035-.003.07-.003.106 0 .962.325 1.848.87 2.558L15.978 21zm5.262 2.201a7.355 7.355 0 01-3.322-.788l1.92-2.642a4.192 4.192 0 002.804 0l1.92 2.642c-1 .504-2.128.788-3.322.788zm5.262-2.2l-1.92-2.643a4.19 4.19 0 00.87-2.558c0-.036-.002-.07-.003-.106l3.109-1.01A7.378 7.378 0 0126.502 21z" fill="#414141"/></svg><view id="iconYoutubeGray" viewBox="52 52 42 36"/><svg width="42" height="36" fill="none" viewBox="-10 -10 42 36" x="52" y="52" xmlns="http://www.w3.org/2000/svg"><path d="M21.548 2.974a2.725 2.725 0 00-1.911-1.935C17.951.582 11.191.582 11.191.582s-6.76 0-8.446.457A2.725 2.725 0 00.834 2.974C.382 4.681.382 8.243.382 8.243s0 3.561.452 5.268a2.684 2.684 0 001.91 1.904c1.687.458 8.447.458 8.447.458s6.76 0 8.446-.458a2.684 2.684 0 001.911-1.904C22 11.804 22 8.243 22 8.243s0-3.562-.452-5.269zM8.98 11.476V5.01l5.65 3.234-5.65 3.233z" fill="#B2B2B2"/></svg><view id="iconYoutubeWhite" viewBox="156 104 44 38"/><svg width="44" height="38" fill="none" viewBox="-10 -10 44 38" x="156" y="104" xmlns="http://www.w3.org/2000/svg"><path d="M23.51 3.303a2.95 2.95 0 00-2.069-2.095C19.616.713 12.297.713 12.297.713s-7.32 0-9.145.495a2.95 2.95 0 00-2.07 2.095C.595 5.151.595 9.007.595 9.007s0 3.856.489 5.704a2.906 2.906 0 002.07 2.062c1.825.495 9.144.495 9.144.495s7.32 0 9.144-.495a2.906 2.906 0 002.07-2.062C24 12.863 24 9.007 24 9.007s0-3.856-.49-5.704zM9.904 12.508V5.506l6.117 3.501-6.117 3.501z" fill="#fff"/></svg></svg>