<svg width="33" height="33" viewBox="0 0 33 33" fill="none" xmlns="http://www.w3.org/2000/svg">
<path d="M17.7423 12.8535C17.1213 12.8535 16.6797 13.1157 16.6797 13.5021V18.7596C16.6797 19.0907 17.1213 19.4219 17.7423 19.4219C18.3356 19.4219 18.8186 19.0907 18.8186 18.7596V13.5021C18.8186 13.1157 18.3356 12.8535 17.7423 12.8535Z" fill="#BCBCBC"/>
<path d="M17.7424 9.6106C17.1076 9.6106 16.6109 10.066 16.6109 10.5903C16.6109 11.1147 17.1076 11.5839 17.7424 11.5839C18.3634 11.5839 18.8602 11.1147 18.8602 10.5903C18.8602 10.066 18.3633 9.6106 17.7424 9.6106Z" fill="#BCBCBC"/>
<path d="M25.3185 7.62984C21.1388 3.41255 14.3459 3.38038 10.1313 7.55739C6.68985 10.9681 6.0779 16.066 8.13501 20.0827L7.29706 24.3526C7.23473 24.6703 7.33387 24.9982 7.56175 25.2281C7.78964 25.458 8.11664 25.5601 8.43483 25.5006L12.7121 24.701C16.712 26.7949 21.8148 26.2263 25.2548 22.8171C29.4721 18.6374 29.4954 11.8444 25.3185 7.62984ZM13.3574 22.8283C13.1566 22.7142 12.922 22.6748 12.695 22.7172L9.49086 23.3162L10.1185 20.1176C10.1629 19.891 10.1257 19.656 10.0133 19.4543C8.16331 16.1333 8.61694 11.8081 11.5062 8.94463C14.9459 5.53555 20.5198 5.56254 23.9312 9.00471C27.3427 12.4469 27.3197 18.0208 23.8799 21.4298C20.9878 24.2961 16.6579 24.706 13.3574 22.8283Z" fill="#BCBCBC"/>
</svg>
