<svg width="44" height="39" viewBox="0 0 44 39" fill="none" xmlns="http://www.w3.org/2000/svg">
<path fill-rule="evenodd" clip-rule="evenodd" d="M38 3H6C4.34315 3 3 4.34315 3 6V22H41V6C41 4.34315 39.6569 3 38 3ZM3 26V25H41V26C41 27.6569 39.6569 29 38 29H6C4.34315 29 3 27.6569 3 26ZM6 0C2.68629 0 0 2.68629 0 6V26C0 29.3137 2.68629 32 6 32H16V36H13.5C12.6716 36 12 36.6716 12 37.5C12 38.3284 12.6716 39 13.5 39H30.5C31.3284 39 32 38.3284 32 37.5C32 36.6716 31.3284 36 30.5 36H28V32H38C41.3137 32 44 29.3137 44 26V6C44 2.68629 41.3137 0 38 0H6ZM25 32H19V36H25V32Z" fill="white" fill-opacity="0.9"/>
</svg>
