<svg width="17" height="25" viewBox="0 0 17 25" fill="none" xmlns="http://www.w3.org/2000/svg">
<path d="M14.2089 0H2.9227C1.71264 0 0.728149 0.984488 0.728149 2.19455V22.2589C0.728149 23.469 1.71264 24.4534 2.9227 24.4534H14.2089C15.419 24.4534 16.4034 23.469 16.4034 22.2589V2.19455C16.4034 0.984488 15.419 0 14.2089 0ZM14.5224 22.2588C14.5224 22.4317 14.3817 22.5723 14.2089 22.5723H2.9227C2.74985 22.5723 2.6092 22.4317 2.6092 22.2588V18.1833H14.5224V22.2588ZM14.5224 16.3022H2.6092V5.64305H14.5224V16.3022ZM14.5224 3.76205H2.6092V2.19455C2.6092 2.0217 2.74985 1.88105 2.9227 1.88105H14.2089C14.3817 1.88105 14.5224 2.0217 14.5224 2.19455V3.76205Z" fill="#BCBCBC"/>
<path d="M8.56571 21.6319C9.25827 21.6319 9.81971 21.0705 9.81971 20.3779C9.81971 19.6853 9.25827 19.1239 8.56571 19.1239C7.87314 19.1239 7.31171 19.6853 7.31171 20.3779C7.31171 21.0705 7.87314 21.6319 8.56571 21.6319Z" fill="#BCBCBC"/>
</svg>
