<svg width="40" height="32" viewBox="0 0 40 32" fill="none" xmlns="http://www.w3.org/2000/svg">
<path d="M5.53714 31C4.02632 28.6447 2.37078 24.76 2.04825 20.5117C1.70789 16.0285 2.84891 11.1885 7.17525 7.23836C18.1564 -2.78794 32.3362 2.0151 36.5757 12.3785C40.2626 21.3909 36.8426 28.4573 34.5702 31H5.53714Z" stroke="white" stroke-width="2"/>
<path d="M24.2387 20.1058C24.2387 22.3954 22.3678 24.2633 20.0451 24.2633C17.7225 24.2633 15.8516 22.3954 15.8516 20.1058C15.8516 17.8162 17.7225 15.9482 20.0451 15.9482C22.3678 15.9482 24.2387 17.8162 24.2387 20.1058Z" stroke="#353535" stroke-width="2"/>
<rect width="2.5878" height="9.65648" rx="1.2939" transform="matrix(0.709565 0.70464 -0.709565 0.70464 28.624 9.4209)" fill="#353535"/>
</svg>
