<svg width="42" height="61" viewBox="0 0 42 61" fill="none" xmlns="http://www.w3.org/2000/svg">
<mask id="path-1-inside-1_820:947" fill="white">
<path fill-rule="evenodd" clip-rule="evenodd" d="M1.71286 9.48901C1.98492 4.17172 6.37554 0 11.6998 0H30.1742C35.538 0 39.9465 4.23176 40.1659 9.59102L41.5255 42.8076C41.7579 48.4862 37.2171 53.2166 31.5339 53.2166H26.5309C26.6835 53.752 26.7487 54.323 26.7104 54.9124L26.6529 55.7976C26.482 58.4276 24.299 60.4734 21.6634 60.4734H18.7598C16.1553 60.4734 13.9871 58.4741 13.7762 55.8782L13.7043 54.9929C13.6542 54.3754 13.7181 53.7767 13.8778 53.2166H10.0003C4.27672 53.2166 -0.279128 48.4217 0.0133343 42.7056L1.71286 9.48901ZM33.1255 7.86157H7.75025V45.9598H33.1255V7.86157Z"/>
</mask>
<path d="M1.71286 9.48901L3.2109 9.56566L1.71286 9.48901ZM40.1659 9.59102L38.6671 9.65237L40.1659 9.59102ZM41.5255 42.8076L43.0242 42.7463L41.5255 42.8076ZM26.5309 53.2166V51.7166H24.5436L25.0884 53.6278L26.5309 53.2166ZM26.7104 54.9124L28.2072 55.0096V55.0096L26.7104 54.9124ZM26.6529 55.7976L25.156 55.7003L26.6529 55.7976ZM13.7762 55.8782L12.2812 55.9996L13.7762 55.8782ZM13.7043 54.9929L12.2093 55.1144H12.2093L13.7043 54.9929ZM13.8778 53.2166L15.3203 53.628L15.8654 51.7166H13.8778V53.2166ZM0.0133343 42.7056L-1.48471 42.629L0.0133343 42.7056ZM7.75025 7.86157V6.36157H6.25025V7.86157H7.75025ZM33.1255 7.86157H34.6255V6.36157H33.1255V7.86157ZM7.75025 45.9598H6.25025V47.4598H7.75025V45.9598ZM33.1255 45.9598V47.4598H34.6255V45.9598H33.1255ZM11.6998 -1.5C5.57691 -1.5 0.527685 3.29748 0.214818 9.41237L3.2109 9.56566C3.44215 5.04596 7.17418 1.5 11.6998 1.5V-1.5ZM30.1742 -1.5H11.6998V1.5H30.1742V-1.5ZM41.6646 9.52968C41.4123 3.36652 36.3426 -1.5 30.1742 -1.5V1.5C34.7334 1.5 38.4807 5.09699 38.6671 9.65237L41.6646 9.52968ZM43.0242 42.7463L41.6646 9.52968L38.6671 9.65237L40.0267 42.869L43.0242 42.7463ZM31.5339 54.7166C38.0696 54.7166 43.2915 49.2766 43.0242 42.7463L40.0267 42.869C40.2243 47.6957 36.3647 51.7166 31.5339 51.7166V54.7166ZM26.5309 54.7166H31.5339V51.7166H26.5309V54.7166ZM28.2072 55.0096C28.2568 54.2466 28.1725 53.5038 27.9735 52.8054L25.0884 53.6278C25.1945 54.0003 25.2406 54.3993 25.2136 54.8151L28.2072 55.0096ZM28.1497 55.8948L28.2072 55.0096L25.2136 54.8151L25.156 55.7003L28.1497 55.8948ZM21.6634 61.9734C25.0896 61.9734 27.9276 59.3139 28.1497 55.8948L25.156 55.7003C25.0364 57.5414 23.5083 58.9734 21.6634 58.9734V61.9734ZM18.7598 61.9734H21.6634V58.9734H18.7598V61.9734ZM12.2812 55.9996C12.5552 59.3743 15.374 61.9734 18.7598 61.9734V58.9734C16.9367 58.9734 15.4189 57.5739 15.2713 55.7567L12.2812 55.9996ZM12.2093 55.1144L12.2812 55.9996L15.2713 55.7567L15.1994 54.8715L12.2093 55.1144ZM12.4353 52.8053C12.227 53.5359 12.1444 54.315 12.2093 55.1144L15.1994 54.8715C15.164 54.4358 15.2092 54.0175 15.3203 53.628L12.4353 52.8053ZM10.0003 54.7166H13.8778V51.7166H10.0003V54.7166ZM-1.48471 42.629C-1.82104 49.2025 3.41819 54.7166 10.0003 54.7166V51.7166C5.13526 51.7166 1.26278 47.6409 1.51137 42.7823L-1.48471 42.629ZM0.214818 9.41237L-1.48471 42.629L1.51137 42.7823L3.2109 9.56566L0.214818 9.41237ZM7.75025 9.36156H33.1255V6.36157H7.75025V9.36156ZM9.25025 45.9598V7.86157H6.25025V45.9598H9.25025ZM33.1255 44.4598H7.75025V47.4598H33.1255V44.4598ZM31.6255 7.86157V45.9598H34.6255V7.86157H31.6255Z" fill="white" mask="url(#path-1-inside-1_820:947)"/>
<path d="M22.6632 20.8921C22.6634 21.0016 22.6378 21.1077 22.5909 21.1919C22.5645 21.2394 22.5321 21.2786 22.4956 21.3074C22.459 21.3361 22.419 21.3538 22.3778 21.3595C22.3366 21.3651 22.2951 21.3586 22.2556 21.3403C22.2162 21.322 22.1795 21.2923 22.1477 21.2529L20.463 19.1538L18.7752 21.1779C18.743 21.2168 18.706 21.2459 18.6663 21.2634C18.6266 21.281 18.585 21.2866 18.5438 21.2801C18.5026 21.2736 18.4627 21.255 18.4263 21.2254C18.39 21.1958 18.3579 21.1557 18.332 21.1076C18.3034 21.0591 18.2818 21.0024 18.2686 20.9409C18.2554 20.8794 18.2509 20.8144 18.2553 20.7502C18.2597 20.686 18.273 20.6238 18.2943 20.5676C18.3156 20.5114 18.3445 20.4623 18.3791 20.4235L20.265 18.1605C20.3213 18.0915 20.3918 18.0539 20.4646 18.0539C20.5374 18.0539 20.6079 18.0915 20.6642 18.1605L22.5501 20.5032C22.5881 20.5502 22.6182 20.6099 22.6378 20.6775C22.6575 20.745 22.6662 20.8186 22.6632 20.8921Z" fill="white"/>
<path d="M22.6632 33.8804C22.6634 33.7892 22.6378 33.7008 22.5909 33.6305C22.5645 33.591 22.5321 33.5583 22.4956 33.5343C22.459 33.5104 22.419 33.4956 22.3778 33.4909C22.3366 33.4862 22.2951 33.4916 22.2556 33.5069C22.2162 33.5221 22.1795 33.5469 22.1477 33.5797L20.463 35.329L18.7752 33.6422C18.743 33.6098 18.706 33.5856 18.6663 33.571C18.6266 33.5563 18.585 33.5516 18.5438 33.5571C18.5026 33.5625 18.4627 33.578 18.4263 33.6027C18.39 33.6273 18.3579 33.6607 18.332 33.7008C18.3034 33.7412 18.2818 33.7885 18.2686 33.8398C18.2554 33.891 18.2509 33.9451 18.2553 33.9986C18.2597 34.0521 18.273 34.104 18.2943 34.1508C18.3156 34.1977 18.3445 34.2385 18.3791 34.2709L20.265 36.1568C20.3213 36.2142 20.3918 36.2456 20.4646 36.2456C20.5374 36.2456 20.6079 36.2142 20.6642 36.1568L22.5501 34.2045C22.5881 34.1653 22.6182 34.1156 22.6378 34.0592C22.6575 34.0029 22.6662 33.9417 22.6632 33.8804Z" fill="white"/>
<circle cx="20.4584" cy="19.7077" r="5.56391" stroke="white"/>
<circle cx="20.4584" cy="34.5919" r="5.56391" stroke="white"/>
</svg>
