<svg width="36" height="34" viewBox="0 0 36 34" fill="none" xmlns="http://www.w3.org/2000/svg">
<path d="M32.0478 23.9491C31.4085 23.878 30.0407 23.2805 28.8512 22.4573C26.0808 20.5401 22.4581 18.8926 17.7698 21.3917C14.5728 23.0958 8.81935 30.9814 5.40967 29.7028" stroke="#353535" stroke-width="2" stroke-linecap="round"/>
<path d="M13.9338 24.5885C15.2125 22.9547 17.4732 20.5395 19.4746 14.7856C21.1794 9.88422 23.5461 8.30476 26.0808 7.96628C29.2774 7.53942 30.6271 8.96077 32.2609 10.0973" stroke="#353535" stroke-width="2" stroke-linecap="round"/>
<path d="M4.34418 3.91797V32.2609M2.21313 29.7037H33.5396" stroke="#353535" stroke-width="2" stroke-linecap="round"/>
<path fill-rule="evenodd" clip-rule="evenodd" d="M8.81936 17.5566C8.81936 17.0859 9.201 16.7042 9.67178 16.7042H11.8028C12.2736 16.7042 12.6552 17.0859 12.6552 17.5566C12.6552 18.0274 12.2736 18.4091 11.8028 18.4091H9.67178C9.201 18.4091 8.81936 18.0274 8.81936 17.5566ZM2 17.557C2 17.0862 2.38164 16.7046 2.85242 16.7046H4.98347C5.45425 16.7046 5.83589 17.0862 5.83589 17.557C5.83589 18.0277 5.45425 18.4094 4.98347 18.4094H2.85242C2.38164 18.4094 2 18.0277 2 17.557ZM16.4911 16.7042C16.0204 16.7042 15.6387 17.0859 15.6387 17.5566C15.6387 18.0274 16.0204 18.4091 16.4911 18.4091H18.6222C19.093 18.4091 19.4746 18.0274 19.4746 17.5566C19.4746 17.0859 19.093 16.7042 18.6222 16.7042H16.4911ZM22.4581 17.5566C22.4581 17.0859 22.8397 16.7042 23.3105 16.7042H25.4415C25.9123 16.7042 26.294 17.0859 26.294 17.5566C26.294 18.0274 25.9123 18.4091 25.4415 18.4091H23.3105C22.8397 18.4091 22.4581 18.0274 22.4581 17.5566ZM30.1298 16.7042C29.6591 16.7042 29.2774 17.0859 29.2774 17.5566C29.2774 18.0274 29.6591 18.4091 30.1298 18.4091H32.2609C32.7317 18.4091 33.1133 18.0274 33.1133 17.5566C33.1133 17.0859 32.7317 16.7042 32.2609 16.7042H30.1298Z" fill="#353535"/>
<path d="M6.26866 4.33767L5.88833 3.87567C5.0883 2.90384 3.60017 2.90384 2.80015 3.87567L2.41981 4.33767" stroke="#353535" stroke-width="2" stroke-linecap="round" stroke-linejoin="round"/>
<path d="M31.8413 31.628L32.3033 31.2477C33.2751 30.4477 33.2751 28.9595 32.3033 28.1595L31.8413 27.7792" stroke="#353535" stroke-width="2" stroke-linecap="round" stroke-linejoin="round"/>
</svg>
