<svg width="20" height="25" viewBox="0 0 20 25" fill="none" xmlns="http://www.w3.org/2000/svg">
<path d="M9.88255 5.30284C7.35737 5.30284 5.30295 7.35726 5.30295 9.88244C5.30295 12.4076 7.35737 14.462 9.88255 14.462C12.4077 14.462 14.4622 12.4076 14.4622 9.88244C14.4622 7.35726 12.4078 5.30284 9.88255 5.30284ZM9.88255 12.5338C8.42059 12.5338 7.23119 11.3444 7.23119 9.88244C7.23119 8.42048 8.42059 7.23108 9.88255 7.23108C11.3445 7.23108 12.5339 8.42048 12.5339 9.88244C12.5339 11.3444 11.3445 12.5338 9.88255 12.5338Z" fill="#BCBCBC"/>
<path d="M9.88234 0C4.43319 0 0 4.43324 0 9.88234V10.1555C0 12.9114 1.58 16.1228 4.69625 19.7005C6.95529 22.2941 9.18277 24.1026 9.27644 24.1783L9.88234 24.6679L10.4882 24.1784C10.582 24.1026 12.8094 22.2942 15.0684 19.7006C18.1846 16.1228 19.7647 12.9114 19.7647 10.1556V9.88239C19.7647 4.43324 15.3315 0 9.88234 0ZM17.8364 10.1556C17.8364 14.8128 11.8356 20.4506 9.88234 22.162C7.92852 20.45 1.92824 14.8125 1.92824 10.1556V9.88239C1.92824 5.49651 5.49646 1.92829 9.88234 1.92829C14.2682 1.92829 17.8364 5.49651 17.8364 9.88239V10.1556Z" fill="#BCBCBC"/>
</svg>
