<svg width="46" height="36" viewBox="0 0 46 36" fill="none" xmlns="http://www.w3.org/2000/svg">
<path d="M5.71167 25.5888V14.1909C5.71167 12.4329 7.13681 11.0077 8.8948 11.0077H10.5252C12.4873 11.0077 14.0779 9.41713 14.0779 7.45503C14.0779 6.59751 14.7731 5.90234 15.6306 5.90234H27.9139C28.7715 5.90234 29.4666 6.59751 29.4666 7.45503C29.4666 9.41713 31.0572 11.0077 33.0193 11.0077H40.2306C42.4398 11.0077 44.2306 12.7986 44.2306 15.0077V20.8862C44.2306 22.6085 42.8344 24.0048 41.1121 24.0048C39.1334 24.0048 37.332 25.1452 36.4855 26.9336L34.1978 31.7672C33.5363 33.1648 32.1285 34.056 30.5823 34.056H19.0729C17.8644 34.056 16.7515 33.3985 16.1684 32.3399C15.2337 30.6429 13.4496 29.5888 11.5122 29.5888H9.71167C7.50253 29.5888 5.71167 27.7979 5.71167 25.5888Z" stroke="white" stroke-width="2"/>
<rect x="13.1953" y="0.19043" width="16.9614" height="2.8269" rx="1.41345" fill="white"/>
<rect x="2.8269" y="12.4409" width="16.9614" height="2.8269" rx="1.41345" transform="rotate(90 2.8269 12.4409)" fill="white"/>
<path d="M22.8503 12.1548V19.9077H15L22.8503 12.1548Z" fill="#353535"/>
<path d="M20.4363 27.6587V19.9057H28.2866L20.4363 27.6587Z" fill="#353535"/>
</svg>
