<svg width="33" height="33" viewBox="0 0 33 33" fill="none" xmlns="http://www.w3.org/2000/svg">
<path d="M27.6678 3.22803H4.3806C3.74388 3.22803 3.22778 3.74413 3.22778 4.38084V27.6681C3.22778 28.3048 3.74388 28.8209 4.3806 28.8209H27.6679C28.3046 28.8209 28.8207 28.3048 28.8207 27.6681V4.38091C28.8207 3.74413 28.3046 3.22803 27.6678 3.22803ZM26.515 26.5153H5.53342V5.53372H26.515V26.5153Z" fill="#414141"/>
<path d="M20.5201 10.4141H11.5665C10.9298 10.4141 10.4137 10.9302 10.4137 11.5669V20.5206C10.4137 21.1573 10.9298 21.6734 11.5665 21.6734H20.5202C21.1574 21.6734 21.673 21.1577 21.673 20.5206V11.5669C21.673 10.9302 21.1569 10.4141 20.5201 10.4141ZM19.3673 19.3678H12.7193V12.7198H19.3673V19.3678Z" fill="#414141"/>
<path d="M11.1438 0C10.5071 0 9.99097 0.516098 9.99097 1.15282V4.38073C9.99097 5.01745 10.5071 5.53355 11.1438 5.53355C11.7805 5.53355 12.2966 5.01745 12.2966 4.38073V1.15282C12.2966 0.516098 11.7805 0 11.1438 0Z" fill="#414141"/>
<path d="M20.9043 0C20.2676 0 19.7515 0.516098 19.7515 1.15282V4.38073C19.7515 5.01745 20.2676 5.53355 20.9043 5.53355C21.5414 5.53355 22.0571 5.01745 22.0571 4.38073V1.15282C22.0572 0.516098 21.5411 0 20.9043 0Z" fill="#414141"/>
<path d="M11.1438 26.5151C10.5071 26.5151 9.99097 27.0312 9.99097 27.668V30.8959C9.99097 31.5326 10.5071 32.0487 11.1438 32.0487C11.7805 32.0487 12.2966 31.533 12.2966 30.8959V27.668C12.2966 27.0312 11.7805 26.5151 11.1438 26.5151Z" fill="#414141"/>
<path d="M20.9043 26.5151C20.2676 26.5151 19.7515 27.0312 19.7515 27.668V30.8959C19.7515 31.5326 20.2676 32.0487 20.9043 32.0487C21.5414 32.0487 22.0571 31.533 22.0571 30.8959V27.668C22.0572 27.0312 21.5411 26.5151 20.9043 26.5151Z" fill="#414141"/>
<path d="M30.8954 9.99121H27.6675C27.0307 9.99121 26.5146 10.5073 26.5146 11.144C26.5146 11.7807 27.0307 12.2968 27.6675 12.2968H30.8954C31.5325 12.2968 32.0482 11.7807 32.0482 11.144C32.0482 10.5073 31.5321 9.99121 30.8954 9.99121Z" fill="#414141"/>
<path d="M30.8954 18.4067H27.6675C27.0307 18.4067 26.5146 18.9228 26.5146 19.5596C26.5146 20.1963 27.0307 20.7124 27.6675 20.7124H30.8954C31.5325 20.7124 32.0482 20.1963 32.0482 19.5596C32.0482 18.9228 31.5321 18.4067 30.8954 18.4067Z" fill="#414141"/>
<path d="M4.38079 9.99121H1.15282C0.516098 9.99121 0 10.5073 0 11.1441C0 11.7809 0.516098 12.2969 1.15282 12.2969H4.38073C5.01745 12.2969 5.53355 11.7808 5.53355 11.1441C5.53355 10.5074 5.01751 9.99121 4.38079 9.99121Z" fill="#414141"/>
<path d="M4.38079 18.4067H1.15282C0.516098 18.4067 0 18.9228 0 19.5596C0 20.1964 0.516098 20.7124 1.15282 20.7124H4.38073C5.01745 20.7124 5.53355 20.1963 5.53355 19.5596C5.53355 18.9229 5.01751 18.4067 4.38079 18.4067Z" fill="#414141"/>
</svg>
