<svg width="55" height="52" viewBox="0 0 55 52" fill="none" xmlns="http://www.w3.org/2000/svg">
<g filter="url(#filter0_d)">
<path d="M6.45941 20.3169C5.6248 16.283 8.70522 12.5 12.8246 12.5H42.1754C46.2948 12.5 49.3752 16.283 48.5406 20.3169L45.8509 33.3169C45.2265 36.3353 42.568 38.5 39.4857 38.5H15.5143C12.432 38.5 9.77355 36.3353 9.14907 33.3169L6.45941 20.3169Z" stroke="black" stroke-width="3"/>
<rect x="13" y="24" width="29" height="3" rx="1.5" fill="black"/>
<circle cx="15.5" cy="19.5" r="1.5" fill="black"/>
<circle cx="21.5" cy="19.5" r="1.5" fill="black"/>
<circle cx="27.5" cy="19.5" r="1.5" fill="black"/>
<circle cx="33.5" cy="19.5" r="1.5" fill="black"/>
<circle cx="39.5" cy="19.5" r="1.5" fill="black"/>
<circle cx="18.5" cy="32.5" r="1.5" fill="black"/>
<circle cx="24.5" cy="32.5" r="1.5" fill="black"/>
<circle cx="30.5" cy="32.5" r="1.5" fill="black"/>
<circle cx="36.5" cy="32.5" r="1.5" fill="black"/>
</g>
<defs>
<filter id="filter0_d" x="-3" y="0" width="60" height="60" filterUnits="userSpaceOnUse" color-interpolation-filters="sRGB">
<feFlood flood-opacity="0" result="BackgroundImageFix"/>
<feColorMatrix in="SourceAlpha" type="matrix" values="0 0 0 0 0 0 0 0 0 0 0 0 0 0 0 0 0 0 127 0" result="hardAlpha"/>
<feOffset dy="4"/>
<feGaussianBlur stdDeviation="2"/>
<feComposite in2="hardAlpha" operator="out"/>
<feColorMatrix type="matrix" values="0 0 0 0 0 0 0 0 0 0 0 0 0 0 0 0 0 0 0.25 0"/>
<feBlend mode="normal" in2="BackgroundImageFix" result="effect1_dropShadow"/>
<feBlend mode="normal" in="SourceGraphic" in2="effect1_dropShadow" result="shape"/>
</filter>
</defs>
</svg>
