<svg width="80" height="81" viewBox="0 0 80 81" fill="none" xmlns="http://www.w3.org/2000/svg">
<path d="M34.9655 41.2573L34.4591 41.8851L29.759 47.7126C29.758 47.7139 29.7571 47.7151 29.7561 47.7164C28.6757 49.0811 27.2706 50.1832 25.6587 50.9386C24.0454 51.6946 22.2673 52.0836 20.4679 52.077C18.6685 52.0704 16.8936 51.6682 15.2866 50.9003C13.6795 50.1323 12.2824 49.0184 11.2132 47.6438C10.1436 46.2688 9.43284 44.6725 9.1445 42.9834C8.85613 41.2941 8.99948 39.5656 9.56145 37.9401C10.1233 36.3149 11.086 34.8431 12.3651 33.641C13.6439 32.4394 15.2034 31.5406 16.9145 31.0125L34.9655 41.2573ZM34.9655 41.2573L34.4591 40.6295M34.9655 41.2573L34.4591 40.6295M34.4591 40.6295L29.7631 34.807C28.7291 33.4396 27.3595 32.3333 25.7766 31.5775C24.1908 30.8204 22.435 30.4361 20.6601 30.4545M34.4591 40.6295L20.6601 30.4545M20.6601 30.4545C19.3885 30.451 18.1238 30.6391 16.9147 31.0125L20.6601 30.4545ZM73.3068 54.0019C71.1328 56.0335 68.4697 57.5623 65.532 58.4588C63.492 59.0737 61.3609 59.3901 59.2151 59.3961C56.1781 59.38 53.1888 58.7077 50.4827 57.4345C47.7759 56.161 45.4292 54.3227 43.6232 52.069C43.6231 52.0688 43.623 52.0687 43.6229 52.0686L40.7206 48.4294L39.9455 47.4574L39.1622 48.4229L36.2084 52.0639L36.2039 52.0695C33.7596 55.1276 30.3353 57.4004 26.4098 58.553C22.4839 59.7056 18.2668 59.6757 14.3605 58.4678C10.4546 57.26 7.06813 54.9393 4.67436 51.8476C2.28152 48.7571 1 45.0516 1 41.2573C1 37.4631 2.28152 33.7576 4.67436 30.6671C7.06813 27.5754 10.4546 25.2546 14.3605 24.0468C18.2668 22.8389 22.4839 22.8091 26.4098 23.9617C30.3353 25.1142 33.7596 27.387 36.2038 30.4451L36.2084 30.4507L39.1622 34.0918L39.9455 35.0572L40.7206 34.0853L43.6244 30.4442L43.6279 30.4397C45.4477 28.1308 47.8315 26.2492 50.5895 24.9534C53.3476 23.6575 56.3986 22.986 59.4932 22.9962C62.5879 23.0065 65.6336 23.6982 68.3816 25.0122C71.1294 26.3261 73.4987 28.2233 75.3007 30.5441C77.1024 32.8644 78.2867 35.5431 78.7631 38.3612C79.2394 41.1789 78.9955 44.0622 78.0497 46.7779C77.1038 49.4941 75.4809 51.9703 73.3068 54.0019ZM45.4152 40.6336L44.9175 41.2573L45.4152 41.881L50.0699 47.7144C50.07 47.7145 50.07 47.7146 50.0701 47.7147C51.5198 49.5392 53.5407 50.8805 55.8378 51.56C58.1348 52.2395 60.6015 52.2263 62.8901 51.522C65.1792 50.8176 67.1838 49.4543 68.6111 47.6137C70.0394 45.7719 70.8145 43.5476 70.8145 41.2573C70.8145 38.967 70.0394 36.7428 68.6111 34.9009C67.1838 33.0603 65.1792 31.697 62.8901 30.9926C60.6015 30.2884 58.1348 30.2751 55.8378 30.9546C53.5405 31.6342 51.5195 32.9756 50.0699 34.8003L45.4152 40.6336Z" stroke="#222222" stroke-width="2"/>
</svg>
