<svg width="78" height="58" viewBox="0 0 78 58" fill="none" xmlns="http://www.w3.org/2000/svg">
<path d="M51.0909 49.4961H63.1818C70.8028 49.4961 77 43.2133 77 35.7639C77 30.8801 74.2741 26.4381 70.0168 24.0672C69.207 15.4899 61.8021 8.74965 52.8182 8.74965C50.2238 8.74965 47.7105 9.3201 45.3997 10.4248C41.5471 5.21124 35.3094 1.99609 28.6364 1.99609C17.2067 1.99609 7.90909 11.0844 7.90909 22.2568C7.90909 22.847 7.93949 23.4438 8.00352 24.0539C3.71919 26.4019 1 30.8074 1 35.7639C1 43.2133 7.19722 49.4961 14.8182 49.4961H26.9091" stroke="#222222" stroke-width="2"/>
<path d="M36.874 56.373H40.6742C41.7244 56.373 42.5742 55.4669 42.5742 54.347V44.0816H45.4244C46.1257 44.0816 46.7696 43.6701 47.1 43.0112C47.4303 42.3523 47.3931 41.553 47.0054 40.9317L40.3551 28.7753C40.0026 28.2114 39.4087 27.873 38.7742 27.873C38.1397 27.873 37.5459 28.2114 37.1934 28.7753L30.5431 40.9317C30.1552 41.553 30.1182 42.3523 30.4485 43.0112C30.7787 43.6701 31.4224 44.0816 32.1238 44.0816H34.9739V54.347C34.9739 55.4669 35.8238 56.373 36.874 56.373Z" stroke="#222222" stroke-width="2"/>
</svg>
