<svg width="44" height="58" viewBox="0 0 44 58" fill="none" xmlns="http://www.w3.org/2000/svg">
<path d="M22.0002 13.5938C17.5028 13.5938 13.8438 17.2528 13.8438 21.7498C13.8438 26.2472 17.5028 29.9062 22.0002 29.9062C26.4976 29.9062 30.1562 26.2472 30.1562 21.7498C30.1562 17.2528 26.4972 13.5938 22.0002 13.5938Z" fill="white"/>
<path d="M22.089 0.000442505L21.9975 0C10.0059 0 0.25 9.67493 0.25 21.5672C0.25 28.0871 3.61071 33.1724 7.35519 38.2364L21.9685 58C21.9685 58 35.7809 39.4051 36.6448 38.2368C40.3893 33.1728 43.75 28.0876 43.75 21.5677C43.75 9.70457 34.0418 0.047348 22.089 0.000442505ZM22.0002 34.7539C14.6674 34.7539 8.70197 28.8385 8.70197 21.5672C8.70197 14.2964 14.6674 8.38104 22.0002 8.38104C29.333 8.38104 35.2985 14.2964 35.2985 21.5672C35.2985 28.8385 29.3326 34.7539 22.0002 34.7539Z" fill="url(#paint0_linear)"/>
<defs>
<linearGradient id="paint0_linear" x1="0.0733451" y1="57.4813" x2="48.351" y2="10.3239" gradientUnits="userSpaceOnUse">
<stop stop-color="#710FD1"/>
<stop offset="1" stop-color="#FF3839"/>
</linearGradient>
</defs>
</svg>
