<svg width="52" height="52" viewBox="0 0 52 52" fill="none" xmlns="http://www.w3.org/2000/svg">
<path d="M44.4074 35.0531C43.5625 34.9593 41.755 34.1696 40.1829 33.0817C36.5217 30.548 31.7339 28.3706 25.5379 31.6734C21.3129 33.9255 15.8561 42.6571 9.20312 42.6571" stroke="black" stroke-width="3" stroke-linecap="round"/>
<path d="M20.4668 35.8993C22.1566 33.7401 25.1444 30.5482 27.7893 22.9441C30.0424 16.4665 33.1701 14.3791 36.52 13.9318C40.7445 13.3677 42.5282 15.2461 44.6874 16.7481" stroke="black" stroke-width="3" stroke-linecap="round"/>
<path d="M7.86322 8.60205V46.0594M5.04688 42.6798H46.4471" stroke="black" stroke-width="3" stroke-linecap="round"/>
<path fill-rule="evenodd" clip-rule="evenodd" d="M13.7786 26.5354C13.7786 25.707 14.4502 25.0354 15.2786 25.0354H17.3481C18.1765 25.0354 18.8481 25.707 18.8481 26.5354C18.8481 27.3638 18.1765 28.0354 17.3481 28.0354H15.2786C14.4502 28.0354 13.7786 27.3638 13.7786 26.5354ZM4.76758 26.5354C4.76758 25.707 5.43915 25.0354 6.26757 25.0354H8.337C9.16542 25.0354 9.837 25.707 9.837 26.5354C9.837 27.3638 9.16543 28.0354 8.337 28.0354H6.26757C5.43915 28.0354 4.76758 27.3638 4.76758 26.5354ZM24.2895 25.0354C23.4611 25.0354 22.7895 25.707 22.7895 26.5354C22.7895 27.3638 23.4611 28.0354 24.2895 28.0354H26.3589C27.1873 28.0354 27.8589 27.3638 27.8589 26.5354C27.8589 25.707 27.1873 25.0354 26.3589 25.0354H24.2895ZM31.806 26.5354C31.806 25.707 32.4776 25.0354 33.306 25.0354H35.3754C36.2038 25.0354 36.8754 25.707 36.8754 26.5354C36.8754 27.3638 36.2038 28.0354 35.3754 28.0354H33.306C32.4776 28.0354 31.806 27.3638 31.806 26.5354ZM42.3168 25.0354C41.4884 25.0354 40.8168 25.707 40.8168 26.5354C40.8168 27.3638 41.4884 28.0354 42.3168 28.0354H44.3863C45.2147 28.0354 45.8863 27.3638 45.8863 26.5354C45.8863 25.707 45.2147 25.0354 44.3863 25.0354H42.3168Z" fill="black"/>
<path d="M10.4085 9.15557L7.86523 6.06616L5.32196 9.15557" stroke="black" stroke-width="3" stroke-linecap="round" stroke-linejoin="round"/>
<path d="M44.2016 45.227L47.291 42.6837L44.2016 40.1404" stroke="black" stroke-width="3" stroke-linecap="round" stroke-linejoin="round"/>
</svg>
