<?xml version="1.0" encoding="utf-8"?><svg width="104" height="104" viewBox="0 0 104 104" xmlns="http://www.w3.org/2000/svg" xmlns:xlink="http://www.w3.org/1999/xlink"><view id="icon-car" viewBox="0 0 52 51.61"/><svg width="52" height="51.61" fill="none" viewBox="-25.62 -25.62 133.25 132.25" xmlns="http://www.w3.org/2000/svg"><path d="M17.861 22.653a11 11 0 018.19-3.657h29.902a11 11 0 018.19 3.657l9.638 10.75a11 11 0 012.76 8.397l-1.4 14.53H6.864l-1.4-14.53a11 11 0 012.76-8.397l9.637-10.75z" stroke="#222" stroke-width="2"/><path d="M21.8 26.996l-3.298 3.665c-.58.643-.122 1.669.743 1.669h43.51c.866 0 1.323-1.026.744-1.67L60.2 26.996M7 56.33h15.334v2.666a4 4 0 01-4 4H11a4 4 0 01-4-4V56.33zM59.666 56.33H75v2.666a4 4 0 01-4 4h-7.334a4 4 0 01-4-4V56.33zM13.562 39.4a1 1 0 011.166-.886l13.686 2.38a1 1 0 01.777.67l.706 2.117a1 1 0 01-.949 1.316H14.107a1 1 0 01-.995-1.1l.45-4.497zM68.442 39.4a1 1 0 00-1.166-.886l-13.686 2.38a1 1 0 00-.777.669l-.706 2.117a1 1 0 00.949 1.316h14.841a1 1 0 00.995-1.1l-.45-4.496z" stroke="#222" stroke-width="2"/><rect x="2.861" y="62.547" width="75.935" height=".744" rx=".372" fill="#fff" stroke="#222" stroke-width=".744"/><path d="M13.667 27.996h-11a1 1 0 00-.883 1.47l1.6 3a1 1 0 00.883.53H9M68.333 27.997h11a1 1 0 01.883 1.47l-1.6 3a1 1 0 01-.883.53H73" stroke="#222" stroke-width="2"/></svg><view id="icon-charts" viewBox="0 51.61 51.6 52"/><svg width="51.6" height="52" fill="none" viewBox="-25.31 -25.31 130.63 131.63" y="51.61" xmlns="http://www.w3.org/2000/svg"><path d="M66.504 54.138c-1.219-.135-3.826-1.274-6.093-2.843-5.28-3.654-12.186-6.795-21.123-2.031-6.093 3.248-13.964 15.842-23.56 15.842" stroke="#222" stroke-width="2" stroke-linecap="round"/><path d="M31.979 55.359c2.437-3.115 6.746-7.718 10.56-18.686 3.25-9.342 7.762-12.353 12.593-12.998 6.093-.814 8.666 1.895 11.78 4.062M13.798 15.988v54.025m-4.062-4.875h59.712" stroke="#222" stroke-width="2" stroke-linecap="round"/><path fill-rule="evenodd" clip-rule="evenodd" d="M9.332 40.69a1 1 0 011-1h5.312a1 1 0 110 2h-5.312a1 1 0 01-1-1zm12.997 0a1 1 0 011-1h5.311a1 1 0 010 2H23.33a1 1 0 01-1-1zm13.997-1a1 1 0 000 2h5.312a1 1 0 000-2h-5.312zm12.003 1a1 1 0 011-1h5.312a1 1 0 010 2h-5.312a1 1 0 01-1-1zm13.997-1a1 1 0 000 2h5.312a1 1 0 000-2h-5.312z" fill="#222"/><path d="M17.469 17.786l-3.668-4.456-3.668 4.456M66.208 68.812l4.456-3.668-4.456-3.668" stroke="#222" stroke-width="2" stroke-linecap="round" stroke-linejoin="round"/></svg><view id="icon-cloud" viewBox="52 0 52 43.79"/><svg width="52" height="43.79" fill="none" viewBox="-24.37 -24.37 126.75 106.75" x="52" xmlns="http://www.w3.org/2000/svg"><path d="M51.09 49.496h12.092c7.62 0 13.818-6.283 13.818-13.732 0-4.884-2.726-9.326-6.983-11.697-.81-8.577-8.215-15.317-17.199-15.317-2.594 0-5.107.57-7.418 1.675-3.853-5.214-10.09-8.429-16.764-8.429-11.43 0-20.727 9.088-20.727 20.26 0 .591.03 1.188.095 1.798C3.719 26.402 1 30.807 1 35.764c0 7.45 6.197 13.732 13.818 13.732H26.91" stroke="#222" stroke-width="2"/><path d="M36.874 56.373h3.8c1.05 0 1.9-.906 1.9-2.026V44.082h2.85c.702 0 1.346-.412 1.676-1.07a2.144 2.144 0 00-.095-2.08l-6.65-12.157a1.872 1.872 0 00-1.58-.902c-.635 0-1.23.338-1.582.902l-6.65 12.157a2.143 2.143 0 00-.095 2.08c.33.658.974 1.07 1.676 1.07h2.85v10.265c0 1.12.85 2.026 1.9 2.026z" stroke="#222" stroke-width="2"/></svg><view id="icon-infinity" viewBox="52 43.79 51.6 52"/><svg width="51.6" height="52" fill="none" viewBox="-25.31 -25.31 130.63 131.63" x="52" y="43.79" xmlns="http://www.w3.org/2000/svg"><path d="M34.965 41.257l-.506.628-4.7 5.828-.003.003a11.367 11.367 0 01-4.097 3.223 12.142 12.142 0 01-5.191 1.138 12.134 12.134 0 01-5.181-1.177 11.348 11.348 0 01-4.074-3.256 10.456 10.456 0 01-2.068-4.66 10.17 10.17 0 01.416-5.044 10.71 10.71 0 012.804-4.299 11.66 11.66 0 014.55-2.628l18.05 10.244zm0 0l-.506-.627m.506.627l-.506-.627m0 0l-4.696-5.823a10.844 10.844 0 00-3.986-3.23 11.611 11.611 0 00-5.117-1.123m13.8 10.175l-13.8-10.174m0 0a12.584 12.584 0 00-3.745.558l3.745-.559zm52.647 23.547c-2.174 2.031-4.837 3.56-7.775 4.457-2.04.615-4.171.931-6.317.937a20.797 20.797 0 01-8.732-1.962c-2.707-1.273-5.054-3.111-6.86-5.365 0 0 0 0 0 0l-2.902-3.64-.775-.972-.784.966-2.954 3.64-.004.006c-2.444 3.059-5.869 5.331-9.794 6.484a20.945 20.945 0 01-12.05-.085c-3.905-1.208-7.292-3.529-9.686-6.62C2.282 48.758 1 45.052 1 41.258c0-3.795 1.282-7.5 3.674-10.59 2.394-3.093 5.78-5.413 9.686-6.621a20.945 20.945 0 0112.05-.085c3.925 1.152 7.35 3.425 9.794 6.483l.004.006 2.954 3.64.784.966.775-.972 2.903-3.64.004-.005c1.82-2.31 4.203-4.19 6.962-5.487a20.805 20.805 0 018.903-1.957c3.095.01 6.14.702 8.889 2.016 2.747 1.314 5.117 3.211 6.919 5.532 1.801 2.32 2.986 5 3.462 7.817a16.95 16.95 0 01-.713 8.417c-.946 2.716-2.57 5.192-4.743 7.224zM45.415 40.634l-.498.623.498.624 4.655 5.833s0 0 0 0c1.45 1.825 3.47 3.166 5.768 3.846a12.24 12.24 0 007.052-.038c2.29-.704 4.294-2.068 5.721-3.908 1.428-1.842 2.203-4.066 2.203-6.357 0-2.29-.775-4.514-2.203-6.356-1.427-1.84-3.432-3.204-5.72-3.908a12.24 12.24 0 00-7.053-.038c-2.297.68-4.319 2.02-5.768 3.845l-4.655 5.834z" stroke="#222" stroke-width="2"/></svg></svg>