<svg width="24" height="18" viewBox="0 0 24 18" fill="none" xmlns="http://www.w3.org/2000/svg">
<path d="M23.5108 3.303C23.2416 2.28337 22.4485 1.48034 21.4414 1.20782C19.6161 0.712616 12.2968 0.712616 12.2968 0.712616C12.2968 0.712616 4.97755 0.712616 3.15219 1.20782C2.14516 1.48038 1.35203 2.28337 1.08284 3.303C0.59375 5.15114 0.59375 9.00712 0.59375 9.00712C0.59375 9.00712 0.59375 12.8631 1.08284 14.7112C1.35203 15.7309 2.14516 16.5005 3.15219 16.773C4.97755 17.2682 12.2968 17.2682 12.2968 17.2682C12.2968 17.2682 19.6161 17.2682 21.4414 16.773C22.4485 16.5005 23.2416 15.7309 23.5108 14.7112C23.9999 12.8631 23.9999 9.00712 23.9999 9.00712C23.9999 9.00712 23.9999 5.15114 23.5108 3.303ZM9.90299 12.5081V5.50618L16.0205 9.00721L9.90299 12.5081Z" fill="white"/>
</svg>
