<svg width="21" height="21" viewBox="0 0 21 21" fill="none" xmlns="http://www.w3.org/2000/svg">
<path d="M20 20L15.514 15.506L20 20ZM18 9.5C18 11.7543 17.1045 13.9163 15.5104 15.5104C13.9163 17.1045 11.7543 18 9.5 18C7.24566 18 5.08365 17.1045 3.48959 15.5104C1.89553 13.9163 1 11.7543 1 9.5C1 7.24566 1.89553 5.08365 3.48959 3.48959C5.08365 1.89553 7.24566 1 9.5 1C11.7543 1 13.9163 1.89553 15.5104 3.48959C17.1045 5.08365 18 7.24566 18 9.5V9.5Z" stroke="url(#paint0_linear)" stroke-width="2" stroke-linecap="round" stroke-linejoin="round"/>
<mask id="path-2-inside-1" fill="white">
<path d="M20 20L15.514 15.506L20 20ZM-nan -nanL18 9.5C18 11.7543 17.1045 13.9163 15.5104 15.5104C13.9163 17.1045 11.7543 18 9.5 18C7.24566 18 5.08365 17.1045 3.48959 15.5104C1.89553 13.9163 1 11.7543 1 9.5C1 7.24566 1.89553 5.08365 3.48959 3.48959C5.08365 1.89553 7.24566 1 9.5 1C11.7543 1 13.9163 1.89553 15.5104 3.48959C17.1045 5.08365 18 7.24566 18 9.5L-nan -nanZ"/>
</mask>
<path d="M1 9.5H0H1ZM9.5 1V0V1ZM20.7077 19.2935L16.2217 14.7995L14.8063 16.2125L19.2923 20.7065L20.7077 19.2935ZM14.8063 16.2125L19.2923 20.7065L20.7077 19.2935L16.2217 14.7995L14.8063 16.2125ZM17 9.5C17 11.4891 16.2098 13.3968 14.8033 14.8033L16.2175 16.2175C17.9991 14.4359 19 12.0196 19 9.5H17ZM14.8033 14.8033C13.3968 16.2098 11.4891 17 9.5 17V19C12.0196 19 14.4359 17.9991 16.2175 16.2175L14.8033 14.8033ZM9.5 17C7.51088 17 5.60322 16.2098 4.1967 14.8033L2.78249 16.2175C4.56408 17.9991 6.98044 19 9.5 19V17ZM4.1967 14.8033C2.79018 13.3968 2 11.4891 2 9.5H0C0 12.0196 1.00089 14.4359 2.78249 16.2175L4.1967 14.8033ZM2 9.5C2 7.51088 2.79018 5.60322 4.1967 4.1967L2.78249 2.78249C1.00089 4.56408 0 6.98044 0 9.5H2ZM4.1967 4.1967C5.60322 2.79018 7.51088 2 9.5 2V0C6.98044 0 4.56408 1.00089 2.78249 2.78249L4.1967 4.1967ZM9.5 2C11.4891 2 13.3968 2.79018 14.8033 4.1967L16.2175 2.78249C14.4359 1.00089 12.0196 0 9.5 0V2ZM14.8033 4.1967C16.2098 5.60322 17 7.51088 17 9.5H19C19 6.98044 17.9991 4.56408 16.2175 2.78249L14.8033 4.1967Z" fill="url(#paint1_linear)" mask="url(#path-2-inside-1)"/>
<defs>
<linearGradient id="paint0_linear" x1="10.5" y1="1" x2="10.5" y2="20" gradientUnits="userSpaceOnUse">
<stop stop-color="#FF4487"/>
<stop offset="1" stop-color="#FF5439"/>
</linearGradient>
<linearGradient id="paint1_linear" x1="-38.5" y1="15.5" x2="20" y2="10.2889" gradientUnits="userSpaceOnUse">
<stop stop-color="#700ED2"/>
<stop offset="1" stop-color="#FF3838"/>
</linearGradient>
</defs>
</svg>
