<svg width="32" height="32" viewBox="0 0 32 32" fill="none" xmlns="http://www.w3.org/2000/svg">
<path fill-rule="evenodd" clip-rule="evenodd" d="M29.3333 14.3833C29.3333 20.8543 23.6623 26.1 16.6667 26.1C15.424 26.1 14.2232 25.9345 13.0885 25.626C10.4234 27.3847 7.05047 27.8405 5.47997 27.9587C5.19397 27.9802 5.05111 27.6079 5.25126 27.4025C6.04426 26.5885 7.32984 24.9682 7.74117 22.697C5.43063 20.5745 4 17.6334 4 14.3833C4 7.91239 9.67106 2.66666 16.6667 2.66666C23.6623 2.66666 29.3333 7.91239 29.3333 14.3833Z" fill="url(#paint0_linear)"/>
<rect x="6" y="11" width="20" height="8" fill="white"/>
<path d="M16 2C8.28043 2 2.00004 7.73726 2.00004 14.7895C2.00004 14.9426 2.003 15.0954 2.00891 15.2479C2.18205 19.7154 5.27514 25.0072 2.13677 28.1914C1.9949 28.3354 1.95944 28.5557 2.04904 28.7376C2.12837 28.9001 2.2917 29 2.4667 29C2.48817 29 2.50964 28.9986 2.53157 28.9953C2.61619 28.9832 3.54303 28.8479 4.82597 28.5352C8.41271 27.661 12.3083 27.5789 16 27.5789C23.7196 27.5789 30 21.8417 30 14.7895C30 7.73726 23.7196 2 16 2ZM9.46669 16.6842C8.43723 16.6842 7.60003 15.8344 7.60003 14.7895C7.60003 13.7445 8.43723 12.8947 9.46669 12.8947C10.4962 12.8947 11.3334 13.7445 11.3334 14.7895C11.3334 15.8344 10.4962 16.6842 9.46669 16.6842ZM16 16.6842C14.9706 16.6842 14.1334 15.8344 14.1334 14.7895C14.1334 13.7445 14.9706 12.8947 16 12.8947C17.0295 12.8947 17.8667 13.7445 17.8667 14.7895C17.8667 15.8344 17.0295 16.6842 16 16.6842ZM22.5333 16.6842C21.5039 16.6842 20.6667 15.8344 20.6667 14.7895C20.6667 13.7445 21.5039 12.8947 22.5333 12.8947C23.5628 12.8947 24.4 13.7445 24.4 14.7895C24.4 15.8344 23.5628 16.6842 22.5333 16.6842Z" fill="url(#paint1_linear)"/>
<defs>
<linearGradient id="paint0_linear" x1="35.4508" y1="27.9596" x2="-16.0076" y2="27.9596" gradientUnits="userSpaceOnUse">
<stop stop-color="#FF5823"/>
<stop offset="1" stop-color="#FF36C7"/>
</linearGradient>
<linearGradient id="paint1_linear" x1="1.5" y1="28.5" x2="26.5" y2="-1" gradientUnits="userSpaceOnUse">
<stop stop-color="#710FD1"/>
<stop offset="1" stop-color="#FF3839"/>
</linearGradient>
</defs>
</svg>
