<svg width="50" height="36" viewBox="0 0 50 36" fill="none" xmlns="http://www.w3.org/2000/svg">
<path fill-rule="evenodd" clip-rule="evenodd" d="M47 28V8C47 5.23857 44.7614 3 42 3H31.3257C31.1685 3 31.0136 3.03704 30.8734 3.10812L30.0175 3.54213C29.0364 4.03968 27.9518 4.29897 26.8516 4.29897H17.1501C16.113 4.29897 15.0888 4.0685 14.1516 3.62424L13.0381 3.09639C12.9042 3.03292 12.7579 3 12.6098 3H6C4.34315 3 3 4.34315 3 6V6.12602C3.31962 6.04375 3.6547 6 4 6H10H36H39.8276C42.589 6 44.8276 8.23858 44.8276 11V26C44.8276 28.2091 43.0367 30 40.8276 30H36H10H3.99999C3.6547 30 3.31962 29.9562 3 29.874V30C3 31.6569 4.34315 33 6 33H12.4959C12.6623 33 12.826 32.9585 12.9723 32.8793L13.9294 32.3607C14.9533 31.806 16.0994 31.5155 17.2639 31.5155H26.7326C27.9652 31.5155 29.176 31.841 30.2425 32.459L30.9434 32.8652C31.0957 32.9535 31.2687 33 31.4448 33H42C44.7614 33 47 30.7614 47 28ZM10 27H3.99999C3.44772 27 3 26.5523 3 26V10C3 9.44772 3.44772 9 4 9H10V27ZM13 27V9H33V27H13ZM36 27V9H39.8276C40.9322 9 41.8276 9.89543 41.8276 11V26C41.8276 26.5523 41.3799 27 40.8276 27H36ZM0 26V10V6C0 2.68629 2.68629 0 6 0H12.6098C13.2024 0 13.7877 0.131694 14.3232 0.385561L15.4367 0.913408C15.9722 1.16727 16.5574 1.29897 17.1501 1.29897H26.8516C27.4803 1.29897 28.1001 1.1508 28.6607 0.866492L29.5166 0.432476C30.0773 0.148164 30.6971 0 31.3257 0H42C46.4183 0 50 3.58172 50 8V28C50 32.4183 46.4183 36 42 36H31.4448C30.7404 36 30.0485 35.814 29.4391 35.4608L28.7382 35.0546C28.1288 34.7015 27.4369 34.5155 26.7326 34.5155H17.2639C16.5985 34.5155 15.9436 34.6815 15.3585 34.9985L14.4013 35.517C13.8163 35.834 13.1614 36 12.4959 36H6C2.68629 36 0 33.3137 0 30V26Z" fill="white" fill-opacity="0.9"/>
</svg>
