<svg width="50" height="69" viewBox="0 0 50 69" fill="none" xmlns="http://www.w3.org/2000/svg">
<g filter="url(#filter0_d_534_518)">
<mask id="path-1-inside-1_534_518" fill="white">
<path fill-rule="evenodd" clip-rule="evenodd" d="M5.71286 9.48901C5.98492 4.17172 10.3755 0 15.6998 0H34.1742C39.538 0 43.9465 4.23176 44.1659 9.59102L45.5255 42.8076C45.7579 48.4862 41.2171 53.2166 35.5339 53.2166H30.5309C30.6835 53.752 30.7487 54.323 30.7104 54.9124L30.6529 55.7976C30.482 58.4276 28.299 60.4734 25.6634 60.4734H22.7598C20.1553 60.4734 17.9871 58.4741 17.7762 55.8782L17.7043 54.9929C17.6542 54.3754 17.7181 53.7767 17.8778 53.2166H14.0003C8.27672 53.2166 3.72087 48.4217 4.01333 42.7056L5.71286 9.48901ZM37.1255 7.86157H11.7503V45.9598H37.1255V7.86157Z"/>
</mask>
<path d="M5.71286 9.48901L7.2109 9.56566L5.71286 9.48901ZM44.1659 9.59102L42.6671 9.65237L42.6671 9.65237L44.1659 9.59102ZM45.5255 42.8076L44.0267 42.869L45.5255 42.8076ZM30.5309 53.2166V51.7166H28.5436L29.0884 53.6278L30.5309 53.2166ZM30.7104 54.9124L32.2072 55.0096L32.2072 55.0096L30.7104 54.9124ZM30.6529 55.7976L29.156 55.7003L29.156 55.7003L30.6529 55.7976ZM17.7762 55.8782L16.2812 55.9996L16.2812 55.9996L17.7762 55.8782ZM17.7043 54.9929L16.2093 55.1144L16.2093 55.1144L17.7043 54.9929ZM17.8778 53.2166L19.3203 53.628L19.8654 51.7166H17.8778V53.2166ZM4.01333 42.7056L2.51529 42.629L2.51529 42.629L4.01333 42.7056ZM11.7503 7.86157V6.36157H10.2503V7.86157H11.7503ZM37.1255 7.86157H38.6255V6.36157H37.1255V7.86157ZM11.7503 45.9598H10.2503V47.4598H11.7503V45.9598ZM37.1255 45.9598V47.4598H38.6255V45.9598H37.1255ZM15.6998 -1.5C9.57691 -1.5 4.52769 3.29748 4.21482 9.41237L7.2109 9.56566C7.44215 5.04596 11.1742 1.5 15.6998 1.5V-1.5ZM34.1742 -1.5H15.6998V1.5H34.1742V-1.5ZM45.6646 9.52968C45.4123 3.36652 40.3426 -1.5 34.1742 -1.5V1.5C38.7334 1.5 42.4807 5.09699 42.6671 9.65237L45.6646 9.52968ZM47.0242 42.7463L45.6646 9.52968L42.6671 9.65237L44.0267 42.869L47.0242 42.7463ZM35.5339 54.7166C42.0696 54.7166 47.2915 49.2766 47.0242 42.7463L44.0267 42.869C44.2243 47.6957 40.3647 51.7166 35.5339 51.7166V54.7166ZM30.5309 54.7166H35.5339V51.7166H30.5309V54.7166ZM32.2072 55.0096C32.2568 54.2466 32.1725 53.5038 31.9735 52.8054L29.0884 53.6278C29.1945 54.0003 29.2406 54.3993 29.2136 54.8151L32.2072 55.0096ZM32.1497 55.8948L32.2072 55.0096L29.2136 54.8151L29.156 55.7003L32.1497 55.8948ZM25.6634 61.9734C29.0896 61.9734 31.9276 59.3139 32.1497 55.8948L29.156 55.7003C29.0364 57.5414 27.5083 58.9734 25.6634 58.9734V61.9734ZM22.7598 61.9734H25.6634V58.9734H22.7598V61.9734ZM16.2812 55.9996C16.5552 59.3743 19.374 61.9734 22.7598 61.9734V58.9734C20.9367 58.9734 19.4189 57.5739 19.2713 55.7567L16.2812 55.9996ZM16.2093 55.1144L16.2812 55.9996L19.2713 55.7567L19.1994 54.8715L16.2093 55.1144ZM16.4353 52.8053C16.227 53.5359 16.1444 54.315 16.2093 55.1144L19.1994 54.8715C19.164 54.4358 19.2092 54.0175 19.3203 53.628L16.4353 52.8053ZM14.0003 54.7166H17.8778V51.7166H14.0003V54.7166ZM2.51529 42.629C2.17896 49.2025 7.41819 54.7166 14.0003 54.7166V51.7166C9.13526 51.7166 5.26278 47.6409 5.51137 42.7823L2.51529 42.629ZM4.21482 9.41237L2.51529 42.629L5.51137 42.7823L7.2109 9.56566L4.21482 9.41237ZM11.7503 9.36157H37.1255V6.36157H11.7503V9.36157ZM13.2503 45.9598V7.86157H10.2503V45.9598H13.2503ZM37.1255 44.4598H11.7503V47.4598H37.1255V44.4598ZM35.6255 7.86157V45.9598H38.6255V7.86157H35.6255Z" fill="url(#paint0_linear_534_518)" mask="url(#path-1-inside-1_534_518)"/>
</g>
<path d="M26.6635 20.8922C26.6636 21.0017 26.638 21.1078 26.5912 21.1921C26.5648 21.2395 26.5324 21.2787 26.4958 21.3075C26.4592 21.3362 26.4192 21.3539 26.3781 21.3596C26.3369 21.3653 26.2954 21.3587 26.2559 21.3405C26.2164 21.3222 26.1797 21.2924 26.148 21.253L24.4633 19.1539L22.7754 21.178C22.7433 21.2169 22.7063 21.246 22.6666 21.2635C22.6269 21.2811 22.5852 21.2867 22.544 21.2802C22.5028 21.2737 22.4629 21.2551 22.4266 21.2255C22.3902 21.1959 22.3582 21.1559 22.3322 21.1077C22.3036 21.0593 22.282 21.0025 22.2688 20.941C22.2557 20.8795 22.2511 20.8146 22.2556 20.7503C22.26 20.6861 22.2733 20.6239 22.2946 20.5677C22.3159 20.5115 22.3448 20.4624 22.3794 20.4237L24.2653 18.1606C24.3215 18.0917 24.392 18.054 24.4648 18.054C24.5376 18.054 24.6082 18.0917 24.6644 18.1606L26.5503 20.5033C26.5883 20.5503 26.6184 20.61 26.6381 20.6776C26.6577 20.7452 26.6664 20.8187 26.6635 20.8922Z" fill="white"/>
<path d="M26.6635 33.8804C26.6636 33.7892 26.638 33.7008 26.5912 33.6305C26.5648 33.591 26.5324 33.5583 26.4958 33.5343C26.4592 33.5104 26.4192 33.4956 26.3781 33.4909C26.3369 33.4862 26.2954 33.4916 26.2559 33.5069C26.2164 33.5221 26.1797 33.5469 26.148 33.5797L24.4633 35.329L22.7754 33.6422C22.7433 33.6098 22.7063 33.5856 22.6666 33.571C22.6269 33.5563 22.5852 33.5516 22.544 33.5571C22.5028 33.5625 22.4629 33.578 22.4266 33.6027C22.3902 33.6273 22.3582 33.6607 22.3322 33.7008C22.3036 33.7412 22.282 33.7885 22.2688 33.8398C22.2557 33.891 22.2511 33.9451 22.2556 33.9986C22.26 34.0521 22.2733 34.104 22.2946 34.1508C22.3159 34.1977 22.3448 34.2385 22.3794 34.2709L24.2653 36.1568C24.3215 36.2142 24.392 36.2456 24.4648 36.2456C24.5376 36.2456 24.6082 36.2142 24.6644 36.1568L26.5503 34.2045C26.5883 34.1653 26.6184 34.1156 26.6381 34.0592C26.6577 34.0029 26.6664 33.9417 26.6635 33.8804Z" fill="white"/>
<circle cx="24.4584" cy="19.7077" r="5.56391" stroke="white"/>
<circle cx="24.4584" cy="34.592" r="5.56391" stroke="white"/>
<defs>
<filter id="filter0_d_534_518" x="0" y="0" width="49.5352" height="68.4734" filterUnits="userSpaceOnUse" color-interpolation-filters="sRGB">
<feFlood flood-opacity="0" result="BackgroundImageFix"/>
<feColorMatrix in="SourceAlpha" type="matrix" values="0 0 0 0 0 0 0 0 0 0 0 0 0 0 0 0 0 0 127 0" result="hardAlpha"/>
<feOffset dy="4"/>
<feGaussianBlur stdDeviation="2"/>
<feComposite in2="hardAlpha" operator="out"/>
<feColorMatrix type="matrix" values="0 0 0 0 0 0 0 0 0 0 0 0 0 0 0 0 0 0 0.25 0"/>
<feBlend mode="normal" in2="BackgroundImageFix" result="effect1_dropShadow_534_518"/>
<feBlend mode="normal" in="SourceGraphic" in2="effect1_dropShadow_534_518" result="shape"/>
</filter>
<linearGradient id="paint0_linear_534_518" x1="39" y1="-6.01705e-07" x2="-8" y2="65" gradientUnits="userSpaceOnUse">
<stop stop-color="#FF3838"/>
<stop offset="1" stop-color="#700ED2"/>
</linearGradient>
</defs>
</svg>
