<svg width="37" height="31" viewBox="0 0 37 31" fill="none" xmlns="http://www.w3.org/2000/svg">
<path d="M5.46591 1.1731e-08H31.5341C32.9302 -9.14013e-05 34.2735 0.534068 35.2883 1.4929C36.3031 2.45174 36.9125 3.76255 36.9916 5.15645L37 5.46591V24.8068C37.0001 26.203 36.4659 27.5462 35.5071 28.561C34.5483 29.5758 33.2374 30.1853 31.8435 30.2643L31.5341 30.2727H5.46591C4.06977 30.2728 2.72652 29.7387 1.7117 28.7798C0.69689 27.821 0.0874523 26.5102 0.0084093 25.1163L1.1731e-08 24.8068V5.46591C-9.14013e-05 4.06977 0.534068 2.72652 1.4929 1.7117C2.45174 0.69689 3.76255 0.0874523 5.15645 0.0084093L5.46591 1.1731e-08H31.5341H5.46591ZM34.4773 9.93114L19.0819 17.9366C18.9328 18.0141 18.7697 18.061 18.6022 18.0746C18.4346 18.0881 18.2661 18.0681 18.1065 18.0156L17.9181 17.9366L2.52273 9.93114V24.8068C2.52275 25.5455 2.80051 26.2571 3.30087 26.8004C3.80123 27.3438 4.48759 27.6791 5.22373 27.7399L5.46591 27.75H31.5341C32.273 27.7499 32.9848 27.4719 33.5282 26.9712C34.0716 26.4705 34.4068 25.7838 34.4672 25.0473L34.4773 24.8068V9.93114ZM31.5341 2.52273H5.46591C4.72727 2.52275 4.01565 2.80051 3.4723 3.30087C2.92895 3.80123 2.5936 4.48759 2.53282 5.22373L2.52273 5.46591V7.08718L18.5 15.3954L34.4773 7.08718V5.46591C34.4772 4.727 34.1992 4.01516 33.6985 3.47176C33.1978 2.92837 32.511 2.5932 31.7746 2.53282L31.5341 2.52273Z" fill="url(#paint0_linear)" fill-opacity="0.9"/>
<defs>
<linearGradient id="paint0_linear" x1="5.51334e-08" y1="15.1364" x2="37" y2="15.1364" gradientUnits="userSpaceOnUse">
<stop stop-color="#710FD1"/>
<stop offset="1" stop-color="#FF3839"/>
</linearGradient>
</defs>
</svg>
