<svg width="18" height="18" viewBox="0 0 18 18" fill="none" xmlns="http://www.w3.org/2000/svg">
<path d="M8.96364 1.61514C11.357 1.61514 11.6405 1.62424 12.5856 1.66731C13.4596 1.70722 13.9343 1.85323 14.2502 1.97599C14.6685 2.1386 14.9671 2.33286 15.2808 2.64651C15.5945 2.96017 15.7887 3.25877 15.9513 3.67712C16.074 3.99302 16.22 4.46767 16.26 5.34156C16.303 6.2868 16.3121 6.57028 16.3121 8.96364C16.3121 11.3571 16.303 11.6405 16.26 12.5857C16.22 13.4597 16.074 13.9343 15.9513 14.2502C15.7887 14.6685 15.5944 14.9672 15.2808 15.2808C14.9671 15.5945 14.6685 15.7887 14.2502 15.9513C13.9343 16.074 13.4596 16.2201 12.5856 16.26C11.6406 16.3031 11.3571 16.3122 8.96364 16.3122C6.57007 16.3122 6.28659 16.3031 5.34156 16.26C4.4676 16.22 3.99302 16.074 3.67712 15.9513C3.25877 15.7887 2.9601 15.5945 2.64644 15.2808C2.33279 14.9671 2.13853 14.6685 1.97599 14.2502C1.85323 13.9343 1.70715 13.4597 1.66731 12.5857C1.62417 11.6405 1.61507 11.3571 1.61507 8.96364C1.61507 6.57028 1.62417 6.2868 1.66731 5.34163C1.70722 4.46767 1.85323 3.99302 1.97599 3.67712C2.13853 3.25877 2.33279 2.96017 2.64644 2.64651C2.96017 2.33279 3.25877 2.1386 3.67712 1.97599C3.99295 1.85323 4.4676 1.70722 5.34156 1.66731C6.28673 1.62424 6.57021 1.61514 8.96364 1.61514ZM8.96364 0C6.52924 0 6.22398 0.0102942 5.26796 0.0539219C4.31382 0.0974795 3.66221 0.249021 3.0921 0.470591C2.50261 0.699654 2.00274 1.00617 1.50442 1.50449C1.0061 2.00281 0.699654 2.50268 0.470591 3.0921C0.248951 3.66228 0.0974795 4.31389 0.0539219 5.26796C0.0102942 6.22398 0 6.52924 0 8.96364C0 11.398 0.0102942 11.7033 0.0539219 12.6593C0.0974795 13.6135 0.248951 14.2651 0.470591 14.8352C0.699584 15.4246 1.0061 15.9245 1.50442 16.4229C2.00274 16.9212 2.50261 17.2276 3.0921 17.4567C3.66228 17.6783 4.31382 17.8298 5.26789 17.8734C6.22398 17.917 6.52924 17.9273 8.96364 17.9273C11.398 17.9273 11.7033 17.917 12.6593 17.8734C13.6134 17.8298 14.265 17.6783 14.8351 17.4567C15.4246 17.2277 15.9245 16.9212 16.4228 16.4229C16.9211 15.9245 17.2276 15.4247 17.4567 14.8352C17.6783 14.265 17.8298 13.6135 17.8734 12.6594C17.917 11.7033 17.9273 11.398 17.9273 8.96364C17.9273 6.52924 17.917 6.22398 17.8734 5.26796C17.8298 4.31389 17.6783 3.66228 17.4567 3.09217C17.2276 2.50268 16.9211 2.00281 16.4228 1.50449C15.9245 1.00617 15.4246 0.699584 14.8352 0.470591C14.265 0.249021 13.6134 0.0974795 12.6593 0.0539219C11.7033 0.0102942 11.398 0 8.96364 0ZM8.96364 4.36067C6.42147 4.36067 4.36067 6.42161 4.36067 8.96364C4.36067 11.5058 6.42147 13.5666 8.96364 13.5666C11.5057 13.5666 13.5666 11.5058 13.5666 8.96364C13.5666 6.42154 11.5057 4.36067 8.96364 4.36067ZM8.96364 11.9515C7.31349 11.9515 5.97573 10.6138 5.97573 8.96364C5.97573 7.31349 7.31349 5.97573 8.96364 5.97573C10.6138 5.97573 11.9515 7.31349 11.9515 8.96364C11.9515 10.6138 10.6138 11.9515 8.96364 11.9515ZM14.824 4.17881C14.824 4.77293 14.3425 5.25444 13.7484 5.25444C13.1543 5.25444 12.6728 4.77293 12.6728 4.17881C12.6728 3.58475 13.1543 3.10317 13.7484 3.10317C14.3425 3.10317 14.824 3.58475 14.824 4.17881Z" fill="#B2B2B2"/>
</svg>
