<?xml version="1.0" encoding="UTF-8"?>
<!DOCTYPE svg PUBLIC "-//W3C//DTD SVG 1.1//EN" "http://www.w3.org/Graphics/SVG/1.1/DTD/svg11.dtd">
<!-- Creator: CorelDRAW 2019 (64-Bit) -->
<svg xmlns="http://www.w3.org/2000/svg" xml:space="preserve" width="178.388mm" height="29.6431mm" version="1.1" style="shape-rendering:geometricPrecision; text-rendering:geometricPrecision; image-rendering:optimizeQuality; fill-rule:evenodd; clip-rule:evenodd"
viewBox="0 0 5585.08 928.08"
 xmlns:xlink="http://www.w3.org/1999/xlink"
 xmlns:xodm="http://www.corel.com/coreldraw/odm/2003">
 <defs>
  <style type="text/css">
   <![CDATA[
    .fil0 {fill:white}
    .fil5 {fill:url(#id0)}
    .fil3 {fill:url(#id1)}
    .fil1 {fill:url(#id2)}
    .fil7 {fill:url(#id3)}
    .fil9 {fill:url(#id4)}
    .fil4 {fill:url(#id5)}
    .fil8 {fill:url(#id6)}
    .fil2 {fill:url(#id7)}
    .fil10 {fill:url(#id8)}
    .fil6 {fill:url(#id9)}
   ]]>
  </style>
  <linearGradient id="id0" gradientUnits="userSpaceOnUse" x1="2190.75" y1="786.62" x2="4590.43" y2="786.61">
   <stop offset="0" style="stop-opacity:1; stop-color:#FF4586"/>
   <stop offset="1" style="stop-opacity:1; stop-color:#FA543E"/>
  </linearGradient>
  <linearGradient id="id1" gradientUnits="userSpaceOnUse" xlink:href="#id0" x1="2190.75" y1="786.62" x2="4590.43" y2="786.61">
  </linearGradient>
  <linearGradient id="id2" gradientUnits="userSpaceOnUse" xlink:href="#id0" x1="2190.76" y1="786.62" x2="4590.41" y2="786.61">
  </linearGradient>
  <linearGradient id="id3" gradientUnits="userSpaceOnUse" xlink:href="#id0" x1="2190.76" y1="786.62" x2="4590.43" y2="786.61">
  </linearGradient>
  <linearGradient id="id4" gradientUnits="userSpaceOnUse" xlink:href="#id0" x1="2190.76" y1="786.62" x2="4590.43" y2="786.61">
  </linearGradient>
  <linearGradient id="id5" gradientUnits="userSpaceOnUse" xlink:href="#id0" x1="2190.78" y1="786.62" x2="4590.4" y2="786.61">
  </linearGradient>
  <linearGradient id="id6" gradientUnits="userSpaceOnUse" xlink:href="#id0" x1="2190.76" y1="786.62" x2="4590.43" y2="786.61">
  </linearGradient>
  <linearGradient id="id7" gradientUnits="userSpaceOnUse" xlink:href="#id0" x1="2190.76" y1="786.62" x2="4590.41" y2="786.61">
  </linearGradient>
  <linearGradient id="id8" gradientUnits="userSpaceOnUse" xlink:href="#id0" x1="2190.77" y1="786.62" x2="4590.39" y2="786.61">
  </linearGradient>
  <linearGradient id="id9" gradientUnits="userSpaceOnUse" xlink:href="#id0" x1="2190.77" y1="786.62" x2="4590.42" y2="786.61">
  </linearGradient>
 </defs>
 <g id="Слой_x0020_1">
  <metadata id="CorelCorpID_0Corel-Layer"/>
  <path class="fil0" d="M5520.38 0l-866.67 0.52 -55.04 176.67 748.52 0 -25.67 81.15 -662.97 0.18c-47.12,0 -96.95,36.86 -111.26,82.32l-108.72 335.72 187.9 0 71.62 -226.83c5.96,-19.01 23.56,-31.95 43.46,-31.95l631.44 -0.16c87.15,0 117.65,-53.87 134.51,-109l74.61 -233.4c1.39,-4.41 2.36,-8.67 2.96,-12.77l0 -18.51c-4.46,-27.34 -29.5,-43.94 -64.7,-43.94zm-1147.29 1.25l-215.34 675.31 187.62 0 213.63 -675.32 -185.91 0zm-2000.47 -1.25l0.28 0 0.28 0 0.27 -0 0.28 0 -1.1 0zm46.84 178.35l765.34 0 56.22 -176.35c0,0 -686.78,-0.53 -867.85,-0.53 -46.96,0.28 -96.45,37.03 -110.72,82.3l-162.42 511.94c-28,85.95 57.52,80.58 59.1,80.58l868.53 0 55.5 -176.35 -765.93 0 102.23 -321.59zm1672.81 -177.1l-81.83 257.09 -570.78 0 81.16 -257.09 -185.9 0 -215.36 675.31 187.64 0 82.14 -258.79 570.35 0 -82.76 258.78 187.64 0 213.61 -675.32 -185.9 0z"/>
  <path class="fil0" d="M2139.36 177.51l56.03 -176.35 -851.38 -0.54c-47.13,0 -96.95,36.86 -111.27,82.31l-80.07 253.15c-14.33,45.45 12.27,82.31 59.41,82.31l650.17 0.02 -26.21 80.7 -905.37 0c-0.03,-0.01 -0.05,-0.02 -0.08,-0.04l-56.28 -80.77 60.08 0.11c91.31,0 118.32,-58.42 133.83,-109.16l74.61 -233.39c14.32,-45.45 -14.6,-75.23 -61.73,-75.23l-863.67 0.53 -58.04 176.67 748.53 0 -25.68 81.15 -662.96 0.18c-47.13,0 -96.96,36.85 -111.28,82.31l-108 335.72 202.83 0.01 72.94 -227.05c6.07,-18.91 23.66,-31.74 43.52,-31.74l323.28 0 160.68 226.8c14.22,20.08 37.3,31.99 61.89,31.98l1031.72 -0.72c47.14,0 96.95,-36.84 111.27,-82.31l81.38 -252.69c14.32,-45.46 -12.27,-82.31 -59.41,-82.31l-650.45 -0.18 25.77 -81.46 733.96 0z"/>
  <g id="_1900904688400">
   <path class="fil1" d="M2190.76 786.62l-151.6 0 -11.99 37.79 133.37 0 -6.11 17.44 -107.9 0c-14.82,0 -27.96,9.56 -32.51,23.68l-19.45 60.28 36.12 0 12.5 -38.34c1.52,-4.61 5.81,-7.73 10.66,-7.73l115 0c5.86,0 11.04,-3.77 12.85,-9.34l21.65 -66.43c2.78,-8.56 -3.59,-17.33 -12.59,-17.33z"/>
   <path class="fil2" d="M2703.64 786.62l-151.6 0 -11.99 37.79 133.37 0 -6.11 17.44 -107.9 0c-14.82,0 -27.96,9.56 -32.51,23.68l-19.45 60.28 36.12 0 12.5 -38.34c1.52,-4.61 5.81,-7.73 10.66,-7.73l52.01 0 21.26 30.02 11.82 16.7 41.9 0 -11.82 -16.7 -21.26 -30.02 21.09 0c5.85,0 11.04,-3.77 12.85,-9.34l21.65 -66.43c2.78,-8.56 -3.6,-17.33 -12.59,-17.33z"/>
   <path class="fil3" d="M2818.5 786.62l-44.59 139.17 35 0 1.12 0 12.5 -38.34c1.52,-4.61 5.81,-7.73 10.66,-7.73l81.73 0 11.79 -37.88 -91.64 0 5.43 -17.44c45.18,0 90.35,0 135.52,0 4.1,-12.6 8.07,-25.18 12.11,-37.79l-169.64 0z"/>
   <path class="fil4" d="M3080.04 797.67l-34.29 111.06c-2.63,8.48 3.72,17.07 12.59,17.07l6.67 0 98.89 0 16.98 0c5.94,0 11.21,-3.88 12.95,-9.56l34.29 -111.06c2.63,-8.48 -3.72,-17.07 -12.59,-17.07l-12.15 0 -98.89 0 -11.5 0c-5.94,0 -11.21,3.88 -12.95,9.56zm6.82 90.69l19.4 -62.8 80.75 0 -19.4 62.8 -80.75 0z"/>
   <path class="fil5" d="M3481.93 786.62l-151.6 0 -11.99 37.79 133.37 0 -6.11 17.44 -107.9 0c-14.82,0 -27.96,9.56 -32.51,23.68l-19.45 60.28 36.12 0 12.5 -38.34c1.52,-4.61 5.81,-7.73 10.66,-7.73l52.01 0 23.26 32.85 9.82 13.87 41.9 0 -9.82 -13.87 -23.26 -32.85 21.09 0c5.86,0 11.04,-3.77 12.85,-9.34l21.65 -66.43c2.78,-8.56 -3.59,-17.33 -12.59,-17.33z"/>
   <path class="fil6" d="M3617.84 822.28c24.3,0 48.61,0 72.91,0l-31.76 100.5 35.05 0 31.24 -100.5c25.41,0 50.82,0 76.23,0l-31.12 100.5 34.85 0 37.78 -120.52c2.68,-8.52 -3.68,-17.18 -12.62,-17.18 -75.12,0 -150.25,0 -225.37,0 -5.81,0 -10.94,3.77 -12.67,9.32l-40.17 128.37 34.54 0 31.11 -100.5z"/>
   <path class="fil7" d="M3966.31 822.28l91.84 0 -8.66 27.96 -91.83 0 8.65 -27.96zm73.48 59.26l-12.97 41.24 0.2 0 34.85 0c14.38,-45.87 28.54,-91.82 42.8,-137.69 -50.39,0 -100.78,0 -151.17,0 -5.81,0 -10.94,3.77 -12.68,9.32l-40.16 128.37 34.54 0 12.77 -41.24 91.82 0z"/>
   <path class="fil8" d="M4196.57 794.65l-34.29 111.06c-2.63,8.48 3.72,17.07 12.59,17.07l130.85 0 11.62 -37.19 -114.03 0 19.48 -63.06 116.57 0 10.59 -37.44 -140.43 0c-5.95,0 -11.21,3.88 -12.96,9.56z"/>
   <path class="fil9" d="M4566.37 843.6l-103.52 0 4.9 -15.76 116.73 0 11.9 -37.44 -141.19 0c-5.88,0 -11.07,3.82 -12.84,9.44l-34.75 110.92c-2.7,8.6 3.73,17.33 12.74,17.33l141.28 0 11.64 -37.43c-41.67,0 -83.35,0 -125.02,0l4.9 -15.76 103.21 0 10.04 -31.3z"/>
   <path class="fil10" d="M2438.53 827.84l11.9 -37.44 -141.19 0c-5.88,0 -11.07,3.82 -12.84,9.44l-34.76 110.92c-2.7,8.6 3.74,17.33 12.74,17.33l141.28 0 11.63 -37.43 -34.72 0 -45.15 0 -45.15 0 4.9 -15.76 103.21 0 10.04 -31.3 -103.53 0 4.9 -15.76 116.73 0z"/>
  </g>
 </g>
</svg>
