<svg width="146" height="18" viewBox="0 0 146 18" fill="none" xmlns="http://www.w3.org/2000/svg">
<g clip-path="url(#clip0)">
<path fill-rule="evenodd" clip-rule="evenodd" d="M106.958 0.0668761L104.819 6.89436H89.8988L92.0207 0.0668761H87.1599L81.5305 18.0008H86.4362L88.5831 11.1284H103.492L101.329 18.0008H106.234L111.818 0.0668761H106.958ZM63.228 4.73118H83.0887L84.607 0.0473956C84.607 0.0473956 66.7523 0.033844 62.0183 0.033844C60.791 0.0414668 59.4979 1.01718 59.1243 2.21904L54.8789 15.813C54.1477 18.0956 56.383 17.9533 56.4238 17.9533H79.0426L80.5608 13.2704H60.5575L63.228 4.73118ZM62.0041 0.033844C62.0091 0.033844 62.0141 0.033844 62.0183 0.033844C62.0241 0.033844 62.0274 0.033844 62.0333 0.033844H62.0041ZM114.298 0.0668761L108.669 18.0008H113.574L119.157 0.0668761H114.298ZM144.289 0.033844L121.712 0.0482426L120.196 4.73965H139.763L139.091 6.8952L121.76 6.89944C120.528 6.89944 119.226 7.87854 118.852 9.08464L116.009 17.9999H120.922L122.794 11.9762C122.95 11.4714 123.41 11.1275 123.932 11.1275L140.437 11.1233C142.715 11.1233 143.513 9.69277 143.954 8.22919L145.904 2.03102C146.278 0.824073 145.522 0.033844 144.289 0.033844Z" fill="black"/>
<path fill-rule="evenodd" clip-rule="evenodd" d="M55.8737 4.69547L57.3919 0.0116903L35.1359 -0.00270832C33.9036 -0.00270832 32.6013 0.976397 32.2278 2.18334L30.1342 8.90579C29.7599 10.1119 30.4552 11.091 31.6875 11.091L48.6834 11.0918L47.9981 13.2347H24.3313C24.3305 13.2338 24.3305 13.2338 24.3297 13.233L22.8581 11.0876L24.4297 11.091C26.8159 11.091 27.5221 9.53933 27.9273 8.19264L29.8774 1.99446C30.2518 0.787521 29.4964 -0.0035553 28.2641 -0.0035553L5.68708 0.0108433L4.17049 4.70225H23.7377L23.0657 6.8578L5.7346 6.86204C4.50232 6.86204 3.20084 7.84114 2.82649 9.04724L0.00341797 17.9625H5.30605L7.212 11.9329C7.37125 11.4306 7.83064 11.0901 8.35006 11.0901H16.8001L21.0013 17.1122C21.3732 17.6457 21.976 17.9625 22.6188 17.9617L49.5897 17.943C50.8212 17.943 52.1243 16.9639 52.4987 15.757L54.6255 9.04639C54.9999 7.8403 54.3037 6.86119 53.0723 6.86119L36.0697 6.85696L36.7425 4.69378H55.8762L55.8737 4.69547Z" fill="black"/>
</g>
<defs>
<clipPath id="clip0">
<rect width="146" height="18" fill="white"/>
</clipPath>
</defs>
</svg>
