<svg width="146" height="18" viewBox="0 0 146 18" fill="none" xmlns="http://www.w3.org/2000/svg">
<g clip-path="url(#clip0)">
<path fill-rule="evenodd" clip-rule="evenodd" d="M106.958 0.0668381L104.819 6.89432H89.8987L92.0205 0.0668381H87.1598L81.5303 18.0007H86.4361L88.583 11.1284H103.492L101.329 18.0007H106.233L111.818 0.0668381H106.958ZM63.2279 4.73114H83.0886L84.6069 0.0473576C84.6069 0.0473576 66.7522 0.033806 62.0181 0.033806C60.7909 0.0414288 59.4977 1.01715 59.1242 2.21901L54.8788 15.813C54.1476 18.0956 56.3829 17.9533 56.4237 17.9533H79.0424L80.5607 13.2704H60.5574L63.2279 4.73029V4.73114ZM62.004 0.033806C62.009 0.033806 62.014 0.0346529 62.0181 0.0346529C62.024 0.0346529 62.0273 0.033806 62.0332 0.033806H62.004ZM114.298 0.0668381L108.669 18.0007H113.574L119.157 0.0668381H114.298ZM144.289 0.033806L121.712 0.0482046L120.195 4.73961H139.763L139.091 6.89517L121.76 6.8994C120.528 6.8994 119.226 7.87851 118.852 9.0846L116.009 17.9999H120.922L122.794 11.9762C122.95 11.4714 123.41 11.1275 123.931 11.1275L140.437 11.1233C142.715 11.1233 143.513 9.69273 143.954 8.22915L145.904 2.03098C146.277 0.824035 145.522 0.032959 144.289 0.032959V0.033806Z" fill="#FEFEFE"/>
<path fill-rule="evenodd" clip-rule="evenodd" d="M55.8737 4.69549L57.3919 0.0117055L35.1359 -0.00269306C33.9036 -0.00269306 32.6013 0.976412 32.2278 2.18335L30.1342 8.90581C29.7599 10.1119 30.4552 11.091 31.6875 11.091L48.6834 11.0919L47.9981 13.2347H24.3313C24.3305 13.2339 24.3305 13.2339 24.3297 13.233L22.8581 11.0876L24.4297 11.091C26.8159 11.091 27.5221 9.53935 27.9273 8.19265L29.8774 1.99448C30.2518 0.787536 29.4964 -0.00354004 28.2641 -0.00354004L5.68708 0.0108586L4.17049 4.70226H23.7377L23.0657 6.85782L5.7346 6.86205C4.50232 6.86205 3.20084 7.84116 2.82649 9.04725L0.00341797 17.9625H5.30605L7.212 11.9329C7.37125 11.4306 7.83064 11.0902 8.35006 11.0902H16.8001L21.0013 17.1122C21.3732 17.6458 21.976 17.9625 22.6188 17.9617L49.5897 17.9431C50.8212 17.9431 52.1243 16.9639 52.4987 15.757L54.6255 9.04641C54.9999 7.84031 54.3037 6.86121 53.0723 6.86121L36.0697 6.85697L36.7425 4.69379H55.8762L55.8737 4.69549Z" fill="white"/>
</g>
<defs>
<clipPath id="clip0">
<rect width="146" height="18" fill="white"/>
</clipPath>
</defs>
</svg>
