<svg width="36" height="32" viewBox="0 0 36 32" fill="none" xmlns="http://www.w3.org/2000/svg">
<rect x="1" y="1.21313" width="33.379" height="24.1198" rx="1" stroke="#353535" stroke-width="2"/>
<rect x="0.708008" y="20.1871" width="33.9639" height="1.53646" rx="0.76823" fill="#353535"/>
<rect x="15.5669" y="22.4723" width="3.5379" height="1.41516" rx="0.70758" fill="#353535"/>
<path d="M4.95361 15.4262L7.43109 12.9487C8.21214 12.1676 9.47847 12.1676 10.2595 12.9487L12.3842 15.0733C13.1652 15.8544 14.4315 15.8544 15.2126 15.0733L20.8751 9.4108C21.6562 8.62975 22.9225 8.62975 23.7035 9.4108L25.8282 11.5354C26.6092 12.3165 27.8756 12.3165 28.6566 11.5354L30.4265 9.76553" stroke="#353535" stroke-width="2"/>
<path d="M24.7311 30.7473H10.3711" stroke="#353535" stroke-width="2"/>
<path d="M14.5964 31.3265L14.5964 26.333" stroke="#353535" stroke-width="2"/>
<path d="M20.7422 31.3265L20.7422 26.333" stroke="#353535" stroke-width="2"/>
</svg>
