<svg width="48" height="31" viewBox="0 0 48 31" fill="none" xmlns="http://www.w3.org/2000/svg">
<path fill-rule="evenodd" clip-rule="evenodd" d="M37.4421 3H10.0036C5.56735 3 2.24997 7.07399 3.14878 11.4182L5.37819 22.1937C6.05071 25.4443 8.91367 27.7755 12.233 27.7755H35.2127C38.532 27.7755 41.395 25.4443 42.0675 22.1938L44.2969 11.4182C45.1957 7.07399 41.8783 3 37.4421 3ZM10.0036 0C3.6661 0 -1.07302 5.81998 0.210995 12.0261L2.44041 22.8016C3.40115 27.4451 7.4911 30.7755 12.233 30.7755H35.2127C39.9546 30.7755 44.0445 27.4452 45.0053 22.8016L47.2347 12.0261C48.5187 5.81999 43.7796 0 37.4421 0H10.0036ZM8.33496 15.8526C8.33496 14.9734 9.04765 14.2607 9.9268 14.2607H37.5186C38.3978 14.2607 39.1105 14.9734 39.1105 15.8526C39.1105 16.7317 38.3978 17.4444 37.5186 17.4444H9.9268C9.04765 17.4444 8.33496 16.7317 8.33496 15.8526ZM10.9869 11.0782C11.866 11.0782 12.5787 10.3655 12.5787 9.48637C12.5787 8.60722 11.866 7.89453 10.9869 7.89453C10.1077 7.89453 9.39502 8.60722 9.39502 9.48637C9.39502 10.3655 10.1077 11.0782 10.9869 11.0782ZM18.9453 9.48646C18.9453 10.3656 18.2326 11.0783 17.3535 11.0783C16.4743 11.0783 15.7616 10.3656 15.7616 9.48646C15.7616 8.60732 16.4743 7.89463 17.3535 7.89463C18.2326 7.89463 18.9453 8.60732 18.9453 9.48646ZM23.7247 11.0783C24.6038 11.0783 25.3165 10.3656 25.3165 9.48646C25.3165 8.60732 24.6038 7.89463 23.7247 7.89463C22.8455 7.89463 22.1328 8.60732 22.1328 9.48646C22.1328 10.3656 22.8455 11.0783 23.7247 11.0783ZM31.6827 9.48646C31.6827 10.3656 30.97 11.0783 30.0909 11.0783C29.2118 11.0783 28.4991 10.3656 28.4991 9.48646C28.4991 8.60732 29.2118 7.89463 30.0909 7.89463C30.97 7.89463 31.6827 8.60732 31.6827 9.48646ZM36.4571 11.0783C37.3363 11.0783 38.049 10.3656 38.049 9.48646C38.049 8.60732 37.3363 7.89463 36.4571 7.89463C35.578 7.89463 34.8653 8.60732 34.8653 9.48646C34.8653 10.3656 35.578 11.0783 36.4571 11.0783ZM15.7628 23.282C15.7628 24.1612 15.0501 24.8739 14.1709 24.8739C13.2918 24.8739 12.5791 24.1612 12.5791 23.282C12.5791 22.4029 13.2918 21.6902 14.1709 21.6902C15.0501 21.6902 15.7628 22.4029 15.7628 23.282ZM20.5372 24.8739C21.4163 24.8739 22.129 24.1612 22.129 23.282C22.129 22.4029 21.4163 21.6902 20.5372 21.6902C19.658 21.6902 18.9453 22.4029 18.9453 23.282C18.9453 24.1612 19.658 24.8739 20.5372 24.8739ZM28.4952 23.282C28.4952 24.1612 27.7826 24.8739 26.9034 24.8739C26.0243 24.8739 25.3116 24.1612 25.3116 23.282C25.3116 22.4029 26.0243 21.6902 26.9034 21.6902C27.7826 21.6902 28.4952 22.4029 28.4952 23.282ZM33.2746 24.8739C34.1537 24.8739 34.8664 24.1612 34.8664 23.282C34.8664 22.4029 34.1537 21.6902 33.2746 21.6902C32.3955 21.6902 31.6828 22.4029 31.6828 23.282C31.6828 24.1612 32.3955 24.8739 33.2746 24.8739Z" fill="white" fill-opacity="0.9"/>
</svg>
