<svg width="67" height="39" viewBox="0 0 67 39" fill="none" xmlns="http://www.w3.org/2000/svg">
<mask id="path-1-inside-1_533_510" fill="white">
<path fill-rule="evenodd" clip-rule="evenodd" d="M58.0244 2H61.9024C63.5593 2 64.9024 3.34315 64.9024 5V34C64.9024 35.6569 63.5593 37 61.9024 37H58.0244V2ZM56.0244 2H10.878V37H56.0244V2ZM8.87805 37V2H5C3.34315 2 2 3.34315 2 5V34C2 35.6569 3.34315 37 5 37H8.87805ZM8.87805 0H10.878H56.0244H58.0244H61.9024C64.6639 0 66.9024 2.23858 66.9024 5V34C66.9024 36.7614 64.6639 39 61.9024 39H58.0244H56.0244H10.878H8.87805H5C2.23858 39 0 36.7614 0 34V5C0 2.23858 2.23858 0 5 0H8.87805Z"/>
</mask>
<path fill-rule="evenodd" clip-rule="evenodd" d="M58.0244 2H61.9024C63.5593 2 64.9024 3.34315 64.9024 5V34C64.9024 35.6569 63.5593 37 61.9024 37H58.0244V2ZM56.0244 2H10.878V37H56.0244V2ZM8.87805 37V2H5C3.34315 2 2 3.34315 2 5V34C2 35.6569 3.34315 37 5 37H8.87805ZM8.87805 0H10.878H56.0244H58.0244H61.9024C64.6639 0 66.9024 2.23858 66.9024 5V34C66.9024 36.7614 64.6639 39 61.9024 39H58.0244H56.0244H10.878H8.87805H5C2.23858 39 0 36.7614 0 34V5C0 2.23858 2.23858 0 5 0H8.87805Z" fill="url(#paint0_linear_533_510)"/>
<path d="M58.0244 2V1H57.0244V2H58.0244ZM58.0244 37H57.0244V38H58.0244V37ZM56.0244 2H57.0244V1H56.0244V2ZM10.878 2V1H9.87805V2H10.878ZM10.878 37H9.87805V38H10.878V37ZM56.0244 37V38H57.0244V37H56.0244ZM8.87805 2H9.87805V1H8.87805V2ZM8.87805 37V38H9.87805V37H8.87805ZM61.9024 1H58.0244V3H61.9024V1ZM65.9024 5C65.9024 2.79086 64.1116 1 61.9024 1V3C63.007 3 63.9024 3.89543 63.9024 5H65.9024ZM65.9024 34V5H63.9024V34H65.9024ZM61.9024 38C64.1116 38 65.9024 36.2091 65.9024 34H63.9024C63.9024 35.1046 63.007 36 61.9024 36V38ZM58.0244 38H61.9024V36H58.0244V38ZM59.0244 37V2H57.0244V37H59.0244ZM56.0244 1H10.878V3H56.0244V1ZM9.87805 2V37H11.878V2H9.87805ZM10.878 38H56.0244V36H10.878V38ZM57.0244 37V2H55.0244V37H57.0244ZM7.87805 2V37H9.87805V2H7.87805ZM8.87805 1H5V3H8.87805V1ZM5 1C2.79086 1 1 2.79086 1 5H3C3 3.89543 3.89543 3 5 3V1ZM1 5V34H3V5H1ZM1 34C1 36.2091 2.79086 38 5 38V36C3.89543 36 3 35.1046 3 34H1ZM5 38H8.87805V36H5V38ZM10.878 -1H8.87805V1H10.878V-1ZM56.0244 -1H10.878V1H56.0244V-1ZM58.0244 -1H56.0244V1H58.0244V-1ZM61.9024 -1H58.0244V1H61.9024V-1ZM67.9024 5C67.9024 1.68629 65.2161 -1 61.9024 -1V1C64.1116 1 65.9024 2.79086 65.9024 5H67.9024ZM67.9024 34V5H65.9024V34H67.9024ZM61.9024 40C65.2161 40 67.9024 37.3137 67.9024 34H65.9024C65.9024 36.2091 64.1116 38 61.9024 38V40ZM58.0244 40H61.9024V38H58.0244V40ZM56.0244 40H58.0244V38H56.0244V40ZM10.878 40H56.0244V38H10.878V40ZM8.87805 40H10.878V38H8.87805V40ZM5 40H8.87805V38H5V40ZM-1 34C-1 37.3137 1.6863 40 5 40V38C2.79086 38 1 36.2091 1 34H-1ZM-1 5V34H1V5H-1ZM5 -1C1.68629 -1 -1 1.68629 -1 5H1C1 2.79086 2.79086 1 5 1V-1ZM8.87805 -1H5V1H8.87805V-1Z" fill="url(#paint1_linear_533_510)" mask="url(#path-1-inside-1_533_510)"/>
<defs>
<linearGradient id="paint0_linear_533_510" x1="-6" y1="60" x2="56" y2="10" gradientUnits="userSpaceOnUse">
<stop stop-color="#700ED2"/>
<stop offset="1" stop-color="#FF3838"/>
</linearGradient>
<linearGradient id="paint1_linear_533_510" x1="44" y1="9" x2="22" y2="33" gradientUnits="userSpaceOnUse">
<stop stop-color="#FE3839"/>
<stop offset="1" stop-color="#9B1BA5"/>
</linearGradient>
</defs>
</svg>
