<svg width="582" height="19" viewBox="0 0 582 19" fill="none" xmlns="http://www.w3.org/2000/svg">
<path fill-rule="evenodd" clip-rule="evenodd" d="M139.344 0.0419922L137.118 7.03803H121.592L123.799 0.0419922H118.742L112.885 18.4195H117.989L120.223 11.3771H135.737L133.486 18.4195H138.59L144.401 0.0419922H139.344Z" fill="white"/>
<path fill-rule="evenodd" clip-rule="evenodd" d="M84.5217 4.86116H105.34L106.87 0.0624624C106.87 0.0624624 88.1881 0.0478516 83.2627 0.0478516C81.9855 0.0557922 80.6391 1.05536 80.2509 2.28743L75.8328 16.2192C75.0711 18.5578 77.3974 18.4117 77.4403 18.4117H101.066L102.576 13.6127H81.7412L84.5217 4.86116Z" fill="white"/>
<path fill-rule="evenodd" clip-rule="evenodd" d="M156.311 0.0419922L150.453 18.4195H155.556L161.368 0.0419922H156.311Z" fill="white"/>
<path fill-rule="evenodd" clip-rule="evenodd" d="M196.853 0.0078125L173.278 0.0221057L171.781 4.83001H192.142L191.444 7.03815L173.41 7.04323C172.128 7.04323 170.773 8.04598 170.383 9.28345L167.426 18.4197H172.537L174.485 12.2469C174.647 11.7292 175.126 11.3772 175.668 11.3772L192.844 11.3728C195.215 11.3728 196.044 9.90695 196.503 8.40649L198.532 2.05491C198.57 1.93485 198.597 1.8186 198.613 1.70743V1.20368C198.492 0.460112 197.81 0.00813013 196.853 0.00813013V0.0078125Z" fill="white"/>
<path fill-rule="evenodd" clip-rule="evenodd" d="M27.3733 13.5903H25.3158C25.3148 13.5899 25.3145 13.5896 25.3135 13.5893L23.7826 11.3913L25.4171 11.3945C27.9009 11.3945 28.6353 9.80479 29.0574 8.42375L31.0867 2.07249C31.4761 0.835655 30.6897 0.0253906 29.4074 0.0253906L5.9142 0.0400014L4.3356 4.84759H24.6964L23.9982 7.05573L5.96439 7.06049C4.68245 7.06049 3.32713 8.06356 2.93772 9.30039L0 18.4366L5.51717 18.4369L7.50106 12.2581C7.66623 11.7436 8.14457 11.3945 8.68485 11.3945H17.4787L21.8495 17.5663C22.2361 18.1126 22.864 18.4366 23.5329 18.4366L25.8259 18.435L27.3733 13.5906V13.5903Z" fill="white"/>
<path fill-rule="evenodd" clip-rule="evenodd" d="M67.5492 4.83902L69.0735 0.0400014L45.9144 0.0253906C44.6321 0.0253906 43.2771 1.02814 42.8877 2.26529L40.7098 9.15429C40.32 10.3911 41.0436 11.3942 42.3258 11.3942L60.0113 11.3948L59.2988 13.5906H39.276L37.7285 18.4334L60.9527 18.4172C62.235 18.4172 63.5896 17.4145 63.9794 16.1773L66.1929 9.30103C66.5823 8.06419 65.8591 7.06113 64.5765 7.06113L46.8831 7.05636L47.5841 4.83933H67.5492V4.83902Z" fill="white"/>
<path fill-rule="evenodd" clip-rule="evenodd" d="M263.701 4.95052L265.274 0H246.612C245.836 0 245.149 0.504708 244.916 1.24795L240.322 15.9147C239.966 17.0514 240.816 18.206 242.006 18.206H260.679L262.217 13.2571H257.628H251.66H245.693L246.34 11.1725H259.981L261.308 7.03479H247.624L248.271 4.9502H263.7H263.701V4.95052ZM476.559 4.92384H464.421L463.276 8.62133H475.414L476.559 4.92384H476.559ZM472.419 18.2121L474.133 12.759H461.997L460.31 18.2121H455.745L461.053 1.23779C461.283 0.505026 461.961 0.00571727 462.729 0.00571727H482.709C482.094 1.9877 481.479 3.97096 480.864 5.95486L480.864 5.95708L480.863 5.96026L480.862 5.96343L480.861 5.96629L480.856 5.9809C479.593 10.0586 478.329 14.1369 477.053 18.2117H472.446H472.42L472.419 18.2121ZM418.565 4.92384H428.202L424.005 18.213H428.637L432.766 4.92384H442.842L438.728 18.213H443.334L448.328 2.27738C448.683 1.15108 447.842 0.00571727 446.66 0.00571727H416.872C416.105 0.00571727 415.426 0.505026 415.197 1.23779L409.889 18.213H414.454L418.565 4.92384H418.565H418.565ZM347.886 1.27273L343.354 15.9579C343.007 17.0784 343.845 18.2146 345.018 18.2146H345.899H358.971H361.215C362.001 18.2146 362.696 17.7019 362.928 16.9492L367.459 2.26468C367.807 1.14345 366.968 0.0073054 365.795 0.0073054H364.189H351.118H349.598C348.813 0.0073054 348.117 0.519954 347.886 1.27273ZM348.788 13.2631L351.353 4.95846H362.025L359.461 13.2631H348.788ZM298.54 0.00825828H278.502L276.918 5.00452H294.545L293.738 7.31017H279.476C277.517 7.31017 275.781 8.57432 275.179 10.441L272.608 18.4112H277.383L279.035 13.3416C279.236 12.732 279.804 12.3188 280.445 12.3188H287.319L290.128 16.2882L291.691 18.4963H297.229L295.666 16.2882L292.857 12.3188H295.645C296.418 12.3188 297.103 11.8208 297.343 11.0842L300.204 2.2993C300.572 1.16823 299.729 0.00794066 298.541 0.00794066L298.54 0.00825828ZM231.155 0.00889353H211.117L209.532 5.00611H227.16L226.352 7.3108H212.09C210.131 7.3108 208.395 8.57591 207.793 10.442L205.223 18.4118H209.997L211.649 13.3425C211.85 12.7327 212.417 12.3198 213.058 12.3198H228.258C229.032 12.3198 229.717 11.8211 229.957 11.0848L232.818 2.30025C233.186 1.16886 232.343 0.00857591 231.155 0.00857591V0.00889353ZM307.625 18.4112L313.519 0.00825828H335.94C335.757 0.580621 335.575 1.15267 335.392 1.72439L335.392 1.72566C335.043 2.81893 334.695 3.91157 334.339 5.00452H316.427L315.709 7.31017H327.822L326.264 12.3182H315.461C314.82 12.3182 314.253 12.7311 314.052 13.3416L312.4 18.4112H312.251H307.626H307.625ZM380.766 0.00889353H400.804C401.991 0.00889353 402.835 1.16855 402.467 2.29961L399.606 11.0845C399.366 11.8211 398.681 12.3191 397.907 12.3191H395.12L398.195 16.6633L399.492 18.497H393.953L392.656 16.6633L389.582 12.3191H382.707C382.066 12.3191 381.499 12.732 381.298 13.3419L379.646 18.4115H374.872L377.442 10.4413C378.044 8.57559 379.78 7.31049 381.74 7.31049H396.001L396.809 5.00484H379.181L380.766 0.00889353ZM528.981 1.27114L524.449 15.9556C524.102 17.0769 524.94 18.213 526.113 18.213H543.408L544.945 13.2949H529.873L532.448 4.95719H547.854L549.254 0.00571727H530.694C529.908 0.00571727 529.212 0.518366 528.981 1.27114ZM563.973 7.04304H577.656L576.33 11.1814H562.688L562.04 13.2653H577.425L575.876 18.2143H558.354C557.164 18.2143 556.314 17.0597 556.671 15.9229L561.264 1.25685C561.497 0.513284 562.184 0.00857591 562.961 0.00857591H581.622L580.049 4.9591H564.62L563.973 7.04336V7.04304ZM500.108 0.00476439L509.087 10.8142H509.087L512.46 0.00476439H517.036L511.392 18.2044H506.836L497.99 7.42356L494.647 18.2044H490.043L495.306 1.23779C495.535 0.505026 496.212 0.00444677 496.98 0.00444677H500.109L500.108 0.00476439Z" fill="url(#paint0_linear_1454_355)"/>
<defs>
<linearGradient id="paint0_linear_1454_355" x1="204.623" y1="11.675" x2="581.041" y2="11.675" gradientUnits="userSpaceOnUse">
<stop stop-color="#FF4586"/>
<stop offset="1" stop-color="#FA543E"/>
</linearGradient>
</defs>
</svg>
