<svg width="21" height="32" viewBox="0 0 21 32" fill="none" xmlns="http://www.w3.org/2000/svg">
<path fill-rule="evenodd" clip-rule="evenodd" d="M2.84683 0H17.4876C19.0573 0 20.3344 1.2771 20.3344 2.84683V28.8749C20.3344 30.4446 19.0573 31.7217 17.4876 31.7217H2.84683C1.2771 31.7217 0 30.4446 0 28.8749V2.84683C0 1.2771 1.2771 0 2.84683 0ZM17.4876 29.2815C17.7118 29.2815 17.8943 29.099 17.8943 28.8748V23.5879H2.44015V28.8748C2.44015 29.099 2.62261 29.2815 2.84683 29.2815H17.4876ZM2.44015 21.1477H17.8943V7.32032H2.44015V21.1477ZM2.44015 4.88023H17.8943V2.84683C17.8943 2.62261 17.7118 2.44015 17.4876 2.44015H2.84683C2.62261 2.44015 2.44015 2.62261 2.44015 2.84683V4.88023ZM11.7939 26.4347C11.7939 27.3331 11.0655 28.0614 10.1671 28.0614C9.26871 28.0614 8.54041 27.3331 8.54041 26.4347C8.54041 25.5363 9.26871 24.808 10.1671 24.808C11.0655 24.808 11.7939 25.5363 11.7939 26.4347Z" fill="white"/>
</svg>
