<svg width="38" height="32" viewBox="0 0 38 32" fill="none" xmlns="http://www.w3.org/2000/svg">
<path d="M21.2402 0H6.64038C5.97763 0 5.44034 0.537299 5.44034 1.20004C5.44034 1.86278 5.97763 2.40008 6.64038 2.40008H12.8783C11.5622 3.2243 10.3756 4.23653 9.3566 5.39946H1.20004C0.537298 5.39954 0 5.93691 0 6.59965C0 7.26239 0.537298 7.79969 1.20004 7.79969H7.62057C6.23605 10.1477 5.44026 12.8824 5.44026 15.7998C5.44026 19.1945 6.51667 22.3425 8.34567 24.9208H4.94073C4.27799 24.9208 3.74069 25.4581 3.74069 26.1208C3.74069 26.7835 4.27799 27.3208 4.94073 27.3208H10.4402C11.1885 28.0227 12.0049 28.6525 12.8783 29.1995H1.32382C0.661079 29.1995 0.12378 29.7368 0.12378 30.3996C0.12378 31.0623 0.661079 31.5996 1.32382 31.5996H21.2402C29.9523 31.5996 37.04 24.5118 37.04 15.7998C37.04 7.08775 29.9523 0 21.2402 0ZM21.2402 29.1997C13.8515 29.1997 7.84049 23.1886 7.84049 15.7999C7.84049 8.41121 13.8515 2.40016 21.2402 2.40016C28.6288 2.40016 34.6399 8.41121 34.6399 15.7998C34.6399 23.1885 28.6289 29.1997 21.2402 29.1997Z" fill="#414141"/>
<path d="M21.2401 5.99756C15.8352 5.99756 11.438 10.3948 11.438 15.7997C11.438 19.0228 13.002 21.8874 15.4108 23.675C15.4328 23.6937 15.4547 23.7125 15.4785 23.7296C15.5053 23.7491 15.5327 23.7673 15.5604 23.7842C17.1639 24.928 19.1248 25.6017 21.2401 25.6017C23.3554 25.6017 25.3162 24.928 26.9197 23.7842C26.9475 23.7673 26.9749 23.7491 27.0016 23.7296C27.0254 23.7123 27.0474 23.6935 27.0694 23.675C29.4781 21.8874 31.0422 19.0229 31.0422 15.7997C31.0422 10.3948 26.645 5.99756 21.2401 5.99756ZM22.4401 8.49552C24.782 8.87902 26.7577 10.365 27.8146 12.4017L24.707 13.4114C24.1672 12.6302 23.3706 12.0399 22.4402 11.7628V8.49552H22.4401ZM23.0519 15.7996C23.0519 16.7987 22.2392 17.6114 21.2401 17.6114C20.241 17.6114 19.4282 16.7987 19.4282 15.7996C19.4282 14.8005 20.241 13.9877 21.2401 13.9877C22.2392 13.9877 23.0519 14.8005 23.0519 15.7996ZM20.04 8.49552V11.7628C19.1094 12.0399 18.313 12.6302 17.7731 13.4114L14.6656 12.4017C15.7226 10.365 17.6982 8.87894 20.04 8.49552ZM15.9783 21.0002C14.656 19.6624 13.8381 17.8248 13.8381 15.7996C13.8381 15.4204 13.8669 15.0477 13.9222 14.6837L17.0308 15.6937C17.0299 15.729 17.028 15.7641 17.028 15.7996C17.028 16.7615 17.3528 17.6485 17.8976 18.3585L15.9783 21.0002ZM21.2401 23.2015C20.0463 23.2015 18.9179 22.9172 17.9184 22.413L19.8381 19.7709C20.277 19.9263 20.7487 20.0117 21.2401 20.0117C21.7315 20.0117 22.2032 19.9263 22.642 19.7709L24.5618 22.413C23.5623 22.9171 22.4338 23.2015 21.2401 23.2015ZM26.5018 21.0002L24.5825 18.3585C25.1273 17.6486 25.4521 16.7615 25.4521 15.7997C25.4521 15.7641 25.4504 15.7291 25.4493 15.6938L28.5579 14.6838C28.6132 15.0478 28.642 15.4204 28.642 15.7997C28.642 17.8248 27.8243 19.6623 26.5018 21.0002Z" fill="#414141"/>
</svg>
