<svg width="30" height="27" viewBox="0 0 30 27" fill="none" xmlns="http://www.w3.org/2000/svg">
<path d="M27.3894 18.7762C27.7732 18.6018 28.1271 18.3575 28.434 18.0481L28.97 17.5071C29.6386 16.8326 30.0044 15.9359 30 14.982C29.9957 14.0283 29.6217 13.1352 28.9492 12.4692L25.1388 8.67687C24.6781 8.21804 23.936 8.22312 23.4815 8.68796C23.0269 9.15302 23.0319 9.90165 23.4927 10.3602L27.3052 14.1549C27.5299 14.3775 27.6544 14.6751 27.656 14.9931C27.6574 15.3111 27.5354 15.6101 27.3127 15.8348L26.7764 16.3758C26.5535 16.601 26.2589 16.7243 25.9415 16.7222C25.6261 16.7203 25.3308 16.5943 25.1102 16.3668C25.034 16.2883 24.949 16.2239 24.8591 16.1712L17.496 8.59051C17.4905 8.58497 17.4852 8.57966 17.4797 8.57435C16.8169 7.91762 15.9311 7.5597 14.9893 7.56756C14.0703 7.57471 13.2079 7.92986 12.5604 8.56765C12.5576 8.57042 12.5549 8.57319 12.5521 8.57596L4.68457 16.4813C4.50398 16.5943 4.29615 16.6566 4.07849 16.6585C3.76446 16.6617 3.47012 16.54 3.24696 16.3183L2.69353 15.7685C2.46762 15.5436 2.34334 15.2436 2.34402 14.9234C2.34471 14.6033 2.47037 14.3038 2.69925 14.0782L14.198 2.70125C14.6487 2.2572 15.38 2.25627 15.832 2.69778L23.4689 10.3365C23.9232 10.8018 24.6652 10.8073 25.1264 10.3489C25.5874 9.89056 25.5929 9.14194 25.1388 8.67687L17.4937 1.02988C17.4891 1.02503 17.4843 1.02041 17.4797 1.0158C16.8194 0.362075 15.9465 0.00115457 15.0213 0C15.0197 0 15.0181 0 15.0165 0C14.0932 0 13.2212 0.358381 12.5585 1.01095L1.05977 12.3879C0.37839 13.059 0.0021093 13.9577 4.93723e-05 14.9183C-0.00201056 15.8787 0.37038 16.779 1.04856 17.453L1.60199 18.0031C1.87459 18.2739 2.18335 18.4935 2.51683 18.6596L1.05496 20.1284C0.376788 20.799 0.0021093 21.6956 4.93723e-05 22.6539C-0.00201056 23.6146 0.37038 24.5147 1.04856 25.1887L1.60199 25.7387C2.27101 26.4038 3.15564 26.7665 4.09611 26.7587C5.03544 26.7515 5.91549 26.3758 6.57696 25.6983L14.962 17.0605L23.4286 25.9272C23.4309 25.9295 23.4329 25.9318 23.435 25.9339C24.0969 26.6162 24.9827 26.9947 25.9289 27H25.9483C26.8872 27 27.7696 26.6315 28.434 25.9611L28.9703 25.4201C29.6386 24.7456 30.0044 23.8489 30 22.8953C29.9957 21.9455 29.6251 21.0562 28.9561 20.3891L27.3894 18.7762ZM27.3127 23.7478L26.7764 24.2888C26.5535 24.514 26.2589 24.6368 25.9415 24.6352C25.6275 24.6334 25.3333 24.5084 25.1132 24.2828L15.813 14.5433C15.5933 14.3131 15.2907 14.1826 14.9739 14.1812C14.9723 14.1812 14.9707 14.1812 14.9691 14.1812C14.654 14.1812 14.3523 14.3091 14.1317 14.5363L4.90452 24.0413C4.6848 24.2664 4.39137 24.3918 4.07849 24.3941C3.76629 24.3964 3.47012 24.2757 3.24696 24.054L2.69353 23.5042C2.46762 23.2795 2.34334 22.9793 2.34402 22.659C2.34471 22.339 2.47037 22.0395 2.69742 21.8157C2.70016 21.813 2.70291 21.8102 2.70566 21.8074L6.19129 18.3049C6.32588 18.2019 6.45405 18.0885 6.57467 17.965C6.6367 17.9012 6.68934 17.832 6.73443 17.7592L14.2015 10.2561C14.4129 10.0497 14.699 9.93467 15.0076 9.93236C15.3228 9.92936 15.6146 10.0444 15.8311 10.2552L27.2891 22.0517C27.2944 22.057 27.2997 22.0626 27.3052 22.0679C27.5299 22.2905 27.6547 22.5881 27.656 22.9061C27.6574 23.2241 27.5356 23.5231 27.3127 23.7478Z" fill="white"/>
</svg>
