<svg width="46" height="42" viewBox="0 0 46 42" fill="none" xmlns="http://www.w3.org/2000/svg">
<path d="M25.5455 41H20.0909C19.0873 41 18.2728 40.1836 18.2728 39.1818V30.0909H13.7273C13.36 30.0909 13.0273 29.8691 12.8873 29.5291C12.7473 29.1891 12.8255 28.7982 13.0837 28.5382L22.1746 19.4472C22.5291 19.0927 23.1055 19.0927 23.46 19.4472L32.5509 28.5382C32.8109 28.7982 32.8891 29.1891 32.7473 29.5291C32.6055 29.8691 32.2764 30.0909 31.9091 30.0909H27.3637V39.1818C27.3637 40.1836 26.5491 41 25.5455 41ZM15.9218 28.2727H19.1818C19.6837 28.2727 20.0909 28.68 20.0909 29.1818V39.1818H25.5455V29.1818C25.5455 28.68 25.9528 28.2727 26.4546 28.2727H29.7146L22.8182 21.3763L15.9218 28.2727Z" fill="#353535" stroke="#353535" stroke-width="0.5"/>
<path d="M9.18364 30.0364C9.14909 30.0364 9.11637 30.0346 9.08 30.0309C4.47455 29.52 1 25.6364 1 21C1 16.1964 4.74364 12.2527 9.46546 11.9309C10.7236 5.64727 16.3327 1 22.8182 1C27.9109 1 32.6018 3.86909 34.9146 8.35273C40.4091 8.9291 44.6364 13.5855 44.6364 19.1818C44.6364 24.0546 41.3709 28.3636 36.6982 29.6582C36.2109 29.7909 35.7127 29.5073 35.58 29.0237C35.4455 28.54 35.7291 28.0382 36.2127 27.9055C40.1018 26.8291 42.8182 23.24 42.8182 19.1818C42.8182 14.3691 39.0673 10.3909 34.2782 10.1255C33.9418 10.1073 33.6455 9.90546 33.5037 9.60182C31.58 5.48182 27.3873 2.81818 22.8182 2.81818C16.9727 2.81818 11.9509 7.17273 11.1364 12.9455C11.0727 13.3927 10.6891 13.7273 10.2364 13.7273C6.08 13.7273 2.81818 16.9891 2.81818 21C2.81818 24.7091 5.59637 27.8146 9.28364 28.2236C9.78182 28.28 10.1418 28.7291 10.0855 29.2273C10.0345 29.6927 9.64 30.0364 9.18364 30.0364Z" fill="#353535" stroke="#353535" stroke-width="0.8"/>
</svg>
