<svg width="22" height="16" viewBox="0 0 22 16" fill="none" xmlns="http://www.w3.org/2000/svg">
<path d="M21.5483 2.97436C21.2997 2.03261 20.5671 1.29092 19.637 1.03922C17.9511 0.581848 11.1909 0.581848 11.1909 0.581848C11.1909 0.581848 4.43077 0.581848 2.74484 1.03922C1.81474 1.29096 1.0822 2.03261 0.833569 2.97436C0.381836 4.68132 0.381836 8.24275 0.381836 8.24275C0.381836 8.24275 0.381836 11.8042 0.833569 13.5111C1.0822 14.4529 1.81474 15.1637 2.74484 15.4154C4.43077 15.8728 11.1909 15.8728 11.1909 15.8728C11.1909 15.8728 17.9511 15.8728 19.637 15.4154C20.5671 15.1637 21.2997 14.4529 21.5483 13.5111C22 11.8042 22 8.24275 22 8.24275C22 8.24275 22 4.68132 21.5483 2.97436ZM8.97996 11.4763V5.00924L14.6301 8.24283L8.97996 11.4763Z" fill="#B2B2B2"/>
</svg>
