<svg width="30" height="32" viewBox="0 0 30 32" fill="none" xmlns="http://www.w3.org/2000/svg">
<path d="M14.7368 30.5C14.1886 30.5 13.068 30.142 11.6055 29.2397C10.2067 28.3766 8.69254 27.1371 7.392 25.6687C3.73394 21.5386 1.5 15.755 1.5 8.22156C1.5 8.00206 1.64741 7.80246 1.87091 7.74044C7.08196 6.29421 11.2823 4.26558 14.4039 1.62152C14.5952 1.45949 14.8785 1.45949 15.0698 1.62152C18.1914 4.26558 22.3917 6.29421 27.6028 7.74044C27.8263 7.80246 27.9737 8.00206 27.9737 8.22156C27.9737 15.755 25.7397 21.5386 22.0817 25.6687C20.7811 27.1371 19.267 28.3766 17.8682 29.2397C16.4056 30.142 15.2851 30.5 14.7368 30.5Z" stroke="#414141" stroke-width="3"/>
<path d="M9.68433 15.579L13.6045 19.7895L21.0527 11.7895" stroke="#414141" stroke-width="3"/>
</svg>
