<svg width="33" height="33" viewBox="0 0 33 33" fill="none" xmlns="http://www.w3.org/2000/svg">
<path d="M17.7422 12.8535C17.1212 12.8535 16.6797 13.1157 16.6797 13.5021V18.7596C16.6797 19.0907 17.1213 19.4219 17.7422 19.4219C18.3356 19.4219 18.8186 19.0907 18.8186 18.7596V13.5021C18.8186 13.1157 18.3356 12.8535 17.7422 12.8535Z" fill="#BCBCBC"/>
<path d="M17.7424 9.61035C17.1076 9.61035 16.6108 10.0657 16.6108 10.5901C16.6108 11.1145 17.1076 11.5836 17.7424 11.5836C18.3634 11.5836 18.8602 11.1145 18.8602 10.5901C18.8602 10.0658 18.3633 9.61035 17.7424 9.61035Z" fill="#BCBCBC"/>
<path d="M25.3186 7.62984C21.1389 3.41255 14.346 3.38038 10.1314 7.55739C6.68996 10.9681 6.07801 16.066 8.13511 20.0827L7.29717 24.3526C7.23484 24.6703 7.33398 24.9982 7.56186 25.2281C7.78975 25.458 8.11674 25.5601 8.43493 25.5006L12.7122 24.701C16.7121 26.7949 21.815 26.2263 25.2549 22.8171C29.4722 18.6374 29.4955 11.8444 25.3186 7.62984ZM13.3575 22.8283C13.1567 22.7142 12.9221 22.6748 12.6951 22.7172L9.49096 23.3162L10.1186 20.1176C10.1631 19.891 10.1259 19.656 10.0134 19.4543C8.16341 16.1333 8.61705 11.8081 11.5063 8.94463C14.946 5.53555 20.5199 5.56254 23.9313 9.00471C27.3428 12.4469 27.3198 18.0208 23.88 21.4298C20.9879 24.2961 16.658 24.706 13.3575 22.8283Z" fill="#BCBCBC"/>
</svg>
