<svg width="34" height="34" viewBox="0 0 34 34" fill="none" xmlns="http://www.w3.org/2000/svg">
<path d="M29.2038 18.1749C29.2668 17.6614 29.2994 17.1452 29.2994 16.6297C29.2994 16.1142 29.2668 15.5979 29.2031 15.0852L33.6543 12.5159L28.804 4.11446L24.3431 6.68929C23.5171 6.06152 22.6254 5.54461 21.6775 5.14411V0H11.9768V5.14411C11.0289 5.5453 10.1372 6.06152 9.31123 6.68929L4.85032 4.11446L0 12.5152L4.45052 15.0845C4.38677 15.5979 4.3549 16.1142 4.3549 16.6297C4.3549 17.1452 4.38677 17.6614 4.45121 18.1742L0.000692903 20.7434L4.85102 29.1442L9.31193 26.5694C10.1379 27.1971 11.0296 27.7141 11.9775 28.1145V33.2594H21.6782V28.1152C22.6261 27.7141 23.5171 27.1978 24.3438 26.5701L28.8047 29.1449L33.655 20.7441L29.2038 18.1749ZM27.7889 25.3596L24.0285 23.1887L23.2809 23.8567C22.272 24.7574 21.1204 25.4254 19.8586 25.8404L18.9059 26.1536V30.4877H14.7484V26.1536L13.7957 25.8397C12.5332 25.424 11.3816 24.7567 10.3735 23.856L9.62581 23.188L5.86473 25.3589L3.78602 21.7585L7.53532 19.5939L7.33092 18.6121C7.19511 17.9614 7.12651 17.2942 7.12651 16.6297C7.12651 15.9652 7.19511 15.2979 7.33092 14.6466L7.53532 13.6647L3.78602 11.5001L5.86473 7.89979L9.62581 10.0707L10.3735 9.4027C11.3816 8.50192 12.5332 7.83466 13.7957 7.41892L14.7484 7.10572V2.77161H18.9059V7.10572L19.8586 7.41961C21.1204 7.83466 22.272 8.50262 23.2809 9.40339L24.0285 10.0713L27.7889 7.90048L29.8676 11.5008L26.119 13.6654L26.3234 14.6473C26.4585 15.2979 26.5278 15.9652 26.5278 16.6297C26.5278 17.2942 26.4585 17.9614 26.3234 18.6128L26.119 19.5946L29.8676 21.7592L27.7889 25.3596Z" fill="#414141"/>
<path d="M16.8262 10.3936C13.388 10.3936 10.5901 13.1915 10.5901 16.6297C10.5901 20.0679 13.388 22.8658 16.8262 22.8658C20.2651 22.8658 23.0623 20.0679 23.0623 16.6297C23.0623 13.1915 20.2651 10.3936 16.8262 10.3936ZM16.8262 20.0942C14.9159 20.0942 13.3617 18.54 13.3617 16.6297C13.3617 14.7193 14.9159 13.1652 16.8262 13.1652C18.7366 13.1652 20.2907 14.7193 20.2907 16.6297C20.2907 18.54 18.7366 20.0942 16.8262 20.0942Z" fill="#414141"/>
</svg>
