<svg width="67" height="39" viewBox="0 0 67 39" fill="none" xmlns="http://www.w3.org/2000/svg">
<path fill-rule="evenodd" clip-rule="evenodd" d="M58.0244 2H61.9024C63.5593 2 64.9024 3.34315 64.9024 5V34C64.9024 35.6569 63.5593 37 61.9024 37H58.0244V2ZM56.0244 2H10.878V37H56.0244V2ZM8.87805 37V2H5C3.34315 2 2 3.34315 2 5V34C2 35.6569 3.34315 37 5 37H8.87805ZM8.87805 0H10.878H56.0244H58.0244H61.9024C64.6639 0 66.9024 2.23858 66.9024 5V34C66.9024 36.7614 64.6639 39 61.9024 39H58.0244H56.0244H10.878H8.87805H5C2.23858 39 0 36.7614 0 34V5C0 2.23858 2.23858 0 5 0H8.87805Z" fill="white"/>
</svg>
