<svg width="31" height="30" viewBox="0 0 31 30" fill="none" xmlns="http://www.w3.org/2000/svg">
<path d="M15.5 0C6.95311 0 0 6.72882 0 15C0 23.2712 6.95311 30 15.5 30C24.0463 30 31 23.2712 31 15C31 6.72882 24.0463 0 15.5 0ZM14.2083 27.4368C8.11549 26.8481 3.25692 22.1463 2.64861 16.25H10.5033C10.9719 18.0026 12.3973 19.382 14.2083 19.8355V27.4368ZM12.9167 15C12.9167 13.6212 14.0753 12.5 15.5 12.5C16.9247 12.5 18.0833 13.6212 18.0833 15C18.0833 16.3788 16.9247 17.5 15.5 17.5C14.0753 17.5 12.9167 16.3788 12.9167 15ZM16.7917 27.4368V19.8355C18.6027 19.382 20.0281 18.0026 20.4967 16.25H28.3514C27.7437 22.1463 22.8845 26.8481 16.7917 27.4368ZM20.4967 13.75C19.9209 11.597 17.9026 10 15.5 10C13.0974 10 11.0791 11.597 10.5033 13.75H2.64861C3.29886 7.44263 8.81367 2.5 15.5 2.5C22.1863 2.5 27.7011 7.44263 28.3514 13.75H20.4967Z" fill="#414141"/>
</svg>
