<svg width="30" height="32" viewBox="0 0 30 32" fill="none" xmlns="http://www.w3.org/2000/svg">
<path fill-rule="evenodd" clip-rule="evenodd" d="M13.2156 0H26.433C27.8909 0 29.0764 1.18556 29.0764 2.64347V29.0781C29.0764 30.536 27.8909 31.7216 26.433 31.7216H5.28524C3.82733 31.7216 2.64177 30.536 2.64177 29.0781V13.1037L0.966372 11.4283C-0.322124 10.1405 -0.322124 8.04334 0.966372 6.75549L2.7886 4.93327C4.07645 3.64606 6.17328 3.64477 7.46145 4.93327L9.13685 6.60867H9.25044V3.9652C9.25044 1.77834 11.0288 0 13.2156 0ZM13.2156 2.64347C12.4867 2.64347 11.8939 3.23625 11.8939 3.9652V6.60867H13.9023L17.0743 2.64347H13.2156ZM4.65729 6.80228L2.83539 8.62418C2.57756 8.88201 2.57756 9.30118 2.83539 9.55933L3.96351 10.6875L6.72056 7.9304L5.59244 6.80228C5.33461 6.54445 4.91641 6.54316 4.65729 6.80228ZM5.28524 29.0781H26.433V2.64347H20.4594L15.5697 8.75584C15.3192 9.06981 14.9385 9.25213 14.5374 9.25213H9.13685L5.28524 13.1037V29.0781ZM13.1021 13.8781H18.6162L20.2116 12.2827C20.7276 11.7668 21.5643 11.7668 22.0806 12.2827C22.5966 12.799 22.5966 13.6354 22.0806 14.1517L20.4852 15.7471V21.2612L22.0806 22.8566C22.5966 23.3729 22.5966 24.2093 22.0806 24.7256C21.8221 24.9841 21.4843 25.1128 21.1461 25.1128C20.8076 25.1128 20.4701 24.9841 20.2116 24.7256L18.6162 23.1302H13.1021L11.5067 24.7256C11.2483 24.9841 10.9104 25.1128 10.5722 25.1128C10.2337 25.1128 9.89619 24.9841 9.63772 24.7256C9.12174 24.2093 9.12174 23.3729 9.63772 22.8566L11.2331 21.2612V15.7471L9.63772 14.1517C9.12174 13.6354 9.12174 12.799 9.63772 12.2827C10.1537 11.7668 10.9904 11.7668 11.5067 12.2827L13.1021 13.8781ZM17.8418 16.5216H13.8766V20.4868H17.8418V16.5216Z" fill="#B2B2B2" fill-opacity="0.3"/>
</svg>
