<svg width="39" height="39" viewBox="0 0 39 39" fill="none" xmlns="http://www.w3.org/2000/svg">
<path d="M32.8476 3.83228H5.20067C4.44475 3.83228 3.83203 4.44499 3.83203 5.20092V32.8479C3.83203 33.6038 4.44475 34.2165 5.20067 34.2165H32.8477C33.6036 34.2165 34.2163 33.6038 34.2163 32.8479V5.20099C34.2163 4.44499 33.6036 3.83228 32.8476 3.83228ZM31.4789 31.4793H6.56931V6.56963H31.4789V31.4793Z" fill="white"/>
<path d="M24.3618 12.3635H13.7319C12.976 12.3635 12.3633 12.9762 12.3633 13.7322V24.3621C12.3633 25.118 12.976 25.7308 13.7319 25.7308H24.3619C25.1183 25.7308 25.7305 25.1185 25.7305 24.3621V13.7322C25.7305 12.9762 25.1178 12.3635 24.3618 12.3635ZM22.9932 22.9935H15.1006V15.1009H22.9932V22.9935Z" fill="white"/>
<path d="M13.23 0C12.474 0 11.8613 0.612719 11.8613 1.36864V5.20087C11.8613 5.95679 12.474 6.56951 13.23 6.56951C13.9859 6.56951 14.5986 5.95679 14.5986 5.20087V1.36864C14.5986 0.612719 13.9859 0 13.23 0Z" fill="white"/>
<path d="M24.8179 0C24.0619 0 23.4492 0.612719 23.4492 1.36864V5.20087C23.4492 5.95679 24.0619 6.56951 24.8179 6.56951C25.5743 6.56951 26.1865 5.95679 26.1865 5.20087V1.36864C26.1866 0.612719 25.5739 0 24.8179 0Z" fill="white"/>
<path d="M13.23 31.4792C12.474 31.4792 11.8613 32.092 11.8613 32.8479V36.6801C11.8613 37.436 12.474 38.0488 13.23 38.0488C13.9859 38.0488 14.5986 37.4365 14.5986 36.6801V32.8479C14.5986 32.092 13.9859 31.4792 13.23 31.4792Z" fill="white"/>
<path d="M24.8179 31.4792C24.0619 31.4792 23.4492 32.092 23.4492 32.8479V36.6801C23.4492 37.436 24.0619 38.0488 24.8179 38.0488C25.5743 38.0488 26.1865 37.4365 26.1865 36.6801V32.8479C26.1866 32.092 25.5739 31.4792 24.8179 31.4792Z" fill="white"/>
<path d="M36.6794 11.8618H32.8472C32.0912 11.8618 31.4785 12.4745 31.4785 13.2305C31.4785 13.9864 32.0912 14.5991 32.8472 14.5991H36.6794C37.4358 14.5991 38.048 13.9864 38.048 13.2305C38.048 12.4745 37.4353 11.8618 36.6794 11.8618Z" fill="white"/>
<path d="M36.6794 21.853H32.8472C32.0912 21.853 31.4785 22.4657 31.4785 23.2217C31.4785 23.9776 32.0912 24.5903 32.8472 24.5903H36.6794C37.4358 24.5903 38.048 23.9776 38.048 23.2217C38.048 22.4657 37.4353 21.853 36.6794 21.853Z" fill="white"/>
<path d="M5.20094 11.8618H1.36864C0.612719 11.8618 0 12.4745 0 13.2305C0 13.9865 0.612719 14.5992 1.36864 14.5992H5.20087C5.95679 14.5992 6.56951 13.9865 6.56951 13.2305C6.56951 12.4746 5.95687 11.8618 5.20094 11.8618Z" fill="white"/>
<path d="M5.20094 21.853H1.36864C0.612719 21.853 0 22.4657 0 23.2217C0 23.9777 0.612719 24.5904 1.36864 24.5904H5.20087C5.95679 24.5904 6.56951 23.9777 6.56951 23.2217C6.56951 22.4658 5.95687 21.853 5.20094 21.853Z" fill="white"/>
</svg>
