<svg width="32" height="32" viewBox="0 0 32 32" fill="none" xmlns="http://www.w3.org/2000/svg">
<path fill-rule="evenodd" clip-rule="evenodd" d="M27.0334 4.60989C27.0482 4.62114 27.0629 4.63234 27.0765 4.64575C27.0905 4.65995 27.1021 4.67535 27.1137 4.69078C27.1211 4.7006 27.1285 4.71043 27.1365 4.71997C29.9691 7.58609 31.7216 11.5222 31.7216 15.8608C31.7216 22.5375 27.5728 28.2595 21.7202 30.5954C21.6692 30.6199 21.6163 30.6396 21.5621 30.6577C19.7908 31.3421 17.8699 31.7216 15.8608 31.7216C13.8511 31.7216 11.9298 31.3421 10.1589 30.6577C10.1053 30.6396 10.0524 30.6199 10.0021 30.5954C4.14881 28.2601 0 22.5375 0 15.8608C0 11.521 1.75317 7.58351 4.58767 4.71739C4.59627 4.70744 4.60392 4.69727 4.61153 4.68715C4.62219 4.67298 4.63276 4.65893 4.64575 4.64575C4.65814 4.63389 4.6715 4.62378 4.68487 4.61366C4.69588 4.60533 4.70689 4.59699 4.71739 4.58767C7.58351 1.75317 11.521 0 15.8608 0C20.1993 0 24.1355 1.75252 27.0023 4.58508C27.0124 4.59392 27.0229 4.60192 27.0334 4.60989ZM11.8956 27.7564V28.4689C13.148 28.8632 14.4797 29.0781 15.8608 29.0781C17.2419 29.0781 18.5736 28.8632 19.826 28.4689V27.7564C19.826 27.0274 19.2332 26.4347 18.5043 26.4347H13.2173C12.4884 26.4347 11.8956 27.0274 11.8956 27.7564ZM18.5043 23.7912C20.5385 23.7912 22.2178 25.3311 22.4424 27.3062C26.04 25.2291 28.5793 21.5153 29.0113 17.1825H27.7564C27.0268 17.1825 26.4347 16.5904 26.4347 15.8608C26.4347 15.1312 27.0268 14.5391 27.7564 14.5391H29.01C28.7451 11.8849 27.6909 9.46091 26.0878 7.50219L25.2055 8.38442C24.9471 8.64225 24.6092 8.771 24.271 8.771C23.9325 8.771 23.595 8.64225 23.3365 8.38378C22.8202 7.86683 22.8202 7.03042 23.3365 6.51412L24.2188 5.63253C22.2607 4.02877 19.836 2.97519 17.1819 2.71026V3.9652C17.1819 4.6948 16.5898 5.28693 15.8602 5.28693C15.1306 5.28693 14.5384 4.6948 14.5384 3.9652V2.71091C11.8843 2.97584 9.46027 4.02941 7.50155 5.63318L8.38313 6.51476C8.89911 7.03106 8.89911 7.86747 8.38313 8.38378C8.1253 8.64225 7.78712 8.771 7.44862 8.771C7.11012 8.771 6.77195 8.64225 6.51412 8.38378L5.63253 7.50219C4.02941 9.46027 2.97519 11.8849 2.71026 14.5391H3.9652C4.6948 14.5391 5.28693 15.1312 5.28693 15.8608C5.28693 16.5904 4.6948 17.1825 3.9652 17.1825H2.71091C3.14299 21.5153 5.68223 25.2291 9.27988 27.3062C9.50383 25.3311 11.1831 23.7912 13.2173 23.7912H18.5043ZM21.3788 11.2911L19.4202 13.3956C20.1743 14.8428 19.9852 16.6686 18.8115 17.9297C17.3216 19.5306 14.8083 19.6208 13.2075 18.1309C11.6066 16.641 11.5164 14.1277 13.0063 12.5269C14.18 11.2657 15.9876 10.9463 17.4852 11.5946L19.4438 9.49017C19.9408 8.95609 20.7777 8.92605 21.3118 9.42312C21.8458 9.92019 21.8759 10.757 21.3788 11.2911ZM14.9414 14.3278C14.4447 14.8614 14.4748 15.6992 15.0084 16.1958C15.542 16.6925 16.3798 16.6624 16.8764 16.1288C17.3731 15.5952 17.343 14.7574 16.8094 14.2608C16.2758 13.7641 15.438 13.7942 14.9414 14.3278Z" fill="white"/>
</svg>
