<svg width="28" height="35" viewBox="0 0 28 35" fill="none" xmlns="http://www.w3.org/2000/svg">
<path d="M25.4545 32.5H17.5859C18.9098 31.341 20.1583 30.1016 21.3241 28.7891C25.6914 23.8561 28 18.6558 28 13.75C28 10.1033 26.525 6.60591 23.8995 4.02728C21.274 1.44866 17.713 0 14 0C10.287 0 6.72601 1.44866 4.10051 4.02728C1.475 6.60591 0 10.1033 0 13.75C0 18.6556 2.30841 23.8561 6.67593 28.7891C7.84173 30.1016 9.09023 31.341 10.4141 32.5H2.54545C2.20791 32.5 1.88418 32.6317 1.6455 32.8661C1.40682 33.1005 1.27273 33.4185 1.27273 33.75C1.27273 34.0815 1.40682 34.3995 1.6455 34.6339C1.88418 34.8683 2.20791 35 2.54545 35H25.4545C25.7921 35 26.1158 34.8683 26.3545 34.6339C26.5932 34.3995 26.7273 34.0815 26.7273 33.75C26.7273 33.4185 26.5932 33.1005 26.3545 32.8661C26.1158 32.6317 25.7921 32.5 25.4545 32.5ZM2.54545 13.75C2.54545 10.7663 3.75227 7.90483 5.90041 5.79505C8.04856 3.68526 10.9621 2.5 14 2.5C17.0379 2.5 19.9514 3.68526 22.0996 5.79505C24.2477 7.90483 25.4545 10.7663 25.4545 13.75C25.4545 22.6927 16.6298 30.1586 14 32.1844C11.3698 30.1583 2.54545 22.6927 2.54545 13.75ZM20.3636 13.75C20.3636 12.5139 19.9904 11.3055 19.2912 10.2777C18.5919 9.24988 17.5981 8.4488 16.4353 7.97575C15.2725 7.5027 13.9929 7.37893 12.7585 7.62009C11.5241 7.86125 10.3902 8.4565 9.50023 9.33058C8.61026 10.2047 8.00418 11.3183 7.75864 12.5307C7.5131 13.7431 7.63912 14.9997 8.12077 16.1418C8.60241 17.2838 9.41806 18.2599 10.4646 18.9467C11.511 19.6334 12.7414 20 14 20C15.6871 19.9981 17.3046 19.339 18.4976 18.1673C19.6906 16.9956 20.3617 15.407 20.3636 13.75ZM10.1818 13.75C10.1818 13.0083 10.4058 12.2833 10.8253 11.6666C11.2448 11.0499 11.8412 10.5693 12.5388 10.2855C13.2365 10.0016 14.0042 9.92736 14.7449 10.0721C15.4855 10.2167 16.1659 10.5739 16.6999 11.0983C17.2338 11.6228 17.5975 12.291 17.7448 13.0184C17.8921 13.7458 17.8165 14.4998 17.5275 15.1851C17.2386 15.8703 16.7492 16.456 16.1213 16.868C15.4934 17.2801 14.7552 17.5 14 17.5C12.9877 17.4989 12.0172 17.1034 11.3014 16.4004C10.5856 15.6974 10.183 14.7442 10.1818 13.75Z" fill="url(#paint0_linear)" fill-opacity="0.9"/>
<defs>
<linearGradient id="paint0_linear" x1="4.17226e-08" y1="17.5" x2="28" y2="17.5" gradientUnits="userSpaceOnUse">
<stop stop-color="#710FD1"/>
<stop offset="1" stop-color="#FF3839"/>
</linearGradient>
</defs>
</svg>
