<svg width="24" height="17" viewBox="0 0 24 17" fill="none" xmlns="http://www.w3.org/2000/svg">
<path d="M21.2899 0H3.58389C2.08953 0 0.873779 1.21575 0.873779 2.71011V14.2732C0.873779 15.7676 2.08953 16.9833 3.58389 16.9833H21.2899C22.7843 16.9833 24 15.7676 24 14.2732V2.71011C24 1.21575 22.7843 0 21.2899 0ZM22.1933 14.2732C22.1933 14.7713 21.788 15.1766 21.2899 15.1766H3.58389C3.08577 15.1766 2.68052 14.7713 2.68052 14.2732V2.71011C2.68052 2.21199 3.08577 1.80674 3.58389 1.80674H21.2899C21.788 1.80674 22.1933 2.21199 22.1933 2.71011V14.2732Z" fill="#BCBCBC"/>
<path d="M22.04 1.12643L12.437 8.26924L2.834 1.12643L1.75565 2.57612L12.437 10.521L23.1183 2.57612L22.04 1.12643Z" fill="#BCBCBC"/>
</svg>
