<svg width="45" height="29" viewBox="0 0 45 29" fill="none" xmlns="http://www.w3.org/2000/svg">
<path d="M36.3244 4.62856L36.2777 9.83694H34.331L29.7312 4.63926H23.4778V2.60985H29.5675V0H14.7783V2.60985H20.868V4.63926H14.1876L11.1784 8.16369H5.08146V15.2309H2.60985V10.1386H0V23.1293H2.60985V17.8407H5.08146V25.2559H11.2177L14.3047 28.5234L29.7248 28.5143L34.3655 23.3594H36.277L36.3236 28.8626H44.3458V4.69459L36.3244 4.62856ZM41.736 26.2528H38.9115L38.865 20.7496H33.2035L28.5621 25.9052L15.4288 25.9129L12.3423 22.6462H7.6913V10.7735H12.3817L15.391 7.24911H28.5557L33.1555 12.4468H38.8643L38.9107 7.25981L41.736 7.28304V26.2528Z" fill="#414141"/>
</svg>
