<svg width="34" height="37" viewBox="0 0 34 37" fill="none" xmlns="http://www.w3.org/2000/svg">
<path d="M33.2017 10.6228C33.1422 10.4778 33.0542 10.347 32.9448 10.2376L23.435 0.727747C23.3256 0.618357 23.1948 0.530369 23.0498 0.470918C22.9071 0.411467 22.7525 0.378174 22.5932 0.378174H7.13586C5.82556 0.378174 4.75781 1.44592 4.75781 2.75622V13.4574C4.75781 14.1138 5.2905 14.6465 5.94684 14.6465C6.60318 14.6465 7.13586 14.1138 7.13586 13.4574V2.75622H21.4042V9.89037C21.4042 11.2007 22.4719 12.2684 23.7822 12.2684H30.9164V31.2928H16.6481C15.9917 31.2928 15.459 31.8255 15.459 32.4818C15.459 33.1382 15.9917 33.6709 16.6481 33.6709H30.9164C32.2267 33.6709 33.2944 32.6031 33.2944 31.2928V11.0794C33.2944 10.9201 33.2611 10.7655 33.2017 10.6228ZM23.7822 9.89037V4.4375L29.2351 9.89037H23.7822Z" fill="white"/>
<path d="M11.8586 34.572L10.037 27.2643C11.1737 26.1799 11.8919 24.6603 11.8919 22.9695C11.8919 19.6926 9.2237 17.0244 5.94675 17.0244C2.66979 17.0244 0.0016233 19.6926 0.0016233 22.9695C0.0016233 24.6603 0.719794 26.1799 1.8565 27.2643L0.034916 34.572C-0.0768523 35.0215 0.0848551 35.4971 0.446319 35.7872C0.807782 36.0797 1.30717 36.1297 1.72095 35.9228L5.94675 33.8111L10.1702 35.9228C10.339 36.006 10.5221 36.0488 10.7028 36.0488C10.9668 36.0488 11.2308 35.9608 11.4472 35.7872C11.8086 35.4971 11.9703 35.0215 11.8586 34.572ZM6.47705 31.4188C6.14175 31.2523 5.74699 31.2523 5.41406 31.4188L2.96705 32.6411L3.98486 28.5556C4.60315 28.7744 5.25711 28.9147 5.94675 28.9147C6.63638 28.9147 7.29035 28.7744 7.90626 28.5556L8.92406 32.6411L6.47705 31.4188ZM5.94675 26.5366C3.9801 26.5366 2.37967 24.9362 2.37967 22.9695C2.37967 21.0029 3.9801 19.4025 5.94675 19.4025C7.91339 19.4025 9.51382 21.0029 9.51382 22.9695C9.51382 24.9362 7.91339 26.5366 5.94675 26.5366Z" fill="white"/>
<path d="M17.8368 7.51221H10.7027C10.0464 7.51221 9.51367 8.04489 9.51367 8.70123C9.51367 9.35757 10.0464 9.89026 10.7027 9.89026H17.8368C18.4932 9.89026 19.0259 9.35757 19.0259 8.70123C19.0259 8.04489 18.4932 7.51221 17.8368 7.51221Z" fill="white"/>
<path d="M27.3499 14.6465H13.0816C12.4253 14.6465 11.8926 15.1792 11.8926 15.8355C11.8926 16.4919 12.4253 17.0245 13.0816 17.0245H27.3499C28.0062 17.0245 28.5389 16.4919 28.5389 15.8355C28.5389 15.1792 28.0062 14.6465 27.3499 14.6465Z" fill="white"/>
<path d="M27.3488 21.7805H15.4586C14.8022 21.7805 14.2695 22.3132 14.2695 22.9695C14.2695 23.6259 14.8022 24.1586 15.4586 24.1586H27.3488C28.0051 24.1586 28.5378 23.6259 28.5378 22.9695C28.5378 22.3132 28.0051 21.7805 27.3488 21.7805Z" fill="white"/>
</svg>
