<svg width="27" height="32" viewBox="0 0 27 32" fill="none" xmlns="http://www.w3.org/2000/svg">
<path d="M13.6212 6.87891C10.3455 6.87891 7.68042 9.54396 7.68042 12.8197C7.68042 16.0954 10.3455 18.7605 13.6212 18.7605C16.8969 18.7605 19.562 16.0954 19.562 12.8197C19.562 9.54396 16.897 6.87891 13.6212 6.87891ZM13.6212 16.2591C11.7247 16.2591 10.1818 14.7162 10.1818 12.8197C10.1818 10.9232 11.7247 9.38027 13.6212 9.38027C15.5177 9.38027 17.0606 10.9232 17.0606 12.8197C17.0606 14.7162 15.5177 16.2591 13.6212 16.2591Z" fill="#414141"/>
<path d="M13.6209 0C6.55213 0 0.80127 5.75092 0.80127 12.8196V13.174C0.80127 16.749 2.85089 20.915 6.89337 25.556C9.82386 28.9205 12.7134 31.2665 12.8349 31.3648L13.6209 31.9999L14.4069 31.3648C14.5285 31.2666 17.418 28.9206 20.3485 25.5561C24.3909 20.915 26.4406 16.7491 26.4406 13.1741V12.8197C26.4406 5.75092 20.6897 0 13.6209 0ZM23.9392 13.1741C23.9392 19.2156 16.1548 26.529 13.6209 28.7492C11.0864 26.5284 3.30264 19.2152 3.30264 13.1741V12.8197C3.30264 7.13023 7.93143 2.50143 13.6209 2.50143C19.3104 2.50143 23.9392 7.13023 23.9392 12.8197V13.1741Z" fill="#414141"/>
</svg>
