<svg width="20" height="20" viewBox="0 0 20 20" fill="none" xmlns="http://www.w3.org/2000/svg">
<path d="M9.70498 1.74872C12.2963 1.74872 12.6032 1.75857 13.6266 1.8052C14.5728 1.84842 15.0867 2.0065 15.4287 2.13942C15.8817 2.31547 16.205 2.5258 16.5446 2.8654C16.8842 3.20499 17.0945 3.52829 17.2705 3.98124C17.4035 4.32327 17.5615 4.83717 17.6048 5.78333C17.6514 6.80676 17.6612 7.11368 17.6612 9.70498C17.6612 12.2964 17.6514 12.6033 17.6048 13.6266C17.5615 14.5729 17.4035 15.0867 17.2705 15.4287C17.0945 15.8817 16.8842 16.205 16.5446 16.5446C16.205 16.8842 15.8817 17.0946 15.4287 17.2705C15.0867 17.4035 14.5728 17.5616 13.6266 17.6048C12.6034 17.6515 12.2964 17.6613 9.70498 17.6613C7.11345 17.6613 6.80653 17.6515 5.78333 17.6048C4.8371 17.5615 4.32327 17.4035 3.98124 17.2705C3.52829 17.0946 3.20492 16.8842 2.86532 16.5446C2.52572 16.205 2.3154 15.8817 2.13942 15.4287C2.0065 15.0868 1.84834 14.5729 1.8052 13.6266C1.7585 12.6033 1.74864 12.2964 1.74864 9.70498C1.74864 7.11368 1.7585 6.80676 1.8052 5.78341C1.84842 4.83717 2.0065 4.32327 2.13942 3.98124C2.3154 3.52829 2.52572 3.20499 2.86532 2.8654C3.20499 2.52572 3.52829 2.31547 3.98124 2.13942C4.32319 2.0065 4.8371 1.84842 5.78333 1.8052C6.80668 1.75857 7.1136 1.74872 9.70498 1.74872ZM9.70498 0C7.06924 0 6.73874 0.0111456 5.70365 0.0583815C4.6706 0.105542 3.96509 0.269616 3.34784 0.509511C2.70958 0.757519 2.16838 1.08938 1.62884 1.62892C1.08931 2.16846 0.757519 2.70966 0.509511 3.34784C0.269541 3.96517 0.105542 4.67067 0.0583815 5.70365C0.0111456 6.73874 0 7.06924 0 9.70498C0 12.3407 0.0111456 12.6712 0.0583815 13.7063C0.105542 14.7394 0.269541 15.4449 0.509511 16.0621C0.757443 16.7003 1.08931 17.2416 1.62884 17.7811C2.16838 18.3207 2.70958 18.6524 3.34784 18.9004C3.96517 19.1404 4.6706 19.3044 5.70357 19.3516C6.73874 19.3988 7.06924 19.41 9.70498 19.41C12.3407 19.41 12.6712 19.3988 13.7063 19.3516C14.7393 19.3044 15.4448 19.1404 16.062 18.9004C16.7003 18.6525 17.2415 18.3207 17.781 17.7811C18.3206 17.2416 18.6524 16.7004 18.9004 16.0621C19.1403 15.4448 19.3044 14.7394 19.3516 13.7064C19.3988 12.6712 19.41 12.3407 19.41 9.70498C19.41 7.06924 19.3988 6.73874 19.3516 5.70365C19.3044 4.67067 19.1403 3.96517 18.9004 3.34791C18.6524 2.70966 18.3206 2.16846 17.781 1.62892C17.2415 1.08938 16.7003 0.757443 16.0621 0.509511C15.4448 0.269616 14.7393 0.105542 13.7063 0.0583815C12.6712 0.0111456 12.3407 0 9.70498 0ZM9.70498 4.72132C6.95256 4.72132 4.72132 6.95271 4.72132 9.70498C4.72132 12.4574 6.95256 14.6886 9.70498 14.6886C12.4573 14.6886 14.6886 12.4574 14.6886 9.70498C14.6886 6.95263 12.4573 4.72132 9.70498 4.72132ZM9.70498 12.94C7.91835 12.94 6.46996 11.4916 6.46996 9.70498C6.46996 7.91835 7.91835 6.46996 9.70498 6.46996C11.4916 6.46996 12.94 7.91835 12.94 9.70498C12.94 11.4916 11.4916 12.94 9.70498 12.94ZM16.0501 4.52442C16.0501 5.16768 15.5287 5.68901 14.8855 5.68901C14.2423 5.68901 13.7209 5.16768 13.7209 4.52442C13.7209 3.88123 14.2423 3.35982 14.8855 3.35982C15.5287 3.35982 16.0501 3.88123 16.0501 4.52442Z" fill="white"/>
</svg>
