<svg width="39" height="30" viewBox="0 0 39 30" fill="none" xmlns="http://www.w3.org/2000/svg">
<path d="M37.7823 9.9448L28.2368 0.399246C27.7042 -0.133215 26.8407 -0.133055 26.3083 0.399566C26.0527 0.65525 25.9091 1.00186 25.909 1.36341V5.45435H16.3635C15.6103 5.45435 14.9998 6.06488 14.9998 6.81803C14.9998 7.57118 15.6103 8.1817 16.3635 8.1817H27.2727C28.0258 8.1817 28.6364 7.57118 28.6364 6.81803V4.65518L34.8901 10.9089L28.6364 17.1626V14.9998C28.6364 14.2467 28.0258 13.6362 27.2727 13.6362H12.2725V9.54521C12.2724 8.79207 11.6617 8.1817 10.9086 8.18186C10.5471 8.18194 10.2004 8.32552 9.94476 8.58113L0.399286 18.1267C-0.133095 18.6592 -0.133095 19.5224 0.399286 20.0549L9.94484 29.6004C10.2005 29.8562 10.5473 29.9999 10.9089 30C11.0881 30.0006 11.2658 29.9653 11.4312 29.8964C11.9406 29.6851 12.2727 29.1879 12.2725 28.6363V24.5454H21.8181C22.5712 24.5454 23.1817 23.9349 23.1817 23.1817C23.1817 22.4286 22.5712 21.818 21.8181 21.818H10.9089C10.1558 21.818 9.54525 22.4286 9.54525 23.1817V25.3445L3.29155 19.0908L9.54525 12.8371V14.9998C9.54525 15.753 10.1558 16.3635 10.9089 16.3635H25.909V20.4544C25.9092 21.2076 26.5199 21.818 27.2729 21.8178C27.6344 21.8177 27.9811 21.6741 28.2368 21.4185L37.7823 11.873C38.3146 11.3404 38.3146 10.4773 37.7823 9.9448Z" fill="white"/>
</svg>
