<svg width="32" height="32" viewBox="0 0 32 32" fill="none" xmlns="http://www.w3.org/2000/svg">
<path fill-rule="evenodd" clip-rule="evenodd" d="M27.0334 4.65035C27.0482 4.6617 27.0629 4.673 27.0765 4.68652C27.0905 4.70085 27.1021 4.71638 27.1137 4.73195C27.1211 4.74186 27.1285 4.75177 27.1365 4.76139C29.9691 7.65267 31.7216 11.6234 31.7216 16C31.7216 22.7354 27.5728 28.5075 21.7202 30.8639C21.6692 30.8887 21.6163 30.9085 21.5621 30.9268C19.7908 31.6172 17.8699 32 15.8608 32C13.8511 32 11.9298 31.6172 10.1589 30.9268C10.1053 30.9085 10.0524 30.8887 10.0021 30.8639C4.14881 28.5081 0 22.7354 0 16C0 11.6221 1.75317 7.65007 4.58767 4.75879C4.59627 4.74875 4.60392 4.73849 4.61153 4.72829C4.62219 4.714 4.63276 4.69982 4.64575 4.68652C4.65814 4.67456 4.67149 4.66437 4.68486 4.65416C4.69588 4.64575 4.70689 4.63734 4.71739 4.62793C7.58351 1.76855 11.521 0 15.8608 0C20.1993 0 24.1355 1.7679 27.0023 4.62533C27.0124 4.63424 27.0229 4.64231 27.0334 4.65035ZM11.8956 28V28.7188C13.148 29.1165 14.4797 29.3333 15.8608 29.3333C17.2419 29.3333 18.5736 29.1165 19.826 28.7188V28C19.826 27.2646 19.2332 26.6667 18.5043 26.6667H13.2173C12.4884 26.6667 11.8956 27.2646 11.8956 28ZM18.5043 24C20.5385 24 22.2178 25.5534 22.4424 27.5459C26.04 25.4505 28.5793 21.7041 29.0113 17.3333H27.7564C27.0268 17.3333 26.4347 16.736 26.4347 16C26.4347 15.264 27.0268 14.6667 27.7564 14.6667H29.01C28.7451 11.9893 27.6909 9.54395 26.0878 7.56803L25.2055 8.45801C24.9471 8.7181 24.6092 8.84798 24.271 8.84798C23.9325 8.84798 23.595 8.7181 23.3365 8.45736C22.8202 7.93587 22.8202 7.09212 23.3365 6.57129L24.2188 5.68197C22.2607 4.06413 19.836 3.0013 17.1819 2.73405V4C17.1819 4.736 16.5898 5.33333 15.8602 5.33333C15.1306 5.33333 14.5384 4.736 14.5384 4V2.7347C11.8843 3.00195 9.46027 4.06478 7.50155 5.68262L8.38313 6.57194C8.89911 7.09277 8.89911 7.93652 8.38313 8.45736C8.1253 8.7181 7.78712 8.84798 7.44862 8.84798C7.11012 8.84798 6.77195 8.7181 6.51412 8.45736L5.63253 7.56803C4.02941 9.54329 2.97519 11.9893 2.71026 14.6667H3.9652C4.6948 14.6667 5.28693 15.264 5.28693 16C5.28693 16.736 4.6948 17.3333 3.9652 17.3333H2.71091C3.14299 21.7041 5.68223 25.4505 9.27988 27.5459C9.50383 25.5534 11.1831 24 13.2173 24H18.5043ZM21.3788 11.3901L19.4202 13.5129C20.1743 14.9729 19.9852 16.8147 18.8115 18.0869C17.3216 19.7018 14.8083 19.7928 13.2075 18.2898C11.6066 16.7869 11.5164 14.2515 13.0063 12.6366C14.18 11.3644 15.9876 11.0422 17.4852 11.6962L19.4438 9.57329C19.9408 9.03452 20.7777 9.00422 21.3118 9.50565C21.8458 10.0071 21.8759 10.8513 21.3788 11.3901ZM14.9414 14.4534C14.4447 14.9917 14.4748 15.8368 15.0084 16.3378C15.542 16.8388 16.3798 16.8085 16.8764 16.2702C17.3731 15.7319 17.343 14.8867 16.8094 14.3858C16.2758 13.8848 15.438 13.9151 14.9414 14.4534Z" fill="#B2B2B2" fill-opacity="0.3"/>
</svg>
