<svg width="50" height="25" viewBox="0 0 50 25" fill="none" xmlns="http://www.w3.org/2000/svg">
<path d="M21.2745 6.38281L21.2745 6.3828C21.8872 5.74364 21.8657 4.72887 21.2265 4.11614C18.6081 1.6062 15.6746 0.35 12.5 0.35C8.92673 0.35 5.89421 1.51864 3.70638 3.70637C3.70638 3.70637 3.70637 3.70638 3.70637 3.70638M21.2745 6.38281L3.70637 3.70638M21.2745 6.38281C20.6618 7.02203 19.647 7.04339 19.0078 6.43073C17.0064 4.51226 14.8737 3.55625 12.5 3.55625C9.77634 3.55625 7.53196 4.40373 5.96784 5.96784C4.40373 7.53196 3.55625 9.77634 3.55625 12.5C3.55625 15.2237 4.40373 17.468 5.96784 19.0322C7.53196 20.5963 9.77634 21.4438 12.5 21.4438C15.1776 21.4438 17.1936 20.2797 18.9081 18.4855C20.6036 16.7112 22.0255 14.2974 23.5218 11.7575L23.5366 11.7323C25.1367 9.01624 26.8164 6.16915 29.0135 3.99513C31.1983 1.83326 33.8826 0.35 37.5 0.35C41.0734 0.35 44.1059 1.51865 46.2936 3.70637C48.4814 5.8942 49.65 8.92663 49.65 12.5C49.65 14.0769 49.4216 15.5602 48.9743 16.9103C48.6959 17.7508 47.7891 18.2065 46.9485 17.928L46.9484 17.928C46.108 17.6496 45.6524 16.7426 45.9308 15.9021L45.9308 15.9021C46.2726 14.8699 46.4437 13.7246 46.4437 12.5C46.4437 9.77634 45.5963 7.53196 44.0322 5.96784C42.468 4.40373 40.2237 3.55625 37.5 3.55625C34.9386 3.55625 32.9747 4.58859 31.3043 6.21478C29.6466 7.82851 28.266 10.039 26.8586 12.4123L26.7651 12.57L26.8415 12.7366C27.3575 13.8625 28.4811 16.026 30.2352 17.913C31.9892 19.8001 34.4061 21.4438 37.5 21.4438C38.5932 21.4438 39.6292 21.3042 40.5782 21.0259C41.4278 20.7769 42.3185 21.2636 42.5677 22.1132L42.9035 22.0147M21.2745 6.38281L42.9035 22.0147M3.70637 3.70638C1.51864 5.89421 0.35 8.92673 0.35 12.5C0.35 16.0733 1.51865 19.1058 3.70638 21.2936C5.8942 23.4814 8.92673 24.65 12.5 24.65C18.3105 24.65 21.7129 20.7299 24.5083 16.3238L24.8148 15.8407L25.1053 16.3336C25.5541 17.095 26.0981 17.9252 26.7422 18.7558C29.7496 22.6341 33.4704 24.65 37.5 24.65C38.9053 24.65 40.2443 24.465 41.4803 24.1026L41.4804 24.1026C42.33 23.8536 42.8168 22.9628 42.5677 22.1132L42.9035 22.0147M3.70637 3.70638L42.9035 22.0147" fill="#353535" stroke="#111111" stroke-width="0.7"/>
</svg>
