<svg width="27" height="27" viewBox="0 0 27 27" fill="none" xmlns="http://www.w3.org/2000/svg">
<path d="M26.9881 24.779L25.2594 6.7789C25.2069 6.28957 24.9806 5.83739 24.6239 5.50908C24.2671 5.18077 23.8051 4.99945 23.3264 4.99989H19.2519C19.0223 3.60189 18.3187 2.3327 17.2658 1.41743C16.2128 0.502169 14.8787 0 13.5 0C12.1213 0 10.7872 0.502169 9.73423 1.41743C8.6813 2.3327 7.97764 3.60189 7.74807 4.99989H3.67358C3.19486 4.99945 2.73284 5.18077 2.37612 5.50908C2.0194 5.83739 1.79311 6.28957 1.74063 6.7789L0.0118967 24.7791C-0.0183105 25.0587 0.00916433 25.3416 0.0925268 25.6095C0.175889 25.8774 0.313265 26.1242 0.495682 26.3338C0.678099 26.5434 0.901455 26.7111 1.15117 26.8259C1.40087 26.9407 1.67132 27 1.94485 27H25.055C25.3286 27 25.599 26.9407 25.8488 26.8259C26.0985 26.7111 26.3219 26.5434 26.5043 26.3338C26.6867 26.1242 26.8241 25.8774 26.9075 25.6095C26.9909 25.3416 27.0183 25.0586 26.9881 24.779ZM13.5 1.99987C14.3621 2.00103 15.1995 2.29614 15.881 2.83899C16.5626 3.38185 17.0499 4.14181 17.2666 4.99989H9.73341C9.9501 4.14181 10.4374 3.38185 11.1189 2.83899C11.8005 2.29614 12.6379 2.00103 13.5 1.99987ZM1.94485 25L3.67358 6.9999H7.66541V9.99992C7.66541 10.2651 7.76786 10.5195 7.95023 10.707C8.1326 10.8946 8.37994 10.9999 8.63784 10.9999C8.89575 10.9999 9.14309 10.8946 9.32545 10.707C9.50782 10.5195 9.61027 10.2651 9.61027 9.99992V6.9999H17.3897V9.99992C17.3897 10.2651 17.4922 10.5195 17.6745 10.707C17.8569 10.8946 18.1042 10.9999 18.3621 10.9999C18.6201 10.9999 18.8674 10.8946 19.0498 10.707C19.2321 10.5195 19.3346 10.2651 19.3346 9.99992V6.9999H23.3264L25.0551 25H1.94485Z" fill="white"/>
</svg>
