<svg width="36" height="36" viewBox="0 0 36 36" fill="none" xmlns="http://www.w3.org/2000/svg">
<path d="M31.6709 27.9773C33.832 25.0432 35 21.5022 35 17.78C35 13.2003 33.2317 8.89459 30.0209 5.65611C26.8099 2.41777 22.5409 0.634277 18 0.634277V2.64355C22.0087 2.64355 25.7776 4.21801 28.6121 7.07693C31.4467 9.93586 33.0078 13.7369 33.0078 17.78C33.0078 21.046 31.9887 24.1537 30.1031 26.7347L29.8747 24.1019L27.8901 24.277L28.411 30.2819L34.3648 29.7565L34.1912 27.7549L31.6709 27.9773Z" fill="#414141" stroke="#414141" stroke-width="0.5" stroke-linecap="round" stroke-linejoin="round"/>
<path d="M2.99219 17.7799C2.99219 14.514 4.01132 11.4063 5.89693 8.82526L6.1253 11.458L8.10992 11.2829L7.58903 5.27808L1.63518 5.80337L1.80876 7.80501L4.32908 7.58265C2.16802 10.5168 1 14.0578 1 17.7799C1 22.3598 2.76827 26.6654 5.97914 29.9039C9.19008 33.1423 13.4591 34.9258 18 34.9258V32.9165C13.9913 32.9165 10.2224 31.342 7.38788 28.4831C4.55327 25.6242 2.99219 21.8231 2.99219 17.7799Z" fill="#414141" stroke="#414141" stroke-width="0.5" stroke-linecap="round" stroke-linejoin="round"/>
<path d="M18 14.5653C16.2424 14.5653 14.8125 16.0074 14.8125 17.7801C14.8125 19.5528 16.2424 20.9949 18 20.9949C19.7576 20.9949 21.1875 19.5528 21.1875 17.7801C21.1875 16.0074 19.7576 14.5653 18 14.5653ZM18 19.4138C17.1068 19.4138 16.3801 18.6809 16.3801 17.7801C16.3801 16.8793 17.1068 16.1463 18 16.1463C18.8932 16.1463 19.6199 16.8793 19.6199 17.7801C19.6199 18.6809 18.8932 19.4138 18 19.4138Z" fill="#414141" stroke="#414141" stroke-width="0.5" stroke-linecap="round" stroke-linejoin="round"/>
<path d="M27.2286 13.6995L25.274 14.34C24.8376 13.405 24.2291 12.5672 23.4898 11.8683L24.6997 10.1887L23.088 9.00767L21.8795 10.6853C21.0047 10.1967 20.0306 9.86784 18.996 9.73824V7.66675H17.0038V9.73824C15.9692 9.86784 14.9952 10.1968 14.1203 10.6853L12.9119 9.00767L11.3001 10.1887L12.51 11.8683C11.7707 12.5672 11.1622 13.4049 10.7258 14.34L8.77117 13.6995L8.15552 15.6103L10.1089 16.2505C10.0147 16.7461 9.96476 17.2573 9.96476 17.7801C9.96476 18.3029 10.0147 18.8141 10.1089 19.3097L8.15552 19.9498L8.77117 21.8607L10.7258 21.2202C11.1623 22.1552 11.7707 22.993 12.51 23.6918L11.3001 25.3715L12.9119 26.5525L14.1203 24.8749C14.9952 25.3635 15.9692 25.6923 17.0038 25.8219V27.8934H18.996V25.8219C20.0306 25.6923 21.0047 25.3634 21.8795 24.8749L23.088 26.5525L24.6997 25.3715L23.4898 23.6918C24.2291 22.993 24.8376 22.1553 25.274 21.2202L27.2286 21.8607L27.8443 19.9498L25.8909 19.3097C25.9851 18.8141 26.0351 18.3029 26.0351 17.7801C26.0351 17.2573 25.9851 16.7461 25.8909 16.2505L27.8443 15.6103L27.2286 13.6995ZM17.9999 23.8749C14.6678 23.8749 11.9569 21.1408 11.9569 17.7801C11.9569 14.4194 14.6678 11.6853 17.9999 11.6853C21.332 11.6853 24.0429 14.4194 24.0429 17.7801C24.0429 21.1408 21.332 23.8749 17.9999 23.8749Z" fill="#414141" stroke="#414141" stroke-width="0.5" stroke-linecap="round" stroke-linejoin="round"/>
</svg>
