<svg width="36" height="36" viewBox="0 0 36 36" fill="none" xmlns="http://www.w3.org/2000/svg">
<path d="M31.8476 36H31.6123C4.41464 34.4354 0.552985 11.4785 0.0131834 4.47231C-0.0303118 3.92757 0.0340676 3.3796 0.202633 2.8598C0.371198 2.34 0.640635 1.85857 0.995507 1.44312C1.35038 1.02766 1.78371 0.686337 2.27067 0.438701C2.75764 0.191065 3.28866 0.041984 3.83332 1.2982e-06H11.4597C12.0142 -0.000535605 12.556 0.165476 13.015 0.476533C13.474 0.78759 13.829 1.22936 14.0342 1.74462L16.138 6.92308C16.3406 7.42645 16.3909 7.97826 16.2826 8.50997C16.1743 9.04168 15.9123 9.52985 15.529 9.91385L12.5809 12.8908C13.0414 15.5087 14.2946 17.922 16.1711 19.8041C18.0475 21.6862 20.4566 22.9463 23.0724 23.4138L26.0759 20.4369C26.4655 20.0578 26.9581 19.8017 27.4922 19.7008C28.0263 19.5998 28.5784 19.6584 29.0794 19.8692L34.2975 21.96C34.8048 22.1717 35.2376 22.5297 35.5408 22.9883C35.844 23.447 36.0038 23.9855 35.9999 24.5354V31.8462C35.9999 32.9478 35.5625 34.0044 34.7837 34.7834C34.005 35.5624 32.9489 36 31.8476 36ZM4.1655 2.76923C3.79841 2.76923 3.44636 2.91511 3.18679 3.17478C2.92722 3.43444 2.78139 3.78662 2.78139 4.15385V4.26462C3.41808 12.4615 7.5012 31.8462 31.7646 33.2308C31.9464 33.242 32.1287 33.2172 32.3009 33.1579C32.4732 33.0985 32.632 33.0057 32.7683 32.8847C32.9046 32.7638 33.0157 32.6172 33.0952 32.4532C33.1748 32.2892 33.2211 32.1112 33.2317 31.9292V24.5354L28.0136 22.4446L24.0413 26.3908L23.3769 26.3077C11.3352 24.7985 9.70192 12.7523 9.70192 12.6277L9.61888 11.9631L13.5497 7.98923L11.4736 2.76923H4.1655Z" fill="url(#paint0_linear)" fill-opacity="0.9"/>
<defs>
<linearGradient id="paint0_linear" x1="5.36433e-08" y1="18" x2="36" y2="18" gradientUnits="userSpaceOnUse">
<stop stop-color="#710FD1"/>
<stop offset="1" stop-color="#FF3839"/>
</linearGradient>
</defs>
</svg>
