<svg width="46" height="35" viewBox="0 0 46 35" fill="none" xmlns="http://www.w3.org/2000/svg">
<path d="M5.16159 12.6641L4.58356 12.0857H2.38584C1.62055 12.0857 1.00031 11.4654 1.00031 10.7001C1.00031 9.93486 1.62055 9.31426 2.38584 9.31426H5.15762C5.52493 9.31426 5.87745 9.46039 6.13723 9.72018L7.54946 11.132L11.4665 3.29803C12.1751 1.88039 13.6 1 15.1847 1H31.1594C32.7441 1 34.1689 1.88039 34.8779 3.29803L38.795 11.132L40.2068 9.72018C40.4666 9.46039 40.8191 9.31426 41.1864 9.31426H43.9582C44.7235 9.31426 45.3438 9.93486 45.3438 10.7001C45.3438 11.4654 44.7235 12.0857 43.9582 12.0857H41.7605L41.1825 12.6641C43.6292 13.7342 45.3438 16.177 45.3438 19.0137V24.5695C45.3438 25.2114 44.9032 25.7692 44.279 25.9179C43.7046 26.0546 43.1363 26.1856 42.5723 26.3123V30.1928C42.5723 32.4851 40.7073 34.3501 38.415 34.3501H35.6436C33.3513 34.3501 31.4863 32.4851 31.4863 30.1928V28.204C28.6698 28.5114 25.9207 28.6655 23.172 28.6655C20.423 28.6655 17.6743 28.5114 14.8574 28.204V30.1928C14.8574 32.4851 12.9927 34.3501 10.7005 34.3501H7.92904C5.63642 34.3501 3.77173 32.4851 3.77173 30.1928V26.3123C3.20778 26.1856 2.05497 25.9154 2.04992 25.9143C1.87456 25.8703 1.00031 25.5946 1.00031 24.4681V19.0137C1.00031 16.177 2.7149 13.7342 5.16159 12.6641ZM32.3988 4.53743C32.1625 4.06476 31.6876 3.77142 31.1594 3.77142H15.1847C14.6564 3.77142 14.1816 4.06476 13.9453 4.53743L10.1711 12.0857H36.1729L32.3988 4.53743ZM34.2581 30.1928C34.2581 30.957 34.8798 31.5787 35.6436 31.5787H38.415C39.1792 31.5787 39.8009 30.957 39.8009 30.1928V26.9011C37.9063 27.28 36.0643 27.5978 34.2581 27.8544V30.1928ZM6.54315 30.1928C6.54315 30.957 7.16483 31.5787 7.92904 31.5787H10.7005C11.4647 31.5787 12.0863 30.957 12.0863 30.1928V27.8544C10.2797 27.5978 8.43779 27.28 6.54315 26.9011V30.1928ZM3.77173 23.4705C17.806 26.6911 28.5381 26.6911 42.5723 23.4705V19.0137C42.5723 16.7218 40.7076 14.8575 38.415 14.8575H7.93661H7.92796H7.92471C5.63425 14.8596 3.77173 16.7232 3.77173 19.0137V23.4705Z" fill="#353535" stroke="#111111" stroke-width="0.5"/>
<path d="M32.5359 19.0559L38.0791 17.67C38.8216 17.4846 39.5739 17.936 39.7594 18.6785C39.9448 19.4207 39.4935 20.1734 38.7513 20.3588L33.2081 21.7447C32.4651 21.9302 31.7132 21.4784 31.5277 20.7362C31.3423 19.994 31.7937 19.2414 32.5359 19.0559Z" fill="#353535" stroke="#111111" stroke-width="0.5"/>
<path d="M8.26495 17.67L13.8078 19.0559C14.5503 19.2414 15.0017 19.9937 14.8163 20.7362C14.6304 21.4788 13.8781 21.9302 13.136 21.7447L7.59275 20.3588C6.85056 20.1734 6.39881 19.4207 6.58463 18.6785C6.77045 17.936 7.52311 17.4846 8.26495 17.67Z" fill="#353535" stroke="#111111" stroke-width="0.5"/>
</svg>
