<svg width="31" height="37" viewBox="0 0 31 37" fill="none" xmlns="http://www.w3.org/2000/svg">
<path d="M1 7.78418C1 6.12733 2.34315 4.78418 4 4.78418H14.548C15.2891 4.78418 16.004 5.05851 16.5549 5.5543L28.2806 16.1075C28.9127 16.6764 29.2737 17.4869 29.2737 18.3373V32.896C29.2737 34.5529 27.9306 35.896 26.2737 35.896H4C2.34315 35.896 1 34.5529 1 32.896V7.78418Z" stroke="white" stroke-width="2"/>
<path d="M29.2742 7.78418C29.2742 6.12733 27.931 4.78418 26.2742 4.78418H14.1913H4.00047C2.34361 4.78418 1.00046 6.12733 1.00046 7.78418V32.896C1.00046 34.5529 2.34361 35.896 4.00046 35.896H26.2742C27.931 35.896 29.2742 34.5529 29.2742 32.896V7.78418Z" stroke="white" stroke-width="2"/>
<rect x="3.78442" width="9.46053" height="2.83816" rx="1.41908" fill="white"/>
<path d="M18.0964 19.0426C19.5967 20.543 19.5967 22.9756 18.0964 24.4759C16.596 25.9763 14.1634 25.9763 12.6631 24.4759C11.1627 22.9756 11.1627 20.543 12.6631 19.0426L15.3797 16.326L18.0964 19.0426Z" fill="#353535"/>
</svg>
