<svg width="80" height="81" viewBox="0 0 80 81" fill="none" xmlns="http://www.w3.org/2000/svg">
<path d="M66.5039 54.1384C65.2853 54.0029 62.6783 52.8641 60.4109 51.2949C55.1302 47.6405 48.2248 44.5001 39.2883 49.2637C33.1945 52.512 25.3242 65.1056 15.7285 65.1056" stroke="#222222" stroke-width="2" stroke-linecap="round"/>
<path d="M31.9785 55.3586C34.4157 52.2444 38.725 47.6408 42.5398 36.6733C45.7894 27.3306 50.3006 24.32 55.1321 23.6748C61.2252 22.8611 63.7978 25.5704 66.912 27.7368" stroke="#222222" stroke-width="2" stroke-linecap="round"/>
<path d="M13.7984 15.9878V70.0128M9.73633 65.1384H69.4482" stroke="#222222" stroke-width="2" stroke-linecap="round"/>
<path fill-rule="evenodd" clip-rule="evenodd" d="M9.33203 40.6894C9.33203 40.1372 9.77973 39.6895 10.332 39.6895H15.6437C16.196 39.6895 16.6437 40.1372 16.6437 40.6894C16.6437 41.2417 16.196 41.6894 15.6437 41.6894H10.332C9.77973 41.6894 9.33203 41.2417 9.33203 40.6894ZM22.3288 40.6896C22.3288 40.1373 22.7765 39.6896 23.3287 39.6896H28.6405C29.1927 39.6896 29.6404 40.1373 29.6404 40.6896C29.6404 41.2419 29.1927 41.6896 28.6405 41.6896H23.3287C22.7765 41.6896 22.3288 41.2419 22.3288 40.6896ZM36.3261 39.6896C35.7739 39.6896 35.3262 40.1373 35.3262 40.6896C35.3262 41.2419 35.7739 41.6896 36.3261 41.6896H41.6379C42.1901 41.6896 42.6378 41.2419 42.6378 40.6896C42.6378 40.1373 42.1901 39.6896 41.6379 39.6896H36.3261ZM48.3288 40.6896C48.3288 40.1373 48.7765 39.6896 49.3287 39.6896H54.6405C55.1927 39.6896 55.6404 40.1373 55.6404 40.6896C55.6404 41.2419 55.1927 41.6896 54.6405 41.6896H49.3287C48.7765 41.6896 48.3288 41.2419 48.3288 40.6896ZM62.3261 39.6896C61.7739 39.6896 61.3262 40.1373 61.3262 40.6896C61.3262 41.2419 61.7739 41.6896 62.3261 41.6896H67.6379C68.1901 41.6896 68.6378 41.2419 68.6378 40.6896C68.6378 40.1373 68.1901 39.6896 67.6379 39.6896H62.3261Z" fill="#222222"/>
<path d="M17.469 17.786L13.8008 13.3301L10.1326 17.786" stroke="#222222" stroke-width="2" stroke-linecap="round" stroke-linejoin="round"/>
<path d="M66.2082 68.8122L70.6641 65.144L66.2082 61.4759" stroke="#222222" stroke-width="2" stroke-linecap="round" stroke-linejoin="round"/>
</svg>
