<svg width="52" height="52" viewBox="0 0 52 52" fill="none" xmlns="http://www.w3.org/2000/svg">
<path d="M44.5 19C44.5 14.3056 40.6944 10.5 36 10.5H25.8522H15C10.8579 10.5 7.5 13.8579 7.5 18V42C7.5 46.6944 11.3056 50.5 16 50.5H36C40.6944 50.5 44.5 46.6944 44.5 42V31.8466V19Z" stroke="black" stroke-width="3"/>
<rect x="12.0742" y="4" width="14" height="3" rx="1.5" fill="black"/>
<path d="M29.2936 28.2127C31.4377 30.3044 31.4377 33.6956 29.2936 35.7873V35.7873C27.1496 37.879 23.6733 37.879 21.5293 35.7873V35.7873C19.3852 33.6956 19.3852 30.3044 21.5293 28.2127L25.4114 24.4254L29.2936 28.2127Z" fill="black"/>
</svg>
