<svg width="52" height="52" viewBox="0 0 52 52" fill="none" xmlns="http://www.w3.org/2000/svg">
<path d="M26 47.5C25.0393 47.5 23.3182 46.907 21.2081 45.5937C19.1624 44.3204 16.9564 42.4979 15.0607 40.3388C9.72737 34.2644 6.5 25.7864 6.5 14.8185C6.5 14.1973 6.91191 13.6579 7.49883 13.4936C14.8674 11.4307 20.7612 8.54897 25.1184 4.82598C25.6271 4.39134 26.3729 4.39134 26.8816 4.82598C31.2388 8.54897 37.1326 11.4307 44.5012 13.4936C45.0881 13.6579 45.5 14.1973 45.5 14.8185C45.5 25.7864 42.2726 34.2644 36.9393 40.3388C35.0436 42.4979 32.8376 44.3204 30.7919 45.5937C28.6818 46.907 26.9607 47.5 26 47.5Z" stroke="black" stroke-width="3"/>
<path d="M19 25.2105L24.1724 31L34 20" stroke="black" stroke-width="3"/>
</svg>
