<svg width="82" height="81" viewBox="0 0 82 81" fill="none" xmlns="http://www.w3.org/2000/svg">
<path d="M17.8614 22.6531C19.948 20.3258 22.926 18.9961 26.0517 18.9961H55.9533C59.079 18.9961 62.0571 20.3258 64.1436 22.6531L73.7814 33.4029C75.8347 35.6932 76.8353 38.7386 76.5404 41.8004L75.141 56.33H6.86405L5.46465 41.8004C5.16975 38.7386 6.17035 35.6932 8.22372 33.4029L17.8614 22.6531Z" stroke="#222222" stroke-width="2"/>
<path d="M21.8001 26.9961L18.5021 30.6605C17.9229 31.3041 18.3796 32.3295 19.2454 32.3295H62.7554C63.6212 32.3295 64.0779 31.3041 63.4987 30.6605L60.2007 26.9961" stroke="#222222" stroke-width="2"/>
<path d="M7 56.3296H22.3336V58.9964C22.3336 61.2055 20.5427 62.9964 18.3336 62.9964H11C8.79086 62.9964 7 61.2055 7 58.9964V56.3296Z" stroke="#222222" stroke-width="2"/>
<path d="M59.666 56.3296H74.9996V58.9964C74.9996 61.2055 73.2087 62.9964 70.9996 62.9964H63.666C61.4569 62.9964 59.666 61.2055 59.666 58.9964V56.3296Z" stroke="#222222" stroke-width="2"/>
<path d="M13.5616 39.4C13.6194 38.8221 14.1558 38.4148 14.728 38.5143L28.4138 40.8944C28.7762 40.9575 29.0748 41.2144 29.1911 41.5634L29.8968 43.6806C30.1127 44.3282 29.6307 44.9969 28.9481 44.9969H14.1069C13.5153 44.9969 13.053 44.486 13.1119 43.8973L13.5616 39.4Z" stroke="#222222" stroke-width="2"/>
<path d="M68.4423 39.3995C68.3845 38.8216 67.8481 38.4143 67.2759 38.5138L53.5902 40.894C53.2277 40.957 52.9291 41.2139 52.8128 41.5629L52.1071 43.6801C51.8912 44.3277 52.3732 44.9964 53.0558 44.9964H67.897C68.4886 44.9964 68.9509 44.4855 68.892 43.8969L68.4423 39.3995Z" stroke="#222222" stroke-width="2"/>
<rect x="2.86051" y="62.547" width="75.9346" height="0.744457" rx="0.372228" fill="white" stroke="#222222" stroke-width="0.744457"/>
<path d="M13.6669 27.9961H2.66667C1.91175 27.9961 1.42906 28.8006 1.78431 29.4667L3.38436 32.4668C3.55815 32.7926 3.8974 32.9962 4.26671 32.9962H9.00013" stroke="#222222" stroke-width="2"/>
<path d="M68.3331 27.9966H79.3333C80.0883 27.9966 80.5709 28.8011 80.2157 29.4672L78.6156 32.4673C78.4418 32.7931 78.1026 32.9967 77.7333 32.9967H72.9999" stroke="#222222" stroke-width="2"/>
</svg>
