<svg width="52" height="52" viewBox="0 0 52 52" fill="none" xmlns="http://www.w3.org/2000/svg">
<mask id="path-1-inside-1" fill="white">
<path fill-rule="evenodd" clip-rule="evenodd" d="M42.9174 43C46.5724 39.283 48.803 34.3283 48.803 28.8879C48.803 17.3518 38.7735 8 26.4015 8C14.0295 8 4 17.3518 4 28.8879C4 34.3283 6.23064 39.283 9.88564 43H42.9174Z"/>
</mask>
<path d="M42.9174 43V46H44.1748L45.0565 45.1034L42.9174 43ZM9.88564 43L7.74654 45.1034L8.62819 46H9.88564V43ZM45.803 28.8879C45.803 33.4821 43.9246 37.6969 40.7783 40.8966L45.0565 45.1034C49.2202 40.869 51.803 35.1745 51.803 28.8879H45.803ZM26.4015 11C37.3178 11 45.803 19.2029 45.803 28.8879H51.803C51.803 15.5008 40.2293 5 26.4015 5V11ZM7 28.8879C7 19.2029 15.4852 11 26.4015 11V5C12.5738 5 1 15.5008 1 28.8879H7ZM12.0247 40.8966C8.87846 37.6969 7 33.4821 7 28.8879H1C1 35.1745 3.58282 40.869 7.74654 45.1034L12.0247 40.8966ZM9.88564 46H42.9174V40H9.88564V46Z" fill="black" mask="url(#path-1-inside-1)"/>
<circle cx="26.5" cy="31.5" r="4" stroke="black" stroke-width="3"/>
<rect width="3" height="12" rx="1.5" transform="matrix(0.72984 0.683618 -0.72984 0.683618 36.7578 19)" fill="black"/>
</svg>
