<?xml version="1.0" encoding="utf-8"?><svg width="208" height="156" viewBox="0 0 208 156" xmlns="http://www.w3.org/2000/svg" xmlns:xlink="http://www.w3.org/1999/xlink"><view id="icon-car" viewBox="0 0 52 51.61"/><svg width="52" height="51.61" fill="none" viewBox="-25.62 -25.62 133.25 132.25" xmlns="http://www.w3.org/2000/svg"><path d="M17.861 22.653a11 11 0 018.19-3.657h29.902a11 11 0 018.19 3.657l9.638 10.75a11 11 0 012.76 8.397l-1.4 14.53H6.864l-1.4-14.53a11 11 0 012.76-8.397l9.637-10.75z" stroke="#222" stroke-width="2"/><path d="M21.8 26.996l-3.298 3.665c-.58.643-.122 1.669.743 1.669h43.51c.866 0 1.323-1.026.744-1.67L60.2 26.996M7 56.33h15.334v2.666a4 4 0 01-4 4H11a4 4 0 01-4-4V56.33zM59.666 56.33H75v2.666a4 4 0 01-4 4h-7.334a4 4 0 01-4-4V56.33zM13.562 39.4a1 1 0 011.166-.886l13.686 2.38a1 1 0 01.777.67l.706 2.117a1 1 0 01-.949 1.316H14.107a1 1 0 01-.995-1.1l.45-4.497zM68.442 39.4a1 1 0 00-1.166-.886l-13.686 2.38a1 1 0 00-.777.669l-.706 2.117a1 1 0 00.949 1.316h14.841a1 1 0 00.995-1.1l-.45-4.496z" stroke="#222" stroke-width="2"/><rect x="2.861" y="62.547" width="75.935" height=".744" rx=".372" fill="#fff" stroke="#222" stroke-width=".744"/><path d="M13.667 27.996h-11a1 1 0 00-.883 1.47l1.6 3a1 1 0 00.883.53H9M68.333 27.997h11a1 1 0 01.883 1.47l-1.6 3a1 1 0 01-.883.53H73" stroke="#222" stroke-width="2"/></svg><view id="icon-charts" viewBox="0 51.61 51.6 52"/><svg width="51.6" height="52" fill="none" viewBox="-25.31 -25.31 130.63 131.63" y="51.61" xmlns="http://www.w3.org/2000/svg"><path d="M66.504 54.138c-1.219-.135-3.826-1.274-6.093-2.843-5.28-3.654-12.186-6.795-21.123-2.031-6.093 3.248-13.964 15.842-23.56 15.842" stroke="#222" stroke-width="2" stroke-linecap="round"/><path d="M31.979 55.359c2.437-3.115 6.746-7.718 10.56-18.686 3.25-9.342 7.762-12.353 12.593-12.998 6.093-.814 8.666 1.895 11.78 4.062M13.798 15.988v54.025m-4.062-4.875h59.712" stroke="#222" stroke-width="2" stroke-linecap="round"/><path fill-rule="evenodd" clip-rule="evenodd" d="M9.332 40.69a1 1 0 011-1h5.312a1 1 0 110 2h-5.312a1 1 0 01-1-1zm12.997 0a1 1 0 011-1h5.311a1 1 0 010 2H23.33a1 1 0 01-1-1zm13.997-1a1 1 0 000 2h5.312a1 1 0 000-2h-5.312zm12.003 1a1 1 0 011-1h5.312a1 1 0 010 2h-5.312a1 1 0 01-1-1zm13.997-1a1 1 0 000 2h5.312a1 1 0 000-2h-5.312z" fill="#222"/><path d="M17.469 17.786l-3.668-4.456-3.668 4.456M66.208 68.812l4.456-3.668-4.456-3.668" stroke="#222" stroke-width="2" stroke-linecap="round" stroke-linejoin="round"/></svg><view id="icon-cloud" viewBox="52 0 52 43.79"/><svg width="52" height="43.79" fill="none" viewBox="-24.37 -24.37 126.75 106.75" x="52" xmlns="http://www.w3.org/2000/svg"><path d="M51.09 49.496h12.092c7.62 0 13.818-6.283 13.818-13.732 0-4.884-2.726-9.326-6.983-11.697-.81-8.577-8.215-15.317-17.199-15.317-2.594 0-5.107.57-7.418 1.675-3.853-5.214-10.09-8.429-16.764-8.429-11.43 0-20.727 9.088-20.727 20.26 0 .591.03 1.188.095 1.798C3.719 26.402 1 30.807 1 35.764c0 7.45 6.197 13.732 13.818 13.732H26.91" stroke="#222" stroke-width="2"/><path d="M36.874 56.373h3.8c1.05 0 1.9-.906 1.9-2.026V44.082h2.85c.702 0 1.346-.412 1.676-1.07a2.144 2.144 0 00-.095-2.08l-6.65-12.157a1.872 1.872 0 00-1.58-.902c-.635 0-1.23.338-1.582.902l-6.65 12.157a2.143 2.143 0 00-.095 2.08c.33.658.974 1.07 1.676 1.07h2.85v10.265c0 1.12.85 2.026 1.9 2.026z" stroke="#222" stroke-width="2"/></svg><view id="icon-infinity" viewBox="52 43.79 51.6 52"/><svg width="51.6" height="52" fill="none" viewBox="-25.31 -25.31 130.63 131.63" x="52" y="43.79" xmlns="http://www.w3.org/2000/svg"><path d="M34.965 41.257l-.506.628-4.7 5.828-.003.003a11.367 11.367 0 01-4.097 3.223 12.142 12.142 0 01-5.191 1.138 12.134 12.134 0 01-5.181-1.177 11.348 11.348 0 01-4.074-3.256 10.456 10.456 0 01-2.068-4.66 10.17 10.17 0 01.416-5.044 10.71 10.71 0 012.804-4.299 11.66 11.66 0 014.55-2.628l18.05 10.244zm0 0l-.506-.627m.506.627l-.506-.627m0 0l-4.696-5.823a10.844 10.844 0 00-3.986-3.23 11.611 11.611 0 00-5.117-1.123m13.8 10.175l-13.8-10.174m0 0a12.584 12.584 0 00-3.745.558l3.745-.559zm52.647 23.547c-2.174 2.031-4.837 3.56-7.775 4.457-2.04.615-4.171.931-6.317.937a20.797 20.797 0 01-8.732-1.962c-2.707-1.273-5.054-3.111-6.86-5.365 0 0 0 0 0 0l-2.902-3.64-.775-.972-.784.966-2.954 3.64-.004.006c-2.444 3.059-5.869 5.331-9.794 6.484a20.945 20.945 0 01-12.05-.085c-3.905-1.208-7.292-3.529-9.686-6.62C2.282 48.758 1 45.052 1 41.258c0-3.795 1.282-7.5 3.674-10.59 2.394-3.093 5.78-5.413 9.686-6.621a20.945 20.945 0 0112.05-.085c3.925 1.152 7.35 3.425 9.794 6.483l.004.006 2.954 3.64.784.966.775-.972 2.903-3.64.004-.005c1.82-2.31 4.203-4.19 6.962-5.487a20.805 20.805 0 018.903-1.957c3.095.01 6.14.702 8.889 2.016 2.747 1.314 5.117 3.211 6.919 5.532 1.801 2.32 2.986 5 3.462 7.817a16.95 16.95 0 01-.713 8.417c-.946 2.716-2.57 5.192-4.743 7.224zM45.415 40.634l-.498.623.498.624 4.655 5.833s0 0 0 0c1.45 1.825 3.47 3.166 5.768 3.846a12.24 12.24 0 007.052-.038c2.29-.704 4.294-2.068 5.721-3.908 1.428-1.842 2.203-4.066 2.203-6.357 0-2.29-.775-4.514-2.203-6.356-1.427-1.84-3.432-3.204-5.72-3.908a12.24 12.24 0 00-7.053-.038c-2.297.68-4.319 2.02-5.768 3.845l-4.655 5.834z" stroke="#222" stroke-width="2"/></svg><view id="iconDiagnosticsAndCodeReader" viewBox="104 0 52 50.25"/><svg width="52" height="50.25" fill="none" viewBox="-17.19 -17.19 89.38 86.38" x="104" xmlns="http://www.w3.org/2000/svg"><g filter="url(#efilter0_d)"><path d="M6.46 20.317c-.835-4.034 2.245-7.817 6.365-7.817h29.35c4.12 0 7.2 3.783 6.366 7.817l-2.69 13a6.5 6.5 0 01-6.365 5.183H15.514a6.5 6.5 0 01-6.365-5.183l-2.69-13z" stroke="#000" stroke-width="3"/><rect x="13" y="24" width="29" height="3" rx="1.5" fill="#000"/><circle cx="15.5" cy="19.5" r="1.5" fill="#000"/><circle cx="21.5" cy="19.5" r="1.5" fill="#000"/><circle cx="27.5" cy="19.5" r="1.5" fill="#000"/><circle cx="33.5" cy="19.5" r="1.5" fill="#000"/><circle cx="39.5" cy="19.5" r="1.5" fill="#000"/><circle cx="18.5" cy="32.5" r="1.5" fill="#000"/><circle cx="24.5" cy="32.5" r="1.5" fill="#000"/><circle cx="30.5" cy="32.5" r="1.5" fill="#000"/><circle cx="36.5" cy="32.5" r="1.5" fill="#000"/></g><defs><filter id="efilter0_d" x="-3" y="0" width="60" height="60" filterUnits="userSpaceOnUse" color-interpolation-filters="sRGB"><feFlood flood-opacity="0" result="BackgroundImageFix"/><feColorMatrix in="SourceAlpha" values="0 0 0 0 0 0 0 0 0 0 0 0 0 0 0 0 0 0 127 0" result="hardAlpha"/><feOffset dy="4"/><feGaussianBlur stdDeviation="2"/><feComposite in2="hardAlpha" operator="out"/><feColorMatrix values="0 0 0 0 0 0 0 0 0 0 0 0 0 0 0 0 0 0 0.25 0"/><feBlend in2="BackgroundImageFix" result="effect1_dropShadow"/><feBlend in="SourceGraphic" in2="effect1_dropShadow" result="shape"/></filter></defs></svg><view id="iconFeatures" viewBox="104 50.25 52 52"/><svg width="52" height="52" fill="none" viewBox="-16.25 -16.25 84.5 84.5" x="104" y="50.25" xmlns="http://www.w3.org/2000/svg"><mask id="fa" fill="#fff"><path fill-rule="evenodd" clip-rule="evenodd" d="M42.917 43c3.655-3.717 5.886-8.672 5.886-14.112C48.803 17.352 38.773 8 26.402 8 14.028 8 4 17.352 4 28.888 4 34.328 6.23 39.283 9.886 43h33.031z"/></mask><path d="M42.917 43v3h1.258l.882-.897L42.916 43zM9.886 43l-2.14 2.103.882.897h1.258v-3zm35.917-14.112c0 4.594-1.878 8.809-5.025 12.009l4.279 4.206c4.163-4.234 6.746-9.928 6.746-16.215h-6zM26.402 11c10.916 0 19.401 8.203 19.401 17.888h6C51.803 15.5 40.229 5 26.402 5v6zM7 28.888C7 19.203 15.485 11 26.401 11V5C12.574 5 1 15.5 1 28.888h6zm5.025 12.009C8.878 37.697 7 33.482 7 28.887H1c0 6.288 2.583 11.982 6.747 16.216l4.278-4.206zM9.885 46h33.032v-6H9.886v6z" fill="#000" mask="url(#fa)"/><circle cx="26.5" cy="31.5" r="4" stroke="#000" stroke-width="3"/><rect width="3" height="12" rx="1.5" transform="scale(1.03215 .96678) rotate(45 -5.917 52.815)" fill="#000"/></svg><view id="iconLifetimeWarranty" viewBox="0 103.61 52 52"/><svg width="52" height="52" fill="none" viewBox="-16.25 -16.25 84.5 84.5" y="103.61" xmlns="http://www.w3.org/2000/svg"><path d="M26 47.5c-.96 0-2.682-.593-4.792-1.906-2.046-1.274-4.252-3.096-6.147-5.255C9.727 34.264 6.5 25.786 6.5 14.819c0-.622.412-1.161.999-1.325 7.368-2.063 13.262-4.945 17.62-8.668a1.355 1.355 0 011.763 0c4.357 3.723 10.25 6.605 17.62 8.668.586.164.998.703.998 1.325 0 10.967-3.227 19.445-8.56 25.52-1.896 2.159-4.102 3.981-6.148 5.255C28.682 46.907 26.96 47.5 26 47.5z" stroke="#000" stroke-width="3"/><path d="M19 25.21L24.172 31 34 20" stroke="#000" stroke-width="3"/></svg><view id="iconMonteProgrammer_" viewBox="52 103.61 52 52"/><svg width="52" height="52" fill="none" viewBox="-16.25 -16.25 84.5 84.5" x="52" y="103.61" xmlns="http://www.w3.org/2000/svg"><rect x="6.5" y="6.5" width="39" height="39" rx="9.5" stroke="#000" stroke-width="3"/><path d="M27.361 18v8H18l9.361-8z" fill="#000"/><path d="M24.215 33.32v-7.692h9l-9 7.692z" fill="#000"/></svg><view id="iconPerformanceMeter" viewBox="104 103.61 52 52"/><svg width="52" height="52" fill="none" viewBox="-16.25 -16.25 84.5 84.5" x="104" y="103.61" xmlns="http://www.w3.org/2000/svg"><path d="M44.407 35.053c-.844-.094-2.652-.883-4.224-1.971-3.661-2.534-8.45-4.711-14.645-1.409-4.225 2.253-9.682 10.984-16.335 10.984" stroke="#000" stroke-width="3" stroke-linecap="round"/><path d="M20.467 35.9c1.69-2.16 4.677-5.352 7.322-12.956 2.253-6.477 5.381-8.565 8.731-9.012 4.224-.564 6.008 1.314 8.167 2.816M7.863 8.602v37.457m-2.816-3.38h41.4" stroke="#000" stroke-width="3" stroke-linecap="round"/><path fill-rule="evenodd" clip-rule="evenodd" d="M13.779 26.535a1.5 1.5 0 011.5-1.5h2.07a1.5 1.5 0 010 3h-2.07a1.5 1.5 0 01-1.5-1.5zm-9.011 0a1.5 1.5 0 011.5-1.5h2.069a1.5 1.5 0 010 3h-2.07a1.5 1.5 0 01-1.5-1.5zm19.521-1.5a1.5 1.5 0 000 3h2.07a1.5 1.5 0 000-3h-2.07zm7.517 1.5a1.5 1.5 0 011.5-1.5h2.07a1.5 1.5 0 010 3h-2.07a1.5 1.5 0 01-1.5-1.5zm10.51-1.5a1.5 1.5 0 000 3h2.07a1.5 1.5 0 000-3h-2.07z" fill="#000"/><path d="M10.409 9.156l-2.544-3.09-2.543 3.09M44.202 45.227l3.089-2.543-3.09-2.544" stroke="#000" stroke-width="3" stroke-linecap="round" stroke-linejoin="round"/></svg><view id="iconPerformanceTunerandFuelSaver" viewBox="156 0 52 52"/><svg width="52" height="52" fill="none" viewBox="-16.25 -16.25 84.5 84.5" x="156" xmlns="http://www.w3.org/2000/svg"><path d="M44.5 19a8.5 8.5 0 00-8.5-8.5H15A7.5 7.5 0 007.5 18v24a8.5 8.5 0 008.5 8.5h20a8.5 8.5 0 008.5-8.5V19z" stroke="#000" stroke-width="3"/><rect x="12.074" y="4" width="14" height="3" rx="1.5" fill="#000"/><path d="M29.294 28.213a5.264 5.264 0 010 7.574c-2.144 2.092-5.62 2.092-7.765 0a5.264 5.264 0 010-7.574l3.882-3.788 3.883 3.788z" fill="#000"/></svg><view id="iconSatisfactionGuaranteed" viewBox="156 52 52 52"/><svg width="52" height="52" fill="none" viewBox="-16.25 -16.25 84.5 84.5" x="156" y="52" xmlns="http://www.w3.org/2000/svg"><circle cx="25.646" cy="25.646" r="21.146" stroke="#000" stroke-width="3"/><path d="M19.145 27.48c0 3.328 2.942 6.025 6.572 6.025s6.573-2.697 6.573-6.024c0-3.328-2.942-6.025-6.573-6.025" stroke="#000" stroke-width="3"/><path d="M26 25.555l-7-4.278L26 17v8.555z" fill="#000"/></svg></svg>