<?xml version="1.0" encoding="UTF-8"?>
<!DOCTYPE svg PUBLIC "-//W3C//DTD SVG 1.1//EN" "http://www.w3.org/Graphics/SVG/1.1/DTD/svg11.dtd">
<!-- Creator: CorelDRAW X7 -->
<svg xmlns="http://www.w3.org/2000/svg" xml:space="preserve" width="122.624mm" height="60.8778mm" version="1.1" style="shape-rendering:geometricPrecision; text-rendering:geometricPrecision; image-rendering:optimizeQuality; fill-rule:evenodd; clip-rule:evenodd"
viewBox="0 0 13310 6608"
 xmlns:xlink="http://www.w3.org/1999/xlink">
 <defs>
  <style type="text/css">
   <![CDATA[
    .str0 {stroke:black;stroke-width:21.709}
    .fil0 {fill:black}
    .fil2 {fill:#000066}
    .fil1 {fill:red}
   ]]>
  </style>
 </defs>
 <g id="Слой_x0020_1">
  <metadata id="CorelCorpID_0Corel-Layer"/>
  <polygon class="fil0 str0" points="11,6597 13299,6597 13299,6487 121,6487 121,11 11,11 "/>
  <path class="fil1" d="M2814 832l517 -302 307 122 391 361 1216 114 785 343 1142 -191 974 365 779 0 2141 1627 365 0 1140 2351 501 -99 10 108 -545 107 -1145 -2358 -344 0 -2141 -1628 -771 0 -970 -363 -1143 192 -791 -346 -1227 -116 -398 -367 -271 -107 -533 310 -191 -204 -300 332c-309,853 -617,1708 -923,2563 -204,572 -408,1143 -609,1717 -69,198 -137,395 -204,594 -20,61 -40,122 -59,183 -6,19 -17,53 -22,76l6 43 -73 21 -7 -53c-4,-29 12,-79 20,-105 18,-59 37,-118 56,-176 66,-199 135,-396 203,-593 205,-587 414,-1172 623,-1757 307,-859 616,-1717 927,-2574l4 -11 357 -396 203 217z"/>
  <polygon class="fil2" points="2744,2232 3387,1678 4006,2062 4203,1928 4383,2041 5395,1006 6375,1644 7069,1434 8240,1933 9004,1856 10900,3034 12347,5788 12288,5854 10853,3123 8992,1966 8232,2042 7066,1546 6367,1757 5403,1131 4392,2164 4204,2047 4007,2181 3392,1799 2748,2355 2143,1924 474,6159 410,6105 2114,1782 "/>
 </g>
</svg>
