<?xml version="1.0" encoding="UTF-8"?>
<!DOCTYPE svg PUBLIC "-//W3C//DTD SVG 1.1//EN" "http://www.w3.org/Graphics/SVG/1.1/DTD/svg11.dtd">
<!-- Creator: CorelDRAW X7 -->
<svg xmlns="http://www.w3.org/2000/svg" xml:space="preserve" width="122.624mm" height="60.8778mm" version="1.1" style="shape-rendering:geometricPrecision; text-rendering:geometricPrecision; image-rendering:optimizeQuality; fill-rule:evenodd; clip-rule:evenodd"
viewBox="0 0 13738 6820"
 xmlns:xlink="http://www.w3.org/1999/xlink">
 <defs>
  <style type="text/css">
   <![CDATA[
    .str0 {stroke:black;stroke-width:22.4063}
    .fil2 {fill:black}
    .fil1 {fill:#000066}
    .fil0 {fill:red}
   ]]>
  </style>
 </defs>
 <g id="Слой_x0020_1">
  <metadata id="CorelCorpID_0Corel-Layer"/>
  <polygon class="fil0" points="12885,1361 11297,1867 6378,3373 367,5717 335,5636 6349,3291 11271,1784 12871,1274 13483,1274 13483,1361 "/>
  <polygon class="fil1" points="2048,3568 2817,3300 3004,3453 5038,2184 5756,2219 6125,1991 7243,2079 8267,1302 8997,1658 9662,1571 11044,2208 11836,2789 12490,3288 13483,3288 13483,3375 12460,3375 11784,2859 10999,2284 9649,1660 8983,1748 8277,1404 7269,2168 6146,2080 5779,2308 5061,2273 2997,3560 2800,3398 2062,3656 1298,3638 276,4355 226,4284 1271,3551 "/>
  <polygon class="fil2 str0" points="11,6809 13727,6809 13727,6695 125,6695 125,11 11,11 "/>
 </g>
</svg>
