<?xml version="1.0" encoding="utf-8"?><svg xmlns="http://www.w3.org/2000/svg" xmlns:xlink="http://www.w3.org/1999/xlink"><symbol fill="none" viewBox="0 0 29 29" id="icon-check" xmlns="http://www.w3.org/2000/svg"><path d="M12.794 18.765a1.703 1.703 0 01-1.203-.503l-2.558-2.56a1.708 1.708 0 012.413-2.413l1.442 1.441 4.768-4.085a1.705 1.705 0 012.218 2.559l-5.971 5.117a1.707 1.707 0 01-1.109.444z" fill="#E2191B"/><path d="M14.5 29C6.492 29 0 22.508 0 14.5S6.492 0 14.5 0 29 6.492 29 14.5 22.508 29 14.5 29zm0-25.588C8.376 3.412 3.412 8.376 3.412 14.5c0 6.124 4.964 11.088 11.088 11.088 6.124 0 11.088-4.964 11.088-11.088 0-6.124-4.964-11.088-11.088-11.088z" fill="#fff"/></symbol><symbol fill="none" viewBox="0 0 29 21" id="icon-checkmark" xmlns="http://www.w3.org/2000/svg"><path d="M28.177.419a1.43 1.43 0 00-2.022 0l-17.13 17.13-6.584-6.585a1.43 1.43 0 00-2.022 2.022l7.595 7.595a1.43 1.43 0 002.022 0l18.14-18.14a1.43 1.43 0 000-2.022z" fill="#FA4616"/></symbol><symbol fill="none" viewBox="0 0 9 9" id="icon-circle-green" xmlns="http://www.w3.org/2000/svg"><circle cx="4.5" cy="4.5" r="4.5" fill="#08B304"/></symbol><symbol fill="none" viewBox="0 0 9 9" id="icon-circle-orange" xmlns="http://www.w3.org/2000/svg"><circle cx="4.5" cy="4.5" r="4.5" fill="#FA4616"/></symbol><symbol fill="none" viewBox="0 0 195 24" id="icon-logo" xmlns="http://www.w3.org/2000/svg"><g clip-path="url(#eclip0)" fill-rule="evenodd" clip-rule="evenodd"><path d="M142.855.09l-2.857 9.102H120.07L122.904.09h-6.492l-7.519 23.912h6.553l2.867-9.163h19.913L135.336 24h6.551L149.346.089h-6.491zM84.448 6.307h26.527l2.027-6.245S89.155.045 82.832.045c-1.639.01-3.366 1.311-3.865 2.914l-5.67 18.125c-.977 3.043 2.009 2.854 2.064 2.854h30.21l2.027-6.244H80.882l3.566-11.387v.001zM82.814.045l.019.001h.02-.04zm69.845.044l-7.519 23.912h6.551L159.149.089h-6.49zm40.056-.044l-30.154.02-2.026 6.254h26.134l-.897 2.875-23.147.005c-1.646 0-3.385 1.306-3.884 2.914L154.944 24h6.561l2.501-8.032a1.595 1.595 0 011.519-1.131l22.045-.006c3.043 0 4.108-1.907 4.697-3.859l2.605-8.264c.499-1.61-.51-2.664-2.157-2.664v.001z" fill="#FEFEFE"/><path d="M74.625 6.262L76.653.017l-29.726-.02c-1.646 0-3.385 1.306-3.884 2.915l-2.796 8.964c-.5 1.608.428 2.913 2.074 2.913l22.7.001-.915 2.858h-31.61c0-.002 0-.002-.002-.003l-1.965-2.86 2.099.004c3.187 0 4.13-2.069 4.671-3.864l2.605-8.265c.5-1.609-.51-2.664-2.155-2.664L7.595.016 5.569 6.27h26.134l-.897 2.874-23.148.006c-1.646 0-3.384 1.305-3.884 2.913L.004 23.951h7.082l2.545-8.04a1.6 1.6 0 011.52-1.123h11.286l5.612 8.03a2.632 2.632 0 002.16 1.132l36.023-.025c1.644 0 3.385-1.305 3.885-2.915l2.84-8.947c.5-1.608-.43-2.914-2.074-2.914l-22.709-.005.899-2.884h25.555l-.003.002z" fill="#E2191B"/></g><defs><clipPath id="eclip0"><path fill="#fff" d="M0 0h195v24H0z"/></clipPath></defs></symbol></svg>